<?xml version="1.0" encoding="UTF-8" standalone="no"?>
<!-- Created with Inkscape (http://www.inkscape.org/) -->

<svg
   width="451.26505"
   height="353.21692"
   viewBox="0 0 119.39721 93.455309"
   version="1.1"
   id="svg1"
   xml:space="preserve"
   xmlns="http://www.w3.org/2000/svg"
   xmlns:svg="http://www.w3.org/2000/svg"><defs
     id="defs1" /><g
     id="g1"
     transform="matrix(0.26458333,0,0,0.26458335,-16015.945,-3486.0663)"><path
       id="path2265-5-76-1-9"
       style="fill:#ed4980;fill-opacity:1;stroke-width:2.89814"
       d="m 60750.079,13175.693 c -4.322,0.315 -8.521,8.376 -18.343,24.579 -15.667,25.849 -27.545,51.181 -32.091,68.446 -7.045,26.728 -3.221,63.106 9.249,88.028 5.542,11.062 21.959,33.91 23.365,32.501 0.441,-0.442 -1.926,-7.408 -5.242,-15.504 -12.474,-30.482 -14.264,-39.927 -14.116,-74.385 0.126,-33.77 4.016,-56.278 13.485,-78.322 4.757,-11.093 20.787,-35.697 23.211,-35.65 3.149,0.03 36.904,74.735 40.964,90.62 5.129,20.052 5.589,51.458 1.034,70.773 -3.348,14.207 -13.41,35.725 -25.653,54.866 -4.124,6.443 -6.633,11.714 -5.574,11.714 4.574,0 31.836,-32.031 39.177,-46.031 13.401,-25.536 17.956,-58.065 12.118,-86.512 -3.6,-17.523 -23.018,-55.616 -42.487,-83.341 -10.324,-14.699 -14.775,-22.104 -19.097,-21.782 z m 233.675,129.715 c -0.643,-0.637 -24.957,7.215 -54.043,17.463 -91.704,32.305 -106.593,39.02 -121.27,54.677 -7.849,8.373 -13.637,16.755 -13.637,19.74 0,1.176 2.308,-1.251 5.126,-5.403 6.446,-9.488 17.252,-17.789 31.867,-24.478 12.051,-5.516 127.413,-39.662 128.917,-38.155 1.522,1.516 -16.046,36.422 -24.863,49.409 -11.953,17.596 -35.205,38.704 -52.851,47.969 -47.402,24.9 -91.745,17.448 -153.193,-25.739 -86.115,-60.524 -111.309,-73.323 -150.259,-76.339 -19.301,-1.498 -46.843,2.553 -46.843,6.884 0,12.338 19.992,45.378 41.538,68.654 22.47,24.27 49.485,39.19 75.965,41.964 l 11.414,1.185 -12.786,-3.852 c -37.79,-11.402 -71.904,-42.455 -93.466,-85.087 -3.092,-6.112 -5.62,-12.108 -5.62,-13.315 0,-3.279 26.618,-2.648 42.07,0.996 26.968,6.358 57.987,24.181 108.862,62.567 43.556,32.866 67.16,45.781 97.968,53.627 64.935,16.537 133.85,-23.349 167.981,-97.221 7.597,-16.439 19.055,-53.614 17.123,-55.546 z m -321.189,169.288 c -0.965,0 -3.588,10.904 6.254,23.86 5.025,6.573 12.351,12.411 22.22,17.193 18.441,8.993 40.744,13.375 67.044,13.142 h 0.315 c 26.502,-0.126 48.88,-4.899 67.299,-14 9.841,-4.823 17.126,-10.579 22.173,-17.063 9.697,-12.493 7.251,-23.129 6.299,-23.129 -0.956,0 -0.773,9.814 -10.173,19.844 -5.028,5.403 -11.821,9.902 -21.237,14.047 -17.773,7.767 -38.723,11.56 -64.427,11.812 h -0.315 c -25.506,0.09 -46.336,-3.335 -64.059,-10.999 -9.393,-4.095 -16.209,-8.659 -21.186,-14.132 -9.549,-10.386 -9.246,-20.572 -10.211,-20.572 z m 45.979,0 v 0 c -0.693,0 -1.721,4.978 3.279,9.832 2.871,2.847 6.73,5.132 11.815,7.011 9.728,3.666 21.107,5.413 34.735,5.321 h 0.492 c 13.804,-0.09 25.231,-1.973 34.946,-5.753 4.975,-1.897 8.716,-4.158 11.487,-6.97 4.741,-4.678 3.543,-9.453 2.863,-9.438 -0.675,0 -1.113,3.597 -5.268,6.674 -2.752,1.989 -5.967,3.3 -10.784,4.741 -9.46,2.752 -19.797,3.931 -33.292,4.054 h -0.482 c -13.293,0 -23.589,-1.037 -33.017,-3.701 -4.899,-1.418 -8.228,-2.774 -11.059,-4.788 -4.432,-3.216 -5.018,-7.002 -5.715,-6.98 z" /></g></svg>
