<?xml version="1.0" encoding="UTF-8" standalone="no"?>
<!-- Created with Inkscape (http://www.inkscape.org/) -->

<svg
   width="832.20471"
   height="612.8432"
   viewBox="0 0 220.18749 162.1481"
   version="1.1"
   id="svg1"
   xml:space="preserve"
   xmlns="http://www.w3.org/2000/svg"
   xmlns:svg="http://www.w3.org/2000/svg"><defs
     id="defs1" /><g
     id="g1"
     transform="matrix(0.26458333,0,0,0.26458335,-16597.277,-3496.9092)"><g
       id="g435-8-7"
       transform="matrix(1.0363019,0,0,1.0363019,62729.868,13216.664)"><path
         d="M 997.07789,189.37527 H 202.92213 a 4.45318,4.45318 0 0 1 -4.44832,-4.44831 v -26.1662 a 4.45318,4.45318 0 0 1 4.44832,-4.44831 h 794.15576 a 4.45317,4.45317 0 0 1 4.44831,4.44831 V 184.927 a 4.45318,4.45318 0 0 1 -4.44831,4.44827 z"
         transform="translate(-198.47381,-154.31245)"
         fill="#e4e4e4"
         id="path395-0-5" /><circle
         id="circle395-0-2"
         data-name="a7a88a4d-66b2-4c09-a29b-e65e87e57a01"
         cx="25.815491"
         cy="16.255119"
         r="6.3154998"
         fill="#ffffff" /><circle
         id="circle396-3-9"
         data-name="ecd091ab-fa27-42b2-b94f-bd1073aab054"
         cx="49.787048"
         cy="16.255119"
         r="6.3154998"
         fill="#ffffff" /><circle
         id="circle397-3-0"
         data-name="a332723e-32dc-4e13-8ae5-d2643a7feb7f"
         cx="73.75972"
         cy="16.255119"
         r="6.3154998"
         fill="#ffffff" /><path
         d="M 973.59083,166.2207 H 945.9867 a 2.04475,2.04475 0 0 1 0,-4.08949 h 27.60413 a 2.04475,2.04475 0 0 1 0.008,4.08949 z"
         transform="translate(-198.47381,-154.31245)"
         fill="#ffffff"
         id="path397-5-8" /><path
         d="M 973.59083,173.88852 H 945.9867 a 2.04475,2.04475 0 0 1 0,-4.08949 h 27.60413 a 2.04475,2.04475 0 0 1 0.008,4.08949 z"
         transform="translate(-198.47381,-154.31245)"
         fill="#ffffff"
         id="path398-1-4" /><path
         d="M 973.59083,181.55634 H 945.9867 a 2.04475,2.04475 0 0 1 0,-4.0895 h 27.60413 a 2.0447539,2.0447539 0 0 1 0.008,4.0895 z"
         transform="translate(-198.47381,-154.31245)"
         fill="#ffffff"
         id="path399-6-7" /><path
         d="m 424.91688,674.27641 c 2.92224,-23.4981 17.48511,-46.65063 39.89523,-54.29754 a 109.09788,109.09788 0 0 0 0.005,74.90374 c 3.44358,9.31476 8.24353,19.31641 5.0044,28.70429 -2.01535,5.84137 -6.94565,10.31055 -12.4567,13.105 -5.51141,2.79443 -11.6279,4.12634 -17.66788,5.43158 l -1.18869,0.98315 c -9.58834,-21.65102 -16.514,-45.33205 -13.59176,-68.83022 z"
         transform="translate(-198.47381,-154.31245)"
         fill="#f0f0f0"
         id="path400-9-0"
         style="fill:#bbbbbb;fill-opacity:1" /><path
         d="m 465.03449,620.4232 a 93.25009,93.25009 0 0 0 -23.18185,52.4812 40.15631,40.15631 0 0 0 0.45679,12.57361 23.03162,23.03162 0 0 0 5.72827,10.68256 c 2.58185,2.83667 5.5513,5.43933 7.39865,8.85425 a 14.10232,14.10232 0 0 1 0.689,11.51263 c -1.631,4.678 -4.84564,8.491 -8.11886,12.11054 -3.63428,4.01879 -7.47284,8.13549 -9.0177,13.46337 -0.1872,0.64557 -1.17789,0.31739 -0.991,-0.32721 2.68777,-9.26959 11.68607,-14.53485 15.97736,-22.88385 2.00238,-3.89581 2.84286,-8.41864 0.96566,-12.531 -1.64154,-3.59613 -4.70135,-6.28259 -7.34039,-9.1322 a 24.57672,24.57672 0 0 1 -5.9902,-10.23658 37.12347,37.12347 0 0 1 -0.93851,-12.50964 90.469,90.469 0 0 1 6.60736,-27.49286 94.90381,94.90381 0 0 1 17.06493,-27.34741 c 0.44623,-0.4997 1.13385,0.28632 0.69055,0.78271 z"
         transform="translate(-198.47381,-154.31245)"
         fill="#ffffff"
         id="path401-3-8"
         style="fill:#bbbbbb;fill-opacity:1" /><path
         d="m 442.13355,666.58873 a 13.99051,13.99051 0 0 1 -10.64955,-14.65558 0.52227,0.52227 0 0 1 1.0426,0.0521 12.95492,12.95492 0 0 0 9.93414,13.61249 c 0.65334,0.1553 0.32241,1.14545 -0.32719,0.99103 z"
         transform="translate(-198.47381,-154.31245)"
         fill="#ffffff"
         id="path402-6-2"
         style="fill:#bbbbbb;fill-opacity:1" /><path
         d="m 446.53916,694.89464 a 26.96549,26.96549 0 0 0 12.04175,-15.53015 c 0.18945,-0.64484 1.18024,-0.3169 0.991,0.32721 a 28.04826,28.04826 0 0 1 -12.56339,16.13507 c -0.5787,0.34323 -1.04492,-0.5907 -0.46936,-0.93213 z"
         transform="translate(-198.47381,-154.31245)"
         fill="#ffffff"
         id="path403-7-5" /><path
         d="m 452.33448,637.95433 a 7.91916,7.91916 0 0 0 7.50482,-0.381 c 0.57407,-0.35046 1.03971,0.584 0.46936,0.93213 a 8.87421,8.87421 0 0 1 -8.30139,0.43988 0.53934,0.53934 0 0 1 -0.33191,-0.65912 0.52444,0.52444 0 0 1 0.65912,-0.33189 z"
         transform="translate(-198.47381,-154.31245)"
         fill="#ffffff"
         id="path404-5-4"
         style="fill:#fbfbfb;fill-opacity:1" /><path
         d="m 533.12128,661.94939 c -0.35223,0.229 -0.70446,0.458 -1.05712,0.69586 a 104.2919,104.2919 0 0 0 -13.335,10.411 c -0.326,0.29071 -0.652,0.59015 -0.969,0.88965 a 109.94776,109.94776 0 0 0 -23.87842,32.68658 106.77244,106.77244 0 0 0 -5.84863,15.13214 c -2.15814,7.16095 -3.92835,15.09687 -8.20032,20.95423 a 18.31835,18.31835 0 0 1 -1.427,1.76159 h -38.60558 c -0.0877,-0.044 -0.1759,-0.0793 -0.26407,-0.12335 l -1.54141,0.0705 c 0.0619,-0.273 0.132,-0.55493 0.194,-0.82794 0.0353,-0.15857 0.0791,-0.31708 0.11441,-0.47565 0.0262,-0.10571 0.0529,-0.21143 0.0705,-0.30829 0.009,-0.0352 0.0176,-0.0704 0.0263,-0.0969 0.0176,-0.0969 0.0443,-0.185 0.0619,-0.27307 q 0.58122,-2.365 1.19778,-4.72992 c 0,-0.009 0,-0.009 0.009,-0.0176 a 156.9946,156.9946 0 0 1 13.212,-34.686 c 0.17633,-0.32586 0.35223,-0.66058 0.5462,-0.98651 a 101.88533,101.88533 0 0 1 9.15164,-13.88147 90.0712,90.0712 0 0 1 5.99832,-6.86145 74.90082,74.90082 0 0 1 18.74329,-14.04 c 13.84637,-7.31067 29.87671,-10.11157 44.67444,-5.64593 0.37843,0.11479 0.74873,0.22924 1.12717,0.35253 z"
         transform="translate(-198.47381,-154.31245)"
         fill="#f0f0f0"
         id="path405-4-4"
         style="fill:#bbbbbb;fill-opacity:1" /><path
         d="m 533.03452,662.43938 a 93.24986,93.24986 0 0 0 -50.10672,27.94622 40.1569,40.1569 0 0 0 -7.20544,10.31434 23.03161,23.03161 0 0 0 -1.858,11.97827 c 0.35357,3.81939 1.15756,7.68524 0.57657,11.52411 a 14.10252,14.10252 0 0 1 -6.38129,9.607 c -4.11878,2.75317 -8.98114,3.86218 -13.77384,4.7815 -5.32138,1.02069 -10.86477,1.99658 -15.306,5.32049 -0.53812,0.40271 -1.13157,-0.45581 -0.59427,-0.85791 7.727,-5.783 18.08166,-4.56946 26.53466,-8.652 3.94434,-1.905 7.33847,-5.01019 8.31559,-9.424 0.85443,-3.85962 0.0288,-7.84686 -0.36267,-11.711 a 24.57678,24.57678 0 0 1 1.38028,-11.77984 37.12469,37.12469 0 0 1 6.78231,-10.55329 90.47,90.47 0 0 1 21.82822,-17.97345 94.90373,94.90373 0 0 1 30.09042,-11.56115 c 0.65714,-0.13031 0.73294,0.91125 0.0801,1.04071 z"
         transform="translate(-198.47381,-154.31245)"
         fill="#ffffff"
         id="path406-5-5"
         style="fill:#fbfbfb;fill-opacity:1" /><path
         d="m 486.95457,685.512 a 13.99047,13.99047 0 0 1 0.32061,-18.1134 c 0.44547,-0.50245 1.24717,0.16619 0.80109,0.66931 a 12.95487,12.95487 0 0 0 -0.26379,16.84985 c 0.42813,0.51741 -0.43222,1.10871 -0.85791,0.59424 z"
         transform="translate(-198.47381,-154.31245)"
         fill="#ffffff"
         id="path407-7-6" /><path
         d="m 473.43006,710.76518 a 26.96573,26.96573 0 0 0 18.96488,-5.15 c 0.53952,-0.40082 1.13311,0.45758 0.59426,0.85791 a 28.04838,28.04838 0 0 1 -19.74557,5.319 c -0.66873,-0.0744 -0.47863,-1.10082 0.18643,-1.02691 z"
         transform="translate(-198.47381,-154.31245)"
         fill="#ffffff"
         id="path408-7-2" /><path
         d="m 512.3393,668.7907 a 7.91928,7.91928 0 0 0 6.22156,4.21423 c 0.66934,0.0658 0.47855,1.09222 -0.18643,1.02685 a 8.87419,8.87419 0 0 1 -6.893,-4.64679 0.53933,0.53933 0 0 1 0.13181,-0.72607 0.52444,0.52444 0 0 1 0.7261,0.13184 z"
         transform="translate(-198.47381,-154.31245)"
         fill="#ffffff"
         id="path409-8-6" /><path
         d="M 458.76688,336.75688 H 331.0413 A 14.90431,14.90431 0 0 1 316.15409,321.86919 V 252.30374 A 14.90346,14.90346 0 0 1 331.0413,237.417 h 127.72558 a 14.90347,14.90347 0 0 1 14.88721,14.88672 v 69.56543 a 14.90431,14.90431 0 0 1 -14.88721,14.88773 z"
         transform="translate(-198.47381,-154.31245)"
         fill="#e6e6e6"
         id="path410-2-3"
         style="fill:#a5a5a5;fill-opacity:1" /><path
         d="M 653.76688,336.75688 H 526.0413 A 14.90431,14.90431 0 0 1 511.15409,321.86919 V 252.30374 A 14.90346,14.90346 0 0 1 526.0413,237.417 h 127.72558 a 14.90345,14.90345 0 0 1 14.88721,14.88672 v 69.56543 a 14.90433,14.90433 0 0 1 -14.88721,14.88773 z"
         transform="translate(-198.47381,-154.31245)"
         fill="#ed4980"
         id="path411-9-9"
         style="fill:#be7dcd;fill-opacity:1" /><path
         d="M 848.76688,336.75688 H 721.0413 A 14.90431,14.90431 0 0 1 706.15409,321.86919 V 252.30374 A 14.90346,14.90346 0 0 1 721.0413,237.417 h 127.72558 a 14.90345,14.90345 0 0 1 14.88721,14.88672 v 69.56543 a 14.90433,14.90433 0 0 1 -14.88721,14.88773 z"
         transform="translate(-198.47381,-154.31245)"
         fill="#e6e6e6"
         id="path412-0-4"
         style="fill:#a5a5a5;fill-opacity:1" /><path
         d="M 458.76688,491.75688 H 331.0413 A 14.90431,14.90431 0 0 1 316.15409,476.86919 V 407.30376 A 14.90349,14.90349 0 0 1 331.0413,392.417 h 127.72558 a 14.90348,14.90348 0 0 1 14.88721,14.88672 v 69.56543 a 14.90431,14.90431 0 0 1 -14.88721,14.88773 z"
         transform="translate(-198.47381,-154.31245)"
         fill="#f2f2f2"
         id="path413-5-5"
         style="fill:#a5a5a5;fill-opacity:1" /><path
         d="M 653.76688,491.75688 H 526.0413 A 14.90431,14.90431 0 0 1 511.15409,476.86919 V 407.30376 A 14.90349,14.90349 0 0 1 526.0413,392.417 h 127.72558 a 14.90346,14.90346 0 0 1 14.88721,14.88672 v 69.56543 a 14.90433,14.90433 0 0 1 -14.88721,14.88773 z"
         transform="translate(-198.47381,-154.31245)"
         fill="#e6e6e6"
         id="path414-6-1"
         style="fill:#a5a5a5;fill-opacity:1" /><g
         id="g415-8-1"
         data-name="aa405d94-515b-444f-88dd-2c52df39214d"><circle
           id="circle414-4-3"
           data-name="ede3a9f0-5e02-4455-ac7e-751a5f8c3692"
           cx="464.31155"
           cy="327.43307"
           r="22.812229"
           fill="#ed4980" /><path
           id="path415-4-9"
           data-name="ba039ca8-d148-45ed-9781-bacb7304e881"
           d="m 672.25828,479.82985 h -7.75611 v -7.75613 a 1.82507,1.82507 0 0 0 -1.82507,-1.82511 v 0 a 1.82508,1.82508 0 0 0 -1.82507,1.82511 v 7.75613 h -7.75611 a 1.82507,1.82507 0 0 0 -1.82507,1.8251 v 0 a 1.82508,1.82508 0 0 0 1.82507,1.82511 h 7.75617 v 7.75613 a 1.82507,1.82507 0 0 0 1.82507,1.8251 v 0 a 1.82508,1.82508 0 0 0 1.82508,-1.82507 V 483.48 h 7.756 a 1.82508,1.82508 0 0 0 1.82507,-1.82511 v 0 a 1.82507,1.82507 0 0 0 -1.82507,-1.8251 v 0 z"
           transform="translate(-198.47381,-154.31245)"
           fill="#ffffff" /></g><g
         id="g416-6-0"
         data-name="bbf41f8a-587e-4352-8304-6d86282586e3"><circle
           id="circle415-2-7"
           data-name="e4c91425-bc08-43ed-9b2d-9a6452dd6ab0"
           cx="662.31152"
           cy="176.43306"
           r="22.812241"
           fill="#ed4980" /><path
           id="path416-3-5"
           data-name="b08e8960-896e-4763-a2dc-6c3da3e5d175"
           d="m 870.25828,328.82985 h -7.75611 v -7.75613 a 1.82507,1.82507 0 0 0 -1.82507,-1.82511 v 0 a 1.82508,1.82508 0 0 0 -1.82507,1.82511 v 7.75613 h -7.75611 a 1.82507,1.82507 0 0 0 -1.82507,1.8251 v 0 a 1.82508,1.82508 0 0 0 1.82507,1.82511 h 7.75617 v 7.75613 a 1.82507,1.82507 0 0 0 1.82507,1.8251 v 0 a 1.82508,1.82508 0 0 0 1.82508,-1.82507 V 332.48 h 7.756 a 1.82508,1.82508 0 0 0 1.82507,-1.82511 v 0 a 1.82507,1.82507 0 0 0 -1.82507,-1.8251 v 0 z"
           transform="translate(-198.47381,-154.31245)"
           fill="#ffffff" /></g><g
         id="g417-2-3"
         data-name="b77ad267-181d-433f-b31f-af61e58bf4a6"><circle
           id="circle416-1-2"
           data-name="e8aef769-5476-47e9-8295-ae809767f9aa"
           cx="269.31155"
           cy="174.43306"
           r="22.812229"
           fill="#ed4980" /><path
           id="path417-6-3"
           data-name="efbebd4e-dbd2-4103-8d2c-f0ca8346a3bf"
           d="m 477.25828,326.82985 h -7.75614 v -7.75613 a 1.82509,1.82509 0 0 0 -1.82507,-1.82511 v 0 a 1.8251,1.8251 0 0 0 -1.8251,1.82511 v 0 7.75613 h -7.75614 a 1.8251,1.8251 0 0 0 -1.8251,1.8251 v 0 a 1.8251,1.8251 0 0 0 1.82507,1.82511 h 7.75614 v 7.75613 a 1.82509,1.82509 0 0 0 1.8251,1.8251 v 0 a 1.82508,1.82508 0 0 0 1.8251,-1.82507 V 330.48 h 7.75614 a 1.8251,1.8251 0 0 0 1.8251,-1.82511 v 0 a 1.8251,1.8251 0 0 0 -1.8251,-1.8251 v 0 z"
           transform="translate(-198.47381,-154.31245)"
           fill="#ffffff" /></g><path
         d="m 638.57566,297.23225 a 9.06978,9.06978 0 0 1 -7.3208,11.82447 l -10.54828,72.00079 -17.303,-8.451 17.40372,-71.8703 a 9.11882,9.11882 0 0 1 17.76831,-3.504 z"
         transform="translate(-198.47381,-154.31245)"
         fill="#9e616a"
         id="path418-8-4" /><path
         d="m 512.5893,527.83214 a 9.06961,9.06961 0 0 0 -3.492,-13.46173 l 7.11621,-76.58634 -14.90473,7.63986 -4.654,73.80091 a 9.11882,9.11882 0 0 0 15.93442,8.6073 z"
         transform="translate(-198.47381,-154.31245)"
         fill="#9e616a"
         id="path419-9-7" /><polygon
         points="318.148,265.903 324.298,334.784 388.259,332.324 391.949,265.903 "
         fill="#9e616a"
         id="polygon419-2-7" /><polygon
         points="312.425,527.197 312.427,569.355 323.357,569.354 328.556,527.197 "
         fill="#9e616a"
         id="polygon420-8-1" /><path
         d="m 508.18961,718.27562 17.27774,-1.03125 v 7.40253 l 16.42643,11.34466 a 4.6239,4.6239 0 0 1 -2.62748,8.429 h -20.56979 l -3.5455,-7.32221 -1.38434,7.32221 h -7.75561 z"
         transform="translate(-198.47381,-154.31245)"
         fill="#2f2e41"
         id="path420-0-3" /><polygon
         points="361.039,527.197 361.041,569.355 371.971,569.354 377.17,527.197 "
         fill="#9e616a"
         id="polygon421-2-5" /><path
         d="m 521.88435,473.5041 c 0,0 -19.13755,15.45038 -8.76307,70.62845 -1.5798,0.1883 0.20908,3.30231 0.20908,3.30231 l 1.497,44.95953 1.15683,5.1529 -3.84607,8.31463 1.58551,9.034 -4.888,81.9917 18.05719,2.33508 17.28018,-85.14355 3.2909,-9.57257 3.3009,-8.39075 -1.78055,-8.94769 1.46033,-13.88788 9.96188,-46.829 2.43869,81.21808 -3.403,7.75378 1.89376,8.5116 -4.219,4.51819 -1.66748,75.98993 19.25439,0.90063 15.9311,-76.60315 -1.23529,-9.77545 2.1195,-7.22791 v -16.88309 l 3.63025,-7.96808 7.914,-43.44751 c 0,0 2.38742,-33.95831 -15.03183,-73.91895 z"
         transform="translate(-198.47381,-154.31245)"
         fill="#2f2e41"
         id="path421-5-1" /><path
         d="m 529.68385,365.01326 c 0,0 -24.17157,4.78046 -28.33655,25.39468 -4.16498,20.61422 -6.84455,67.26288 -6.84455,67.26288 l 0.91214,6.49622 23.38169,5.42178 14.92358,-65.36273 z"
         transform="translate(-198.47381,-154.31245)"
         fill="#3f3d56"
         id="path422-4-1" /><path
         d="m 584.84711,371.97145 c 0,0 2.45014,-3.43347 16.17112,-3.963 0.56491,-0.0218 -0.13456,-1.14252 -0.13456,-1.14252 l 6.59879,-32.25272 21.9906,12.17527 -3.7121,33.813 -36.13556,41.10065 z"
         transform="translate(-198.47381,-154.31245)"
         fill="#3f3d56"
         id="path423-9-6" /><path
         d="m 571.13981,468.12233 c -10.3526,7.9e-4 -25.936,-1.14172 -49.39554,-4.62451 a 7.165,7.165 0 0 1 -6.01373,-5.99893 5.42418,5.42418 0 0 1 -0.91135,-6.16007 l 0.0218,-0.0428 -0.53155,-0.6265 a 5.80077,5.80077 0 0 1 -0.38681,-7.01147 l -7.2652,-51.97477 a 21.89569,21.89569 0 0 1 15.22772,-24.02145 l 2.682,-0.83508 10.14248,-13.26648 0.2,0.002 32.5607,0.4335 10.56662,13.41824 17.08081,4.02756 0.0444,0.26 3.96609,22.914 c 2.06241,11.91773 -2.66794,16.606 -8.70578,27.0863 l 1.77213,29.43436 0.804,1.46082 a 3.95918,3.95918 0 0 1 -0.94793,4.96774 7.71178,7.71178 0 0 1 0.10507,4.7724 l -0.41794,1.38065 c 7.9e-4,0.0397 -0.11054,0.60083 -1.01254,1.2857 -1.62595,1.23503 -6.29483,3.11845 -19.58542,3.11845 z"
         transform="translate(-198.47381,-154.31245)"
         fill="#3f3d56"
         id="path424-0-1" /><path
         d="m 556.80378,718.27562 17.27774,-1.03125 v 7.40253 l 16.42642,11.34466 a 4.6239,4.6239 0 0 1 -2.62747,8.429 h -20.56979 l -3.54551,-7.32221 -1.38433,7.32221 h -7.75565 z"
         transform="translate(-198.47381,-154.31245)"
         fill="#2f2e41"
         id="path425-9-9" /><circle
         cx="549.75372"
         cy="320.56323"
         r="25.526541"
         transform="matrix(0.16018,-0.98709,0.98709,0.16018,-53.20484,657.55723)"
         fill="#9e616a"
         id="circle425-1-7" /><path
         d="m 564.67988,295.61836 c -9.35593,-6.43451 -17.59488,-7.41464 -24.36267,-5.58966 a 8.89677,8.89677 0 0 0 -3.55887,-3.16012 c -5.27838,-13.30008 -21.34168,-21.28745 -35.127,-17.40467 -13.87448,3.9079 -23.44757,19.27674 -20.83691,33.45273 1.61789,8.787 7.14792,16.39591 9.37222,25.04932 4.30573,16.75143 -6.19781,35.94018 -22.62927,41.34 15.55756,3.12384 32.68268,-6.37912 38.264,-21.23346 2.71084,-7.215 2.87433,-15.09237 3.219,-22.79211 a 75.56441,75.56441 0 0 1 1.9426,-15.783 33.72225,33.72225 0 0 1 2.51172,-6.72034 22.99686,22.99686 0 0 1 11.0059,-10.67785 8.778,8.778 0 0 0 1.28183,7.90252 c -3.6485,4.57053 -5.63455,9.51328 -5.63455,12.47333 -7.57935,13.8526 3.25924,25.75144 17.11218,33.3306 a 28.38088,28.38088 0 0 0 18.13275,3.16122 l 0.57956,-2.474 0.78522,2.22855 2.62121,7.47122 q 4.5358,2.19425 8.993,4.81055 c -1.12893,-5.30145 -2.04214,-10.59311 -2.67059,-15.767 -0.87006,-7.04193 2.16293,-17.52557 4.3508,-23.90094 a 37.632,37.632 0 0 0 2.06033,-12.2128 v -0.18173 l 2.13034,6.8428 7.75577,-3.3085 c -1.44286,-8.27612 7e-5,-17.67154 -17.29857,-16.85666 z"
         transform="translate(-198.47381,-154.31245)"
         fill="#2f2e41"
         id="path426-2-2" /><path
         d="M 883.647,745.68755 H 316.353 a 1.19069,1.19069 0 0 1 0,-2.38135 h 567.294 a 1.19069,1.19069 0 0 1 0,2.38135 z"
         transform="translate(-198.47381,-154.31245)"
         fill="#cccccc"
         id="path427-0-2"
         style="fill:#bbbbbb;fill-opacity:1" /><circle
         id="circle427-7-3"
         data-name="e4c91425-bc08-43ed-9b2d-9a6452dd6ab0"
         cx="266.70383"
         cy="330.43085"
         r="22.812241"
         fill="#e6e6e6"
         style="fill:#bbbbbb;fill-opacity:1" /><path
         d="m 808.41264,471.63265 h -80.01282 a 9.33671,9.33671 0 0 1 -9.326,-9.3263 v -43.57879 a 9.33618,9.33618 0 0 1 9.326,-9.3257 h 80.01282 a 9.33618,9.33618 0 0 1 9.326,9.32568 v 43.57879 a 9.33671,9.33671 0 0 1 -9.326,9.32632 z"
         transform="translate(-198.47381,-154.31245)"
         fill="#f2f2f2"
         id="path428-8-2" /><g
         id="g429-5-5"
         data-name="bc9af32e-f7cd-4c85-a4cc-5543d455b8de"><circle
           id="circle428-5-9"
           data-name="b56288f5-6382-4006-aaf1-aded98dde780"
           cx="611.11774"
           cy="287.50409"
           r="12.11453"
           fill="#ed4980" /><path
           id="path429-6-1"
           data-name="b9aaef6b-2cfc-46ac-8dc0-30fdc28925de"
           d="m 814.62215,440.79921 h -4.119 v -4.11893 a 0.96921,0.96921 0 0 0 -0.96923,-0.96923 v 0 a 0.96924,0.96924 0 0 0 -0.96923,0.96921 v 4.119 h -4.11889 a 0.96923,0.96923 0 0 0 -0.96923,0.96921 v 0 0 a 0.96921,0.96921 0 0 0 0.96923,0.96923 h 4.11894 v 4.11892 a 0.96921,0.96921 0 0 0 0.96923,0.96923 v 0 a 0.96923,0.96923 0 0 0 0.96923,-0.96921 v -4.11894 h 4.119 a 0.96924,0.96924 0 0 0 0.96923,-0.96921 v 0 0 a 0.96921,0.96921 0 0 0 -0.96923,-0.96923 z"
           transform="translate(-198.47381,-154.31245)"
           fill="#ffffff" /></g><path
         d="m 841.01058,459.26566 h -65.938 a 10.56776,10.56776 0 0 1 -10.556,-10.55565 v -39.35987 a 1.94477,1.94477 0 0 1 3.88953,0 v 10.54109 l 76.59074,6.96239 a 5.84107,5.84107 0 0 1 5.73742,5.83365 1.94624,1.94624 0 0 1 -0.0333,0.35831 l -3.85977,20.58457 a 5.84079,5.84079 0 0 1 -5.83067,5.63551 z M 768.40623,423.79657 V 448.71 a 6.674,6.674 0 0 0 6.66643,6.66612 h 65.938 a 1.94687,1.94687 0 0 0 1.94477,-1.94476 1.94624,1.94624 0 0 1 0.0333,-0.35831 l 3.85058,-20.53587 a 1.9473,1.9473 0 0 0 -1.93907,-1.79472 c -0.0589,0 -0.11743,-0.003 -0.176,-0.008 z"
         transform="translate(-198.47381,-154.31245)"
         fill="#ed4980"
         id="path430-2-9" /><circle
         cx="559.07751"
         cy="319.86304"
         r="3.2412701"
         fill="#ed4980"
         id="circle430-8-5" /><circle
         cx="639.94379"
         cy="319.86304"
         r="3.2412701"
         fill="#ed4980"
         id="circle431-2-3" /><path
         d="m 841.65884,470.93421 h -86.70052 a 1.94476,1.94476 0 0 1 0,-3.88952 h 86.70052 a 1.94476,1.94476 0 0 1 0,3.88952 z"
         transform="translate(-198.47381,-154.31245)"
         fill="#ed4980"
         id="path431-2-4" /><path
         d="m 771.6475,410.64665 h -16.85461 a 1.94477,1.94477 0 0 1 0,-3.88953 h 16.85461 a 1.94477,1.94477 0 0 1 0,3.88953 z"
         transform="translate(-198.47381,-154.31245)"
         fill="#ed4980"
         id="path432-0-9" /><path
         d="m 785.16871,469.94411 a 1.93725,1.93725 0 0 1 -1.26643,-0.46972 l -12.78276,-10.98486 a 1.94474,1.94474 0 1 1 2.53475,-2.95009 l 12.78273,10.98487 a 1.94476,1.94476 0 0 1 -1.26832,3.41978 z"
         transform="translate(-198.47381,-154.31245)"
         fill="#ed4980"
         id="path433-7-4" /><path
         d="m 787.86214,458.07106 a 1.94464,1.94464 0 0 1 -1.94476,-1.94453 V 424.9082 a 1.94476,1.94476 0 0 1 3.88952,0 v 31.2181 a 1.94463,1.94463 0 0 1 -1.94451,1.94476 z"
         transform="translate(-198.47381,-154.31245)"
         fill="#ed4980"
         id="path434-7-8" /><path
         d="m 828.94353,458.07106 a 1.94464,1.94464 0 0 1 -1.94477,-1.94455 v -28.62527 a 1.94477,1.94477 0 0 1 3.88953,0 v 28.62508 a 1.94464,1.94464 0 0 1 -1.94456,1.94474 z"
         transform="translate(-198.47381,-154.31245)"
         fill="#ed4980"
         id="path435-4-6" /></g></g></svg>
