<?xml version="1.0" encoding="UTF-8" standalone="no"?>
<!-- Created with Inkscape (http://www.inkscape.org/) -->

<svg
   width="830.44043"
   height="596.98352"
   viewBox="0 0 219.72069 157.95189"
   version="1.1"
   id="svg1"
   xml:space="preserve"
   xmlns="http://www.w3.org/2000/svg"
   xmlns:svg="http://www.w3.org/2000/svg"><defs
     id="defs1" /><g
     id="g1"
     transform="matrix(0.26458333,0,0,0.26458335,-17185.332,-3470.8552)"><g
       id="g573-7-7"
       transform="matrix(1.1401723,0,0,1.1401723,64952.436,13118.192)"><path
         d="m 947.17323,711.20472 h -437 a 17.01916,17.01916 0 0 1 -17,-17 v -489 a 17.01917,17.01917 0 0 1 17,-17 h 437 a 17.01917,17.01917 0 0 1 17,17 v 489 a 17.01916,17.01916 0 0 1 -17,17 z m -437,-521 a 15.017,15.017 0 0 0 -15,15 v 489 a 15.017,15.017 0 0 0 15,15 h 437 a 15.017,15.017 0 0 0 15,-15 v -489 a 15.017,15.017 0 0 0 -15,-15 z"
         transform="translate(-235.82677,-188.20472)"
         fill="#3f3d56"
         id="path549-6-8" /><rect
         x="258.34647"
         y="41.590328"
         width="469"
         height="2"
         fill="#3f3d56"
         id="rect549-4-6" /><circle
         cx="281.34647"
         cy="22"
         r="8"
         fill="#ed4980"
         id="circle549-9-4" /><circle
         cx="306.34647"
         cy="22"
         r="8"
         fill="#ed4980"
         id="circle550-4-4" /><circle
         cx="331.34647"
         cy="22"
         r="8"
         fill="#ed4980"
         id="circle551-7-9" /><path
         d="m 884.67323,303.20472 h -312 a 13,13 0 0 1 0,-26 h 312 a 13,13 0 0 1 0,26 z m -312,-24 a 11,11 0 0 0 0,22 h 312 a 11,11 0 0 0 0,-22 z"
         transform="translate(-235.82677,-188.20472)"
         fill="#3f3d56"
         id="path551-5-2" /><path
         d="m 807.52756,405.79528 h -142 a 8,8 0 0 1 0,-16 h 142 a 8,8 0 0 1 0,16 z"
         transform="translate(-235.82677,-188.20472)"
         fill="#cccccc"
         id="path552-7-0"
         style="fill:#8e8e8e;fill-opacity:1" /><path
         d="m 889.52756,432.79528 h -224 a 8,8 0 0 1 0,-16 h 224 a 8,8 0 0 1 0,16 z"
         transform="translate(-235.82677,-188.20472)"
         fill="#cccccc"
         id="path553-9-7"
         style="fill:#8e8e8e;fill-opacity:1" /><path
         d="m 612.3189,434.29528 h -43 a 9.51081,9.51081 0 0 1 -9.5,-9.5 v -27 a 9.5108,9.5108 0 0 1 9.5,-9.5 h 43 a 9.5108,9.5108 0 0 1 9.5,9.5 v 27 a 9.51081,9.51081 0 0 1 -9.5,9.5 z m -43,-44 a 7.50835,7.50835 0 0 0 -7.5,7.5 v 27 a 7.50836,7.50836 0 0 0 7.5,7.5 h 43 a 7.50836,7.50836 0 0 0 7.5,-7.5 v -27 a 7.50835,7.50835 0 0 0 -7.5,-7.5 z"
         transform="translate(-235.82677,-188.20472)"
         fill="#cccccc"
         id="path554-2-2" /><path
         d="m 807.52756,500.79528 h -142 a 8,8 0 0 1 0,-16 h 142 a 8,8 0 0 1 0,16 z"
         transform="translate(-235.82677,-188.20472)"
         fill="#cccccc"
         id="path555-2-5"
         style="fill:#8e8e8e;fill-opacity:1" /><path
         d="m 889.52756,527.79528 h -224 a 8,8 0 1 1 0,-16 h 224 a 8,8 0 0 1 0,16 z"
         transform="translate(-235.82677,-188.20472)"
         fill="#cccccc"
         id="path556-0-3"
         style="fill:#8e8e8e;fill-opacity:1" /><path
         d="m 612.3189,529.29528 h -43 a 9.51081,9.51081 0 0 1 -9.5,-9.5 v -27 a 9.5108,9.5108 0 0 1 9.5,-9.5 h 43 a 9.5108,9.5108 0 0 1 9.5,9.5 v 27 a 9.51081,9.51081 0 0 1 -9.5,9.5 z m -43,-44 a 7.50835,7.50835 0 0 0 -7.5,7.5 v 27 a 7.50836,7.50836 0 0 0 7.5,7.5 h 43 a 7.50836,7.50836 0 0 0 7.5,-7.5 v -27 a 7.50835,7.50835 0 0 0 -7.5,-7.5 z"
         transform="translate(-235.82677,-188.20472)"
         fill="#cccccc"
         id="path557-5-8" /><path
         d="m 807.52756,595.79528 h -142 a 8,8 0 0 1 0,-16 h 142 a 8,8 0 0 1 0,16 z"
         transform="translate(-235.82677,-188.20472)"
         fill="#f2f2f2"
         id="path558-9-4"
         style="fill:#bbbbbb;fill-opacity:1" /><path
         d="m 889.52756,622.79528 h -224 a 8,8 0 0 1 0,-16 h 224 a 8,8 0 0 1 0,16 z"
         transform="translate(-235.82677,-188.20472)"
         fill="#f2f2f2"
         id="path559-8-8"
         style="fill:#bbbbbb;fill-opacity:1" /><path
         d="m 612.3189,624.29528 h -43 a 9.51081,9.51081 0 0 1 -9.5,-9.5 v -27 a 9.5108,9.5108 0 0 1 9.5,-9.5 h 43 a 9.5108,9.5108 0 0 1 9.5,9.5 v 27 a 9.51081,9.51081 0 0 1 -9.5,9.5 z"
         transform="translate(-235.82677,-188.20472)"
         fill="#f2f2f2"
         id="path560-3-1"
         style="fill:#bbbbbb;fill-opacity:1" /><path
         d="m 590.8189,426.03362 -2.31545,-2.08878 c -8.22262,-7.54934 -13.65109,-12.44922 -13.65109,-18.553 a 8.68327,8.68327 0 0 1 8.78159,-8.83494 9.44539,9.44539 0 0 1 7.18495,3.37347 9.445,9.445 0 0 1 7.18494,-3.37347 8.68328,8.68328 0 0 1 8.78159,8.83494 c 0,6.10382 -5.42854,11.00371 -13.65108,18.553 z"
         transform="translate(-235.82677,-188.20472)"
         fill="#ed4980"
         id="path561-8-1"
         style="fill:#e469b1;fill-opacity:1" /><path
         d="m 590.8189,521.03362 -2.31545,-2.08878 c -8.22262,-7.54934 -13.65109,-12.44922 -13.65109,-18.553 a 8.68327,8.68327 0 0 1 8.78159,-8.83494 9.44539,9.44539 0 0 1 7.18495,3.37347 9.445,9.445 0 0 1 7.18494,-3.37347 8.68328,8.68328 0 0 1 8.78159,8.83494 c 0,6.10382 -5.42854,11.00371 -13.65108,18.553 z"
         transform="translate(-235.82677,-188.20472)"
         fill="#ed4980"
         id="path562-6-7"
         style="fill:#e469b1;fill-opacity:1" /><path
         d="m 409.15748,505.05222 h -43 a 9.51081,9.51081 0 0 1 -9.5,-9.5 v -27 a 9.5108,9.5108 0 0 1 9.5,-9.5 h 43 a 9.5108,9.5108 0 0 1 9.5,9.5 v 27 a 9.51081,9.51081 0 0 1 -9.5,9.5 z m -43,-44 a 7.50835,7.50835 0 0 0 -7.5,7.5 v 27 a 7.50836,7.50836 0 0 0 7.5,7.5 h 43 a 7.50836,7.50836 0 0 0 7.5,-7.5 v -27 a 7.50835,7.50835 0 0 0 -7.5,-7.5 z"
         transform="translate(-235.82677,-188.20472)"
         fill="#3f3d56"
         id="path563-1-6" /><path
         d="m 387.65748,496.79056 -2.31545,-2.08878 c -8.22262,-7.54934 -13.65109,-12.44922 -13.65109,-18.553 a 8.68327,8.68327 0 0 1 8.78159,-8.83494 9.44536,9.44536 0 0 1 7.185,3.37347 9.445,9.445 0 0 1 7.18495,-3.37347 8.68329,8.68329 0 0 1 8.78159,8.83494 c 0,6.10382 -5.42855,11.00371 -13.65109,18.553 z"
         transform="translate(-235.82677,-188.20472)"
         fill="#ed4980"
         id="path564-2-1"
         style="fill:#e469b1;fill-opacity:1" /><polygon
         points="116.76,469.207 126.965,512.106 138.087,509.46 133.175,465.302 "
         fill="#ffb8b8"
         id="polygon564-8-1" /><path
         d="m 360.77092,693.3538 h 35.92974 v 13.88195 h -22.04781 a 13.88193,13.88193 0 0 1 -13.88193,-13.88193 v 0 z"
         transform="rotate(166.61944,271.8607,592.36106)"
         fill="#2f2e41"
         id="path565-3-3" /><path
         d="m 351.87477,671.87692 -24.15528,-82.78613 30.18506,-7.48731 17.708,87.67627 a 4.49981,4.49981 0 0 1 -4.2771,5.38916 l -15.00708,0.44581 c -0.0452,10e-4 -0.0901,0.002 -0.135,0.002 a 4.50057,4.50057 0 0 1 -4.3186,-3.23975 z"
         transform="translate(-235.82677,-188.20472)"
         fill="#2f2e41"
         id="path566-0-5" /><polygon
         points="58.086,468.289 58.09,512.384 69.522,512.383 74.959,468.287 "
         fill="#ffb8b8"
         id="polygon566-6-6" /><path
         d="m 291.46749,697.32116 h 35.92974 v 13.88194 h -22.04781 a 13.88193,13.88193 0 0 1 -13.88193,-13.88193 v 0 z"
         transform="rotate(179.99483,191.52322,610.15445)"
         fill="#2f2e41"
         id="path567-3-6" /><path
         d="m 291.90943,683.45554 a 4.41548,4.41548 0 0 1 -1.34448,-3.1294 l -10.41553,-82.585 a 4.50646,4.50646 0 0 1 4.46729,-4.52246 l 23.24829,-0.16846 h 0.0332 a 4.51205,4.51205 0 0 1 4.499,4.43115 l 1.23584,81.3545 a 4.497,4.497 0 0 1 -4.39576,4.56591 l -14.11279,1.34131 c -0.0217,4.9e-4 -0.0435,4.9e-4 -0.0652,4.9e-4 a 4.46755,4.46755 0 0 1 -3.14988,-1.28804 z"
         transform="translate(-235.82677,-188.20472)"
         fill="#2f2e41"
         id="path568-1-6" /><circle
         cx="61.064678"
         cy="197.34792"
         r="24.561029"
         fill="#ffb8b8"
         id="circle568-1-2" /><path
         d="M 264.53443,593.42722 C 248.554,580.94089 248.72315,566.374 254.176,546.91745 c 1.53613,-5.481 3.19409,-11.03613 4.94921,-16.91748 8.155,-27.32471 17.39795,-58.2959 13.88892,-83.86816 l 0.49536,-0.0679 -0.49536,0.0679 c -0.96118,-7.00391 1.48877,-14.3711 6.72119,-20.21192 5.23267,-5.8418 12.27564,-9.07861 19.35547,-8.896 7.06738,0.18848 13.9397,3.80127 18.85425,9.9126 4.89062,6.08155 7.22485,27.46582 7.91675,30.53076 3.17651,14.0669 5.09375,22.55762 6.46875,36.10254 1.62622,16.01319 21.10254,63.89112 27.30883,71.91993 a 18.99967,18.99967 0 0 1 3.67676,15.13281 17.80508,17.80508 0 0 1 -8.45532,12.13525 101.64833,101.64833 0 0 1 -32.70606,12.8711 80.1744,80.1744 0 0 1 -15.22705,1.46533 c -15.85689,0 -31.00826,-4.77149 -42.39327,-13.66699 z"
         transform="translate(-235.82677,-188.20472)"
         fill="#ed4980"
         id="path569-2-5" /><path
         d="m 366.67182,500.8945 a 9.37694,9.37694 0 0 0 -14.04849,-3.06268 l -18.61127,-10.61977 -9.21209,9.736 26.49335,14.628 a 9.42779,9.42779 0 0 0 15.3785,-10.68158 z"
         transform="translate(-235.82677,-188.20472)"
         fill="#ffb8b8"
         id="path570-6-1" /><path
         d="m 338.3003,508.09323 -33.35718,-10.47949 a 22.96148,22.96148 0 0 1 -16.00927,-20.82813 l -1.43531,-32.41113 a 13.57149,13.57149 0 1 1 27.1233,-0.18262 l -0.91748,29.81983 35.5017,14.47851 a 4.50026,4.50026 0 0 1 1.978,6.76026 l -7.85718,11.14306 a 4.48833,4.48833 0 0 1 -5.02661,1.69971 z"
         transform="translate(-235.82677,-188.20472)"
         fill="#2f2e41"
         id="path571-0-3" /><path
         d="m 257.30885,416.11569 c 1.12231,-6.731 1.08105,-13.70752 1.041,-20.45459 -0.0107,-1.83154 -0.0217,-3.6626 -0.0105,-5.49023 0.0522,-8.49365 0.57934,-17.4961 4.05175,-25.78369 3.7793,-9.01954 10.77783,-15.53272 18.72119,-17.42237 8.95557,-2.13281 18.6731,2.582 21.59864,10.34522 a 15.007,15.007 0 1 1 9.14868,27.96924 l -0.37525,0.0332 -2.92651,-7.60547 c -0.0166,0.1333 -0.0325,0.26807 -0.0486,0.40381 -0.18628,1.57715 -0.37891,3.20752 -1.68091,4.14941 v 0 c -1.62549,1.17578 -3.6499,5.04541 -3.05835,8.96582 a 33.80216,33.80216 0 0 0 1.64209,5.88135 32.2768,32.2768 0 0 1 1.74219,6.47949 11.06488,11.06488 0 0 1 -2.07227,8.01368 6.18642,6.18642 0 0 1 -4.23852,2.43212 l -32.9878,3.41114 -1.47485,-11.01856 -9.3833,11.55664 z"
         transform="translate(-235.82677,-188.20472)"
         fill="#2f2e41"
         id="path572-0-2" /><path
         d="m 428.82677,711.79528 h -192 a 1,1 0 0 1 0,-2 h 192 a 1,1 0 0 1 0,2 z"
         transform="translate(-235.82677,-188.20472)"
         fill="#cccccc"
         id="path573-0-2" /></g></g></svg>
