<?xml version="1.0" encoding="UTF-8" standalone="no"?>
<!-- Created with Inkscape (http://www.inkscape.org/) -->

<svg
   width="837.32812"
   height="609.45776"
   viewBox="0 0 221.54306 161.25237"
   version="1.1"
   id="svg1"
   xml:space="preserve"
   xmlns="http://www.w3.org/2000/svg"
   xmlns:svg="http://www.w3.org/2000/svg"><defs
     id="defs1" /><g
     id="g1"
     transform="matrix(0.26458333,0,0,0.26458335,-16871.68,-3486.0666)"><g
       id="g503-5-5"
       transform="matrix(1.1809988,0,0,1.1809988,63766.98,13175.684)"><path
         d="m 529.11499,336.0312 c 1.12549,0.0518 2.07983,-0.8186 2.13165,-1.94403 0.0276,-0.60095 -0.21136,-1.18353 -0.65314,-1.59186 l -0.13977,-0.55573 0.0555,-0.13342 c 1.17957,-2.78619 4.39453,-4.08862 7.18073,-2.90906 1.32373,0.56049 2.37415,1.61871 2.92474,2.94659 1.65277,3.98071 3.75708,7.9682 4.27521,12.17719 0.22821,1.86041 0.13196,3.7464 -0.28448,5.57391 3.88196,-8.46808 5.89777,-17.67181 5.91077,-26.98724 8.5e-4,-2.33759 -0.12903,-4.6734 -0.38898,-6.99649 -0.21484,-1.90445 -0.51294,-3.79535 -0.89423,-5.6727 -2.08069,-10.18625 -6.54791,-19.73364 -13.03491,-27.85815 -3.13971,-1.7131 -5.67883,-4.34744 -7.27521,-7.54807 -0.57831,-1.15051 -0.98706,-2.37869 -1.2135,-3.6463 0.35419,0.0465 0.71417,0.0755 1.0683,0.0987 0.11035,0.006 0.22644,0.0116 0.33679,0.0174 l 0.0416,0.002 c 1.11517,0.05 2.05975,-0.81342 2.1098,-1.92856 0.0222,-0.49451 -0.13788,-0.97998 -0.44983,-1.36432 -0.15295,-0.18817 -0.30591,-0.37628 -0.45898,-0.5643 -0.2323,-0.29034 -0.47034,-0.57483 -0.70258,-0.86511 -0.0268,-0.0276 -0.052,-0.0567 -0.0755,-0.0871 -0.26709,-0.33099 -0.53418,-0.6561 -0.80127,-0.98706 0.48755,-0.75668 1.14325,-1.39056 1.91608,-1.85214 2.67664,-1.56766 6.36945,-0.48193 8.30292,1.93927 1.83405,2.55737 2.43219,5.79935 1.63153,8.84283 -0.66235,2.57404 -1.75793,5.01654 -3.23993,7.2229 0.1452,0.18582 0.29614,0.36581 0.44128,0.55164 2.65344,3.41199 4.96619,7.07584 6.90491,10.939 -0.4715,-4.32785 0.0913,-8.70581 1.64185,-12.77374 1.57153,-3.79117 4.51715,-6.9841 7.11115,-10.26157 1.9162,-2.45905 5.46307,-2.89908 7.92212,-0.98285 1.18005,0.91959 1.94684,2.27002 2.13177,3.75461 l 0.0156,0.1449 c -0.38531,0.21735 -0.76239,0.44803 -1.13147,0.69211 -1.27075,0.84903 -1.61261,2.56741 -0.76355,3.83813 0.43085,0.64493 1.11267,1.07941 1.87921,1.19757 l 0.0565,0.009 c -0.13727,1.38861 -0.37988,2.7648 -0.72577,4.11664 -2.02612,7.62918 -7.14148,14.06812 -14.11487,17.767 -0.22644,0.11612 -0.44714,0.23224 -0.67358,0.34256 1.94781,5.52008 3.16962,11.26999 3.63458,17.10516 0.26331,3.44257 0.24774,6.90082 -0.0465,10.34088 l 0.0174,-0.12195 c 0.74329,-3.82526 2.78387,-7.27686 5.77722,-9.77185 4.44586,-3.65213 10.72699,-4.99701 15.52332,-7.93259 1.47601,-0.94769 3.4408,-0.51944 4.38849,0.95657 0.40607,0.63235 0.57471,1.38821 0.47595,2.13321 l -0.0196,0.12817 c -0.71497,0.2912 -1.41113,0.62665 -2.08441,1.00443 -0.38525,0.21741 -0.76245,0.44812 -1.13147,0.69211 -1.27075,0.84903 -1.61261,2.56744 -0.76355,3.83817 0.43085,0.64493 1.11267,1.07941 1.87921,1.19757 l 0.0565,0.009 c 0.0406,0.006 0.0755,0.0117 0.11609,0.0175 -1.22168,2.91693 -2.93628,5.60181 -5.06879,7.93707 -5.32428,5.71313 -12.76788,8.97919 -20.57721,9.02869 h -0.006 c -1.04889,4.55792 -2.5686,8.99445 -4.53467,13.23816 h -16.19922 c -0.0581,-0.17999 -0.11035,-0.36584 -0.1626,-0.54584 1.49945,0.0942 3.00476,0.005 4.48242,-0.26703 -1.2019,-1.47479 -2.40375,-2.96124 -3.60565,-4.43597 -0.0268,-0.0276 -0.052,-0.0566 -0.0755,-0.0871 -0.60968,-0.75476 -1.2251,-1.50378 -1.83478,-2.25861 l -3.1e-4,-9.2e-4 c -0.0325,-2.31372 0.23303,-4.62195 0.78998,-6.86786 l 4.9e-4,-3.1e-4 z"
         fill="#f2f2f2"
         id="path448-1-2"
         style="fill:#bbbbbb;fill-opacity:1" /><path
         d="m 480.10889,187.41737 c 0,8.91721 4.46094,17.9913 13.37817,17.9913 8.91723,0 21.22052,-6.4584 18.45264,-20.29788 -1.74884,-8.74399 -6.76752,-13.83945 -15.68469,-13.83945 -8.91718,-6e-5 -16.14606,7.2287 -16.14612,16.14587 v 1.5e-4 z"
         fill="#2f2e41"
         id="path449-3-9" /><path
         d="m 517.5152,314.82106 c -1.83575,-2.03625 -1.67328,-5.17517 0.36298,-7.01096 0.21716,-0.19577 0.45117,-0.37198 0.69934,-0.52655 l -3.9035,-17.20386 8.58002,3.22827 2.39142,15.8421 c 1.29956,2.43094 0.38232,5.45511 -2.04858,6.75467 -2.03412,1.08737 -4.5484,0.63934 -6.08167,-1.08374 v 6e-5 z"
         fill="#a0616a"
         id="path450-4-1" /><path
         d="m 499.30316,253.84254 5.98859,0.60962 c 0,0 -1.56616,8.87137 0.88312,10.86963 2.44928,1.99826 1.46198,1.98877 1.44775,3.4697 0.15137,2.14999 1.20917,4.13437 2.90979,5.4585 1.96039,1.49988 6.03741,28.21201 6.03741,28.21201 l 8.88562,0.0852 c -0.26501,-2.29749 -0.2428,-4.61905 0.0663,-6.91101 0.52679,-3.45078 3.18988,-12.14304 2.2168,-13.63345 -0.97308,-1.49041 -0.46082,-4.23111 -0.43243,-7.19299 0.0284,-2.96188 -4.20868,0.31082 -4.16132,-4.62561 0.0474,-4.93643 -5.38733,-35.91211 -4.85107,-40.35019 0.53626,-4.43808 -4.8559,-8.4393 -4.8559,-8.4393 l -4.93646,-0.0474 -9.19818,32.49524 z"
         fill="#e6e6e6"
         id="path451-2-5"
         style="fill:#87459c;fill-opacity:1" /><path
         d="m 435.72852,212.18318 c -0.56439,2.53561 1.03363,5.04868 3.56927,5.61304 0.27032,0.0602 0.54547,0.0964 0.8222,0.10812 l 4.80414,16.00943 5.5708,-6.66409 -5.41614,-14.18115 c -0.0619,-2.61102 -2.22876,-4.67749 -4.83978,-4.61557 -2.18481,0.0518 -4.04956,1.59396 -4.5105,3.73022 z"
         fill="#a0616a"
         id="path452-6-9" /><path
         d="m 486.44824,217.39759 c 0,0 -11.61395,-4.35455 -17.91052,19.49258 l -8.35858,8.65683 -7.0224,-12.689 0.92853,-3.01016 -5.42712,-12.3038 -9.30499,5.34018 2.29053,8.4472 -0.38702,4.17581 2.22357,2.59723 3.63989,13.42337 2.27698,4.38553 c 0,0 2.87152,5.61523 7.88416,6.54016 1.33624,0.25027 2.70355,0.28909 4.05182,0.11499 3.20612,-0.5015 6.1778,-1.98511 8.50537,-4.24634 6.19751,-5.52667 12.05872,-11.41925 17.55219,-17.64615 l -0.94238,-23.27844 z"
         fill="#e6e6e6"
         id="path453-4-9"
         style="fill:#87459c;fill-opacity:1" /><polygon
         points="503.54599,275.6853 475.48199,271.88528 473.327,255.1633 476.30499,250.2693 502.026,257.32928 502.84799,261.24429 "
         fill="#a0616a"
         id="polygon453-5-8" /><circle
         cx="492.92267"
         cy="191.89299"
         r="13.28229"
         fill="#a0616a"
         id="circle453-2-8" /><path
         d="m 515.17725,222.95213 c -2.19196,-5.17029 -6.72803,-8.9776 -12.20001,-10.23999 l -0.05,-0.01 -2.63,-3.54001 -10.66998,1.07001 -1.95001,4 -5.06,3.01001 h -0.01 l -0.01,0.01 -2.65002,1.57996 -8.78998,10.29001 -0.01,0.01 c -2.6084,1.74142 -4.37872,4.48566 -4.88995,7.57999 -0.13257,0.88342 -0.17609,1.77789 -0.13,2.67001 0.28998,5.47 3.71002,10.34 4.17999,10.98999 l 1.15002,6.47 0.22998,1.32999 2.07001,0.29999 29.15997,4.17001 0.81,0.12006 0.23999,0.03 0.84003,-2.17001 v -0.02 l 8.13,-21.26999 3.65002,-9.48999 c 0.01,-2.36932 -0.47021,-4.71509 -1.41003,-6.89005 z"
         fill="#e6e6e6"
         id="path454-2-7"
         style="fill:#87459c;fill-opacity:1" /><path
         d="m 506.82312,195.37504 c -0.12036,-0.019 -0.24078,-0.0444 -0.36115,-0.0634 -2.07184,-0.36746 -4.14368,-0.72855 -6.20917,-1.10245 l -0.19012,-4.68216 -2.50262,4.19427 c -5.70868,1.89441 -11.0498,0.8237 -16.07416,-1.53958 -1.65729,-0.78674 -3.26532,-1.67328 -4.81531,-2.65469 -1.08081,-6.59528 1.64587,-11.79291 8.6485,-12.45639 0.21747,-0.0206 0.37378,-0.20273 0.5639,-0.29785 l 0.006,-0.006 v -2.4e-4 c 0.32312,-0.15204 0.65265,-0.29776 0.98212,-0.43079 5.26477,-2.0575 11.24384,-0.89819 15.35815,2.97784 4.15607,4.2283 5.8855,10.27515 4.59357,16.06155 z"
         fill="#2f2e41"
         id="path455-0-6" /><path
         d="m 519.90723,302.49217 c -0.58759,-3.92361 -1.55206,-7.78146 -2.88,-11.51999 v -0.01 c -1.11169,-3.16122 -2.49695,-6.21948 -4.14001,-9.14001 -0.005,1.2e-4 -0.01,-0.004 -0.01,-0.01 v -4.3e-4 c -2.36548,-4.40219 -5.45154,-8.37717 -9.13,-11.76001 l -0.39001,-0.41 h -0.1 l -28.15997,-0.69 h -0.28998 l -0.32001,-0.01 c 0,0 -0.12,0.35001 -0.34998,1.01001 -0.009,0.0414 -0.0222,0.0816 -0.04,0.12 -0.08,0.26001 -0.17999,0.56 -0.29999,0.89001 -0.07,0.22 -0.15002,0.45001 -0.22998,0.70001 -0.09,0.26999 -0.19,0.54999 -0.28998,0.85001 -0.78003,2.32996 -1.91998,5.70999 -3.32001,9.89999 -0.21002,0.64001 -0.42999,1.29999 -0.65997,1.98999 -5.34003,16.07001 -13.92999,42.32999 -21.42999,67.22 h 26.59998 c 2.58002,-7.46002 5.32001,-18.09998 5.32001,-18.09998 1.07001,-1.27002 1.01001,-4.71997 1.01001,-4.71997 l 8.35999,-8.78003 6.02002,31.59998 h 25.26001 l 0.19,-35.16998 v -0.29999 c 0.19696,-4.56589 -0.0442,-9.14014 -0.72015,-13.66 z"
         fill="#cccccc"
         id="path456-4-8"
         style="fill:#be7dcd;fill-opacity:1" /><path
         d="m 501.73413,176.43657 v 0.0112 c -0.002,0.69522 0.0871,1.3877 0.26379,2.06006 0.0281,0.11789 0.0618,0.24136 0.10107,0.35925 v 0.006 c 0.76337,2.43408 2.62262,4.37021 5.0238,5.23154 0.17401,0.0673 0.35364,0.12347 0.53326,0.17401 0.37842,0.10974 0.76514,0.18857 1.15631,0.23575 0.35144,0.0498 0.70599,0.0742 1.06091,0.073 0.2774,0.001 0.55469,-0.012 0.83075,-0.0393 0.646,-0.0654 1.28137,-0.21057 1.89166,-0.43222 0.0956,-0.0278 0.18927,-0.0615 0.28064,-0.10101 0.0459,-0.0163 0.0909,-0.035 0.13477,-0.0561 4.15063,-1.73746 6.10693,-6.51068 4.36945,-10.66132 -0.052,-0.12424 -0.10706,-0.24716 -0.16516,-0.36868 l -0.006,-0.006 c -0.39905,-0.83554 -0.94037,-1.59531 -1.59979,-2.2453 -1.47064,-1.46506 -2.11871,-5.13666 -4.35278,-5.13666 -0.10681,-0.002 -0.21362,0.002 -0.32001,0.0112 -1.49872,0.0505 -4.26917,3.28433 -5.44794,4.04773 -0.87549,0.55307 -1.6344,1.27197 -2.23407,2.11621 -0.62622,0.86847 -1.07275,1.85315 -1.31354,2.89642 -0.13763,0.59833 -0.20728,1.21027 -0.20752,1.82422 z"
         fill="#2f2e41"
         id="path457-1-8" /><path
         d="m 511.67871,173.6024 c 1.26398,1.47159 3.24304,2.04361 5.02832,2.80942 6.39685,2.80627 10.99585,8.58957 12.28943,15.45407 0.49359,2.754 0.42902,5.60501 1.20868,8.28983 0.77502,2.68484 2.69403,5.319 5.44812,5.78491 1.86371,0.3183 3.73199,-0.40134 5.48499,-1.11179 0.96411,-0.38748 1.92834,-0.77652 2.89246,-1.16711 -1.00562,-2.52344 -2.00977,-5.04681 -3.01239,-7.57019 1.61133,2.38144 3.48529,4.57416 5.58655,6.53687 3.4552,-1.39319 6.91351,-2.78638 10.375,-4.17953 -8.51587,0.0323 -7.06274,-8.23447 -8.96802,-16.5289 -1.04718,-4.5578 -9.96442,-7.64401 -11.71283,-11.98038 -2.73077,-6.79852 -10.45581,-10.09607 -17.25433,-7.3653 -2.92963,1.17673 -5.34351,3.35971 -6.80786,6.15665 -1.74829,0.69656 -1.79901,3.4183 -0.55811,4.87146 z"
         fill="#2f2e41"
         id="path458-9-9" /><path
         d="m 475.50885,270.97316 c -3.97705,1.03705 -7.19592,3.95279 -8.62012,7.80817 -0.50397,1.08948 -0.49072,2.34793 0.0361,3.42654 0.4118,0.77005 1.32892,1.11777 2.14777,0.8143 0.82245,-0.44318 1.47845,-1.14185 1.86902,-1.99057 0.573,-1.08914 1.06549,-2.21878 1.47351,-3.37985 0.66815,-1.75208 2.09351,-4.67673 0.0585,-6.04651 -1.71155,-1.15201 -3.9776,-0.7045 -5.90344,-0.78351 -2.08112,-0.0854 -4.39417,-0.88235 -5.13348,-3.03937 -0.71899,-2.09769 0.96667,-4.07077 2.78381,-4.86847 2.21844,-0.9198 4.74878,-0.67877 6.75366,0.64334 1.95148,1.35275 3.34503,3.3685 3.9212,5.67206 0.089,0.37198 -0.14038,0.7457 -0.51239,0.83472 -0.35419,0.0847 -0.71344,-0.11926 -0.82214,-0.46683 -0.51025,-2.13724 -1.85596,-3.98071 -3.73602,-5.11801 -1.86792,-1.07773 -4.18872,-0.98706 -5.96686,0.23312 -0.93304,0.58066 -1.36639,1.71072 -1.06091,2.76636 0.46881,0.93674 1.3515,1.59796 2.38226,1.78455 2.19574,0.53091 4.49237,-0.15613 6.68103,0.54514 2.03723,0.52206 3.33582,2.51675 2.98877,4.591 -0.22772,1.2446 -0.59662,2.4592 -1.09943,3.62027 -0.42719,1.19376 -0.92651,2.36041 -1.4953,3.49356 -0.8689,1.64224 -2.43567,3.42001 -4.5033,2.93839 -2.35651,-0.54886 -2.91602,-3.3002 -2.41101,-5.3237 1.36646,-4.66922 5.08997,-8.27432 9.8009,-9.48926 0.37207,-0.0887 0.74561,0.14102 0.83429,0.51309 0.0843,0.35379 -0.11932,0.71252 -0.46637,0.82141 v 6e-5 z"
         fill="#cccccc"
         id="path459-4-5" /><path
         d="m 579.54724,352.62214 h -164 c -3.86414,-0.005 -6.99548,-3.13586 -7,-7 v -223 c 0.004,-3.8642 3.1358,-6.99567 7,-7 h 164 c 3.8642,0.004 6.99567,3.1358 7,7 v 223 c -0.005,3.86414 -3.13586,6.99548 -7,7 z m -164,-235 c -2.76007,0.003 -4.99677,2.23993 -5,5 v 223 c 0.003,2.76007 2.23993,4.99677 5,5 h 164 c 2.76007,-0.003 4.99677,-2.23993 5,-5 v -223 c -0.003,-2.76007 -2.23993,-4.99677 -5,-5 z"
         fill="#3f3d56"
         id="path460-9-9" /><path
         d="M 605.60992,34.09948 H 140.31693 c -0.99774,-0.02133 -1.78931,-0.84746 -1.76797,-1.84521 0.0207,-0.96771 0.80026,-1.74727 1.76797,-1.76796 h 465.293 c 0.99774,0.02133 1.78931,0.84746 1.76794,1.84521 -0.0207,0.96771 -0.80023,1.74727 -1.76794,1.76796 z"
         fill="#cacaca"
         id="path461-6-9" /><path
         d="m 696,248.62214 h -53 c -7.17969,0 -13,-5.82031 -13,-13 0,-7.17969 5.82031,-13 13,-13 h 53 c 7.17969,0 13,5.82031 13,13 0,7.17969 -5.82031,13 -13,13 z"
         fill="#ed4980"
         id="path462-8-3"
         style="fill:#87459c;fill-opacity:1" /><path
         d="m 315.97949,303.03117 c -1.12549,0.0518 -2.07983,-0.8186 -2.13159,-1.94409 -0.0276,-0.60092 0.2113,-1.18341 0.65308,-1.59177 l 0.13977,-0.55573 -0.0555,-0.13339 c -1.17957,-2.78619 -4.39453,-4.08862 -7.18073,-2.90903 -1.32373,0.56042 -2.37415,1.61868 -2.92474,2.94656 -1.65277,3.98071 -3.75708,7.96823 -4.27521,12.17715 -0.22821,1.86044 -0.13196,3.74637 0.28448,5.57391 -3.88196,-8.46805 -5.89777,-17.67178 -5.91077,-26.98721 -8.5e-4,-2.33759 0.12903,-4.6734 0.38898,-6.99649 0.21484,-1.90448 0.51294,-3.79535 0.89423,-5.6727 2.08063,-10.18625 6.54791,-19.73364 13.03491,-27.85815 3.13965,-1.7131 5.67877,-4.34744 7.27515,-7.54807 0.57831,-1.15051 0.98706,-2.37869 1.2135,-3.6463 -0.35419,0.0464 -0.71417,0.0755 -1.0683,0.0987 -0.11035,0.006 -0.22644,0.0116 -0.33679,0.0174 l -0.0416,0.002 c -1.11517,0.05 -2.05975,-0.81342 -2.1098,-1.92856 -0.0222,-0.49451 0.13788,-0.97998 0.44983,-1.36432 0.15289,-0.1882 0.30591,-0.37628 0.45905,-0.5643 0.2323,-0.29034 0.47034,-0.57483 0.70258,-0.86511 0.0268,-0.0276 0.052,-0.0567 0.0755,-0.0871 0.26709,-0.33099 0.53418,-0.6561 0.80127,-0.98706 -0.48755,-0.75668 -1.14325,-1.39056 -1.91608,-1.85214 -2.6767,-1.56766 -6.36945,-0.48193 -8.30292,1.93927 -1.83405,2.55737 -2.43219,5.79935 -1.63153,8.84283 0.66235,2.57404 1.75793,5.01654 3.23993,7.2229 -0.1452,0.18582 -0.29614,0.36581 -0.44128,0.55164 -2.65344,3.41202 -4.96619,7.07584 -6.90491,10.939 0.4715,-4.32785 -0.0913,-8.70581 -1.64185,-12.77374 -1.57153,-3.79117 -4.51715,-6.9841 -7.11108,-10.26157 -1.9162,-2.45905 -5.46307,-2.89908 -7.92212,-0.98285 -1.18005,0.91959 -1.94684,2.27002 -2.13177,3.75461 l -0.0156,0.1449 c 0.38531,0.21732 0.76245,0.44803 1.13147,0.69211 1.27075,0.84903 1.61261,2.56741 0.76355,3.83813 -0.43085,0.64493 -1.11267,1.07941 -1.87921,1.19757 l -0.0564,0.009 c 0.13727,1.38861 0.37988,2.7648 0.72577,4.11664 2.02612,7.62918 7.14148,14.06812 14.11487,17.767 0.22644,0.11612 0.44714,0.23224 0.67358,0.34256 -1.94788,5.52005 -3.16968,11.26996 -3.6347,17.1051 -0.26331,3.44257 -0.24774,6.90079 0.0464,10.34085 l -0.0175,-0.12195 c -0.74329,-3.82529 -2.78387,-7.27686 -5.77722,-9.77185 -4.44586,-3.65213 -10.72699,-4.99701 -15.52332,-7.93259 -1.47601,-0.94769 -3.4408,-0.51944 -4.38849,0.95657 -0.40607,0.63235 -0.57471,1.38821 -0.47595,2.13321 l 0.0196,0.12817 c 0.71497,0.2912 1.41113,0.62665 2.08441,1.00443 0.38531,0.21744 0.76245,0.44809 1.13147,0.69211 1.27075,0.84903 1.61261,2.56744 0.76355,3.83817 -0.43085,0.64493 -1.11267,1.07938 -1.87921,1.19757 l -0.0565,0.009 c -0.0406,0.006 -0.0755,0.0117 -0.11609,0.0175 1.22168,2.91693 2.93628,5.60181 5.06879,7.93704 5.32428,5.7131 12.76788,8.97916 20.57721,9.02866 h 0.006 c 1.04889,4.55789 2.5686,8.99445 4.53467,13.23816 h 16.19928 c 0.0581,-0.17999 0.11035,-0.36581 0.1626,-0.54581 -1.49945,0.0943 -3.00476,0.005 -4.48242,-0.267 1.2019,-1.47482 2.40375,-2.96124 3.60565,-4.436 0.0268,-0.0276 0.052,-0.0566 0.0755,-0.0871 0.60962,-0.75479 1.2251,-1.50381 1.83478,-2.25858 l 3.1e-4,-9.2e-4 c 0.0325,-2.31369 -0.23303,-4.62195 -0.78998,-6.86786 l -4.9e-4,-3.1e-4 z"
         fill="#f2f2f2"
         id="path463-5-4" /><g
         opacity="0.38"
         id="g472-0-0"><path
           d="m 285.2207,279.49711 c -2.50269,-2.04874 -2.87067,-5.73837 -0.82196,-8.24106 0.21844,-0.26685 0.46008,-0.51389 0.72198,-0.73822 l -13.23828,-34.60919 10.57983,2.24091 11.23297,33.28967 c 1.94733,2.60431 1.41479,6.29413 -1.18951,8.24149 -2.17908,1.62943 -5.1908,1.5535 -7.28503,-0.18359 z"
           fill="#ffb8b8"
           id="path464-4-1" /><path
           d="m 290.66724,241.59211 -11.88,-49.44 -5.10999,-14.38 c -0.005,-0.005 -0.009,-0.0124 -0.01,-0.02 -0.83197,-2.34897 -2.57208,-4.26562 -4.83002,-5.32001 -2.25897,-1.08163 -4.85925,-1.20425 -7.20999,-0.34 -0.20071,0.0696 -0.39764,0.14975 -0.59,0.23999 -0.41003,0.18747 -0.80753,0.40128 -1.19,0.64001 -2.20493,1.39001 -3.73615,3.63071 -4.23001,6.19 l -0.89999,4.72 -0.38,2.01001 14.03003,49.04001 v 0.02 l 4.88,17.07999 2.26001,7.88 v 0.01 l 2.62,9.17001 0.06,0.19 6.28998,-0.42001 h 0.01 l 0.95001,-0.07 7.20001,-0.48001 1.03998,-0.07 -3.01001,-26.64999 z"
           fill="#2f2e41"
           id="path465-7-3" /><path
           d="m 242.43661,159.04686 26.46164,53.5145 16.74023,56.90335 c -35.26788,6.87714 -79.52014,21.58875 -82.70544,0.48938 1.96277,-58.82568 8.14633,-77.58966 20.91101,-103.09192 z"
           fill="#2f2e41"
           id="path466-9-5" /><path
           d="m 277.81726,317.62214 h -21.73001 l -8.81,-29.76999 -6.20001,29.38998 c -0.02,0.13 -0.03,0.25 -0.05,0.38 h -23.16 c 0.75,-9.20001 2.12,-25.20001 2.76999,-27.47 0.92001,-3.22 0,-3.22 -1.84,-5.06 -0.41,-0.41 -0.54999,-2.04999 -0.51001,-4.34 0.10999,-7.89001 2.26001,-23.51999 2.26001,-23.51999 l 2.54999,-4.72 0.88,-1.64001 45.41998,-1.60001 0.39001,-0.01 0.84003,3.66 1.03003,4.51001 1.81,7.91 1.66998,6.31 0.09,0.32001 v 1.87 c -0.28442,0.65152 -0.41449,1.35995 -0.38,2.07001 -6e-5,0.63998 1.43994,20.58002 2.96997,41.70999 z"
           fill="#2f2e41"
           id="path467-4-0"
           style="fill:#ed97b4;fill-opacity:1" /><path
           d="m 239.33566,166.98292 3.11841,-7.46091 9.65152,0.16946 10.064,14.23587 10.56314,44.42258 c 0,0 3.79401,32.45065 0,34.16373 -3.79401,1.71308 -49.73508,0.80151 -49.73508,0.80151 2.12711,-17.52463 3.7124,-35.35199 5.38318,-46.00183 5.52185,-35.19739 8.12796,-27.79028 10.95483,-40.33041 z"
           fill="#ed4980"
           id="path468-6-7" /><path
           d="m 252.10559,159.69148 c 0,0 20.79034,12.01813 21.60358,18.29156 0.81324,6.27343 3.53577,83.0571 3.53577,83.0571 l -7.35217,-4.75076 -2.0094,-27.98499 c 1.40137,-24.86685 -2.01871,-43.40192 -8.97275,-57.29605 l -6.80502,-11.31686 z"
           fill="#2f2e41"
           id="path469-5-4" /><circle
           cx="247.19768"
           cy="142.02649"
           r="14.16937"
           transform="rotate(-80.78252,247.19768,142.02649)"
           fill="#ffb8b8"
           id="circle469-0-5" /><path
           d="m 229.73886,141.18507 c 0.63272,2.87088 -2.83368,13.43852 -1.23767,15.90733 0.25822,0.51307 7.83513,3.33659 9.57196,1.46995 1.11283,-1.19601 -0.40327,-3.20883 0.75766,-5.04374 0.51869,-0.81983 -1.99294,-1.78257 -1.33056,-2.49137 l 0.3447,-0.28085 c -0.67599,-0.41653 -1.27963,-0.9404 -1.7872,-1.55099 -0.50983,-0.6217 -0.68808,-1.45129 -0.4787,-2.22757 0.25439,-0.78418 1.08334,-1.22684 1.87653,-1.00211 0.8298,0.32553 1.33401,1.52548 2.20206,1.34039 0.70212,-0.1532 0.84891,-1.07867 0.84891,-1.8063 -0.0255,-3.80414 1.81271,-9.2103 3.23605,-9.04434 1.43796,0.0786 2.87784,-0.11411 4.24451,-0.56808 1.36841,-0.45474 2.81216,-0.63904 4.25092,-0.54257 0.10211,0.0128 0.20425,0.0319 0.31274,0.0511 0.23065,-0.72275 0.54782,-1.41498 0.94464,-2.06161 -0.0447,0.78055 -0.006,1.56366 0.1149,2.33606 1.1449,0.47186 2.32785,0.84555 3.53607,1.117 1.31485,0.18512 4.20621,4.11688 4.34027,3.71475 0.23065,-0.72275 0.54782,-1.41498 0.94464,-2.06161 2.16756,-1.01691 2.74781,7.16433 1.57461,8.98819 -0.0176,0.0273 0.006,0.0575 0.0128,0.0894 0.63828,-0.84891 1.02762,-1.88293 0.81061,-1.09146 5.9792,-7.74018 0.56412,-15.49655 -3.51498,-19.03464 -0.65558,-0.87698 -1.52304,-1.57315 -2.52115,-2.02335 -1.01657,-0.44653 -2.19244,-0.33038 -3.10199,0.3064 -2.79385,-2.56146 -6.75687,-3.40686 -10.35278,-2.20844 -3.50412,1.21912 -6.20401,1.93399 -6.74017,5.61047 -2.98386,-0.32629 -5.89026,1.08841 -7.47421,3.63812 -1.51031,2.54871 -2.00485,5.57291 -1.3851,8.46994 z"
           fill="#2f2e41"
           id="path470-2-6" /><path
           d="m 190.03381,276.00099 c -1.20316,-3.00217 0.25528,-6.41125 3.25745,-7.61441 0.32013,-0.1283 0.65097,-0.22806 0.98865,-0.29813 l 5.10889,-36.70081 8.18457,7.06876 -6.22836,34.57733 c 0.44858,3.22076 -1.79874,6.19534 -5.0195,6.64392 -2.69479,0.37531 -5.29581,-1.14465 -6.29166,-3.67667 h -3e-5 z"
           fill="#ffb8b8"
           id="path471-1-9" /><path
           d="m 235.12726,178.03215 -0.39001,-3.56 c -0.36758,-3.28781 -2.43234,-6.14203 -5.44,-7.51999 -1.14224,-0.52991 -2.38123,-0.81924 -3.64001,-0.85001 h -0.01 c -3.78793,-0.0884 -7.25974,2.10269 -8.81,5.56 l -6.23999,13.95001 -15.75,48.35001 -5.09,26.30005 5.5,0.81 7.97,1.17001 0.06,0.01 1.82999,0.26999 25.57001,-68.44 0.01,-0.02 4.78,-12.79001 -0.34998,-3.24008 z"
           fill="#2f2e41"
           id="path472-3-2" /></g><path
         d="m 330.54724,318.62214 h -164 c -3.86414,-0.005 -6.99548,-3.13586 -7,-7 v -223 c 0.004,-3.8642 3.1358,-6.99567 7,-7 h 164 c 3.8642,0.0043 6.99567,3.1358 7,7 v 223 c -0.005,3.86414 -3.13586,6.99548 -7,7 z m -164,-235 c -2.76007,0.0032 -4.99677,2.23993 -5,5 v 223 c 0.003,2.76007 2.23993,4.99677 5,5 h 164 c 2.76007,-0.003 4.99677,-2.23993 5,-5 v -223 c -0.003,-2.76007 -2.23993,-4.99677 -5,-5 z"
         fill="#e6e6e6"
         id="path473-9-4" /><path
         d="M 66,248.62214 H 13 c -7.1797,0 -13,-5.82031 -13,-13 0,-7.17969 5.8203,-13 13,-13 h 53 c 7.17969,0 13,5.82031 13,13 0,7.17969 -5.82031,13 -13,13 z"
         fill="#e6e6e6"
         id="path474-8-0"
         style="fill:#a5a5a5;fill-opacity:1" /><path
         d="M 92,299.62214 H 39 c -7.17969,0 -13,-5.82031 -13,-13 0,-7.17969 5.82031,-13 13,-13 h 53 c 7.17969,0 13,5.82031 13,13 0,7.17969 -5.82031,13 -13,13 z"
         fill="#e6e6e6"
         id="path475-0-9"
         style="fill:#a5a5a5;fill-opacity:1" /><rect
         x="170.22899"
         y="240.6097"
         width="2.00021"
         height="102.43015"
         transform="rotate(-89.1724,171.2291,291.82477)"
         fill="#e6e6e6"
         id="rect475-7-7" /><path
         d="m 226.73572,297.14167 c -1.91428,0.001 -3.66187,-1.08871 -4.50244,-2.80859 v 0 c -1.21017,-2.48199 -0.17914,-5.4751 2.30286,-6.68527 2.48203,-1.21017 5.47513,-0.17917 6.6853,2.30286 1.21017,2.48199 0.17914,5.4751 -2.30289,6.68527 -0.67996,0.33154 -1.42633,0.50449 -2.18283,0.50574 z m -0.0102,-8.00101 c -1.65723,0.002 -2.99933,1.34637 -2.99771,3.00357 4.3e-4,0.45462 0.10419,0.9032 0.30338,1.31186 v 0 c 0.72766,1.48721 2.52316,2.103 4.01041,1.37534 1.48721,-0.72766 2.10297,-2.52316 1.37534,-4.01041 -0.50293,-1.02786 -1.54709,-1.67981 -2.69141,-1.68036 z"
         fill="#e6e6e6"
         id="path476-6-1" /><rect
         x="148.22896"
         y="187.60966"
         width="2.00021"
         height="102.43012"
         transform="rotate(-89.1724,149.22908,238.82472)"
         fill="#e6e6e6"
         id="rect476-0-1" /><path
         d="m 204.73572,244.14167 c -1.91418,0.001 -3.66171,-1.08844 -4.50244,-2.80811 v 0 c -1.21155,-2.48257 -0.18118,-5.47726 2.30139,-6.68881 2.48257,-1.21155 5.47723,-0.18121 6.68881,2.30136 1.21155,2.48257 0.18118,5.47726 -2.30139,6.68884 -0.681,0.33234 -1.42859,0.50562 -2.18637,0.50671 z m -2.70459,-3.68506 c 0.72629,1.48862 2.52185,2.10663 4.0105,1.38031 1.48862,-0.72629 2.10663,-2.52185 1.38031,-4.01047 -0.72629,-1.48865 -2.52185,-2.10663 -4.0105,-1.38034 -0.71457,0.34866 -1.26144,0.96677 -1.52045,1.71851 -0.25891,0.75238 -0.2085,1.57675 0.14014,2.29199 z"
         fill="#e6e6e6"
         id="path477-4-6" /><path
         d="M 106,198.62214 H 53 c -7.17969,0 -13,-5.82031 -13,-13 0,-7.17969 5.82031,-13 13,-13 h 53 c 7.17969,0 13,5.82031 13,13 0,7.17969 -5.82031,13 -13,13 z"
         fill="#e6e6e6"
         id="path478-1-1"
         style="fill:#a5a5a5;fill-opacity:1" /><rect
         x="188.22897"
         y="137.60973"
         width="2.00021"
         height="102.43012"
         transform="rotate(-89.1724,189.22908,188.82477)"
         fill="#e6e6e6"
         id="rect478-3-3" /><path
         d="m 244.73572,194.14167 c -1.91418,0.001 -3.66171,-1.08844 -4.50244,-2.80811 v 0 c -1.21155,-2.48257 -0.18118,-5.47726 2.30139,-6.68881 2.48257,-1.21155 5.47723,-0.18121 6.68881,2.30136 1.21155,2.48257 0.18118,5.47726 -2.30139,6.68884 -0.681,0.33234 -1.42859,0.50562 -2.18637,0.50671 z m -2.70459,-3.68506 c 0.72629,1.48862 2.52185,2.10663 4.0105,1.38031 1.48862,-0.72629 2.10663,-2.52185 1.38031,-4.01047 -0.72629,-1.48865 -2.52185,-2.10663 -4.0105,-1.38034 -0.71457,0.34866 -1.26144,0.96677 -1.52045,1.71851 -0.25888,0.75238 -0.20847,1.57675 0.14014,2.29199 z"
         fill="#e6e6e6"
         id="path479-8-1" /><rect
         x="565.10376"
         y="180.79356"
         width="2.00018"
         height="102.42963"
         transform="rotate(-89.17239,566.10391,232.00836)"
         fill="#3f3d56"
         id="rect479-2-1" /><path
         d="m 510.60974,236.69395 c -2.7663,0.006 -5.01398,-2.23096 -5.02039,-4.99725 -0.006,-2.76629 2.23096,-5.01401 4.99725,-5.02039 2.76629,-0.006 5.01398,2.23096 5.02039,4.99725 0.004,1.91803 -1.08685,3.67017 -2.81024,4.51208 -0.68109,0.33289 -1.42889,0.50668 -2.18701,0.5083 z m -0.007,-8.00439 c -1.65814,-6e-5 -3.00238,1.34406 -3.00244,3.0022 -1.2e-4,1.65811 1.34406,3.00238 3.00214,3.00244 1.65814,9e-5 3.00244,-1.34406 3.0025,-3.00217 0,-0.45584 -0.10376,-0.9057 -0.30347,-1.31546 v -5.2e-4 c -0.50409,-1.03107 -1.55103,-1.68533 -2.69873,-1.68652 z"
         fill="#3f3d56"
         id="path480-7-0" /><path
         d="m 696,351.62214 h -53 c -7.17969,0 -13,-5.82031 -13,-13 0,-7.17969 5.82031,-13 13,-13 h 53 c 7.17969,0 13,5.82031 13,13 0,7.17969 -5.82031,13 -13,13 z"
         fill="#ed4980"
         id="path481-4-7"
         style="fill:#be7dcd;fill-opacity:1" /><rect
         x="565.10376"
         y="283.79361"
         width="2.00018"
         height="102.42963"
         transform="rotate(-89.17239,566.1039,335.00842)"
         fill="#3f3d56"
         id="rect481-1-0" /><path
         d="m 510.60925,339.69343 c -2.76208,0.003 -5.00336,-2.23419 -5.0061,-4.99628 -0.003,-2.76208 2.23419,-5.00342 4.99628,-5.0061 1.91394,-0.002 3.66113,1.08875 4.50006,2.80902 v 0 c 1.20917,2.48511 0.1748,5.47986 -2.31024,6.68903 -0.67932,0.33051 -1.42456,0.50293 -2.17999,0.50433 z m -0.006,-8.00391 c -1.6582,-2.4e-4 -3.00256,1.34381 -3.00281,3.00195 -2.4e-4,1.6582 1.34375,3.00262 3.00195,3.00287 1.6582,1.8e-4 3.00256,-1.34381 3.00281,-3.00201 6e-5,-0.45575 -0.10364,-0.90558 -0.30322,-1.31531 v 0 c -0.5036,-1.03162 -1.55072,-1.6864 -2.69873,-1.6875 z"
         fill="#3f3d56"
         id="path482-4-3" /><path
         d="m 378.97009,351.50099 c 2.53369,-2.03387 2.93896,-5.73663 0.90509,-8.27032 -0.19702,-0.24542 -0.41339,-0.47467 -0.64709,-0.68549 l 9.52466,-27.73206 -7.02295,-4.52042 -11.07172,33.02054 c -1.98859,2.56366 -1.52234,6.25397 1.04132,8.24255 2.14508,1.66388 5.15088,1.64124 7.27069,-0.0548 v -6e-5 z"
         fill="#ffb6b6"
         id="path483-0-5" /><path
         d="m 387.09845,274.98436 c -1.68225,7.116 -4.19318,13.33194 -3.85303,16.31708 0.33661,2.97699 -3.30139,5.83762 -2.14526,8.1908 1.15387,2.35901 -2.39819,2.61148 -1.43774,6.40799 0.96399,3.80472 1.59015,4.61838 0.77643,5.24454 -0.81952,0.62381 -5.14917,15.14536 -5.14917,15.14536 l 2.53961,0.93073 7.41052,2.70343 17.41425,-28.6424 -0.0527,-35.15689 -4.32391,-0.13879 c -1.03815,0.38925 -2.18799,0.85626 -3.3349,1.41901 -3.50244,1.69095 -7.04578,4.19019 -7.84406,7.57916 z"
         fill="#ed4980"
         id="path484-7-4" /><polygon
         points="464.58801,463.1333 451.22198,463.1333 451.224,498.06228 460.28,498.06228 "
         fill="#ffb6b6"
         id="polygon484-0-0" /><path
         d="m 463.29303,498.87788 v -6.13916 l -2.38068,0.14545 -9.69098,0.5741 -2.24286,0.13776 -1.71466,20.56085 -0.0919,1.10229 h 6.42999 l 0.20673,-1.0946 0.93384,-4.97565 2.41132,4.97565 0.5282,1.0946 h 17.0473 c 2.11127,-0.0134 3.81824,-1.72382 3.82739,-3.83508 0.71948,-3.36047 -13.45728,-10.62488 -15.26373,-12.5462 z"
         fill="#2f2e41"
         id="path485-4-8" /><polygon
         points="373.992,464.42028 362.367,457.82528 345.13101,488.20529 353.008,492.67428 "
         fill="#ffb6b6"
         id="polygon485-0-4" /><path
         d="m 355.22992,494.86677 3.02368,-5.33545 -2.12799,-1.04871 -8.71887,-4.27899 -2.02087,-0.99512 -9.92828,14.5365 -2.33478,3.414 2.64093,1.50037 2.94714,1.67639 3.99579,-4.71533 -0.44397,6.72858 13.92413,7.90741 h 0.008 l 0.89563,0.50519 c 1.84137,1.04028 4.17731,0.39288 5.22052,-1.44678 2.28113,-2.57202 -6.46075,-15.8761 -7.08075,-18.44806 z"
         fill="#2f2e41"
         id="path486-1-4" /><path
         d="m 406.28345,326.60231 c -12.13501,8.04132 -24.14795,85.29834 -20.99524,84.03705 l -28.60248,53.30493 14.61963,9.88416 52.86041,-84.58105 17.57166,37.41681 7.25647,57.43201 18.2016,-1.30011 C 462.46589,418.09457 450.65705,349.85446 440.87061,323.4581 l -34.58716,3.14423 z"
         fill="#2f2e41"
         id="path487-1-3" /><path
         d="m 397.06989,332.33986 -0.13208,0.49677 c 12.82874,7.13757 47.94391,-1.13 47.94391,-1.13 l -5.65973,-18.23679 7.64081,-40.51294 c -0.0413,-6.54004 -5.37653,-11.80829 -11.9165,-11.767 -0.26874,0.002 -0.53729,0.0125 -0.80524,0.0325 l -9.21906,-6.82938 -13.12427,0.45279 -8.77881,9.69699 -5.24469,1.87399 -4.07501,1.45267 c -0.82379,0.74203 -1.72308,1.59732 -2.58459,2.54062 l 6.4458,38.36032 2.74182,11.47034 z"
         fill="#ed4980"
         id="path488-8-5" /><circle
         cx="418.37256"
         cy="236.0322"
         r="16.839451"
         fill="#ffb6b6"
         id="circle488-0-7" /><path
         d="m 396.23102,230.16591 c 0.0503,0.019 0.0942,0.038 0.14453,0.057 0.096,0.0424 0.19458,0.0784 0.29529,0.10764 0.64221,0.23581 1.31165,0.38962 1.99237,0.45782 0.29028,0.0314 0.58203,0.0468 0.87402,0.0462 0.37439,10e-4 0.74847,-0.023 1.11957,-0.0726 0.41278,-0.0506 0.82092,-0.1337 1.22064,-0.24844 0.18964,-0.0508 0.37659,-0.11124 0.56012,-0.181 2.53424,-0.90024 4.49957,-2.93692 5.3089,-5.50165 v -0.006 c 0.0425,-0.12369 0.0786,-0.24954 0.10785,-0.37701 0.18689,-0.70782 0.28174,-1.43677 0.28217,-2.16885 v -0.0126 c 0.005,-1.78519 -0.55182,-3.5267 -1.591,-4.9783 -0.62659,-0.88831 -1.3504,-1.03674 -0.9444,-2.05246 1.29529,-3.24014 -4.00409,-5.88879 -7.13257,-4.46408 -0.11285,-0.0108 -0.22626,-0.0153 -0.3396,-0.0135 -2.10663,-0.005 -2.888,3.10556 -4.14386,4.8569 l 0.0364,0.0118 c 0.84253,0.29498 1.28644,1.21716 0.99146,2.05972 -0.16504,0.47125 -0.53857,0.83981 -1.01202,0.99847 -0.83624,0.2724 -1.68109,0.51306 -2.53461,0.72192 -2.81494,3.32465 0.41217,13.05109 4.76477,10.75925 z"
         fill="#2f2e41"
         id="path489-1-4" /><path
         d="m 397.78064,239.08079 c 0.80084,3.60193 2.72095,6.85803 5.48529,9.30209 2.84924,2.30255 16.24902,7.75723 17.38019,3.08765 -0.75659,3.26187 -0.30072,4.50815 0.91632,5.67462 0.20825,-0.28244 0.42902,-0.55228 0.65613,-0.81586 0.8363,-0.96362 1.83954,-1.76846 2.96161,-2.37589 0.029,1.97025 -0.11267,3.93927 -0.42365,5.88504 0.50146,0.46268 0.97876,0.95084 1.43005,1.46255 2.16705,-6.45917 6.91718,-14.19562 3.47809,-20.077 -1.36487,-2.33417 -0.22675,-2.65384 0.98212,-2.92172 2.11041,-0.46768 3.27429,-9.129 3.77643,-11.23441 0.62299,-2.63965 0.86963,-5.67642 -0.76624,-7.84384 -1.63587,-2.16742 -5.7735,-2.25964 -6.61017,0.32285 l -1.74225,-2.36887 c -2.2514,-4.95483 -8.22803,-3.96378 -13.63153,-3.32343 -5.47949,0.82996 -10.19672,4.30994 -12.60699,9.30038 -2.32019,4.9838 -2.77631,10.6344 -1.2854,15.92581 z"
         fill="#2f2e41"
         id="path490-1-8" /><path
         d="m 406.29913,216.44749 c 0.2345,6.1077 -3.1994,11.76566 -8.72565,14.37701 -1.09784,0.49738 -2.05365,-1.13049 -0.94806,-1.63141 4.94019,-2.27884 8.01575,-7.3147 7.78711,-12.75034 -0.0629,-1.21335 1.82385,-1.2049 1.8866,0.005 v -3e-5 z"
         fill="#ed4980"
         id="path491-8-0" /><path
         d="m 482.35498,225.76374 c -3.13068,0.86893 -4.96423,4.11124 -4.09534,7.24194 0.0842,0.30325 0.19257,0.5993 0.3241,0.88522 l -19.69537,21.72275 4.66913,6.92499 23.20386,-25.9715 c 2.83887,-1.57086 3.86682,-5.14563 2.29596,-7.9845 -1.31439,-2.3754 -4.08521,-3.54077 -6.70227,-2.81894 l -6e-5,3e-5 z"
         fill="#ffb6b6"
         id="path492-9-4" /><path
         d="m 426.36957,296.23677 c 0,0 13.96893,2.50861 18.32233,-3.37177 4.3534,-5.88038 9.1134,-10.5972 9.97937,-13.47128 0.86597,-2.87408 5.33551,-4.06201 5.20331,-6.68362 -0.1322,-2.62161 3.2348,-1.45044 3.84821,-5.32266 0.61341,-3.87222 0.3609,-4.87033 1.35901,-5.12286 0.99811,-0.25253 10.70264,-11.88412 10.70264,-11.88412 l -7.70654,-7.26663 -27.30139,19.44644 -14.40692,33.67651 z"
         fill="#ed4980"
         id="path493-0-4" /><path
         d="m 321.30768,507.92585 c -10.96149,-1.30505 -20.74829,-7.48822 -26.63416,-16.82709 -3.77924,-6.12903 -5.72931,-13.40765 -7.61523,-20.44666 -0.54913,-2.0484 -1.11652,-4.16656 -1.71747,-6.20862 -1.39001,-4.56519 0.13702,-9.51678 3.85681,-12.5061 3.59601,-3.01422 8.66418,-3.53723 12.79999,-1.32098 l 0.44128,0.23401 0.77325,17.3797 c 1.14581,-2.32825 3.66016,-7.58813 5.65216,-12.84021 l 0.16705,-0.43988 0.38171,0.27563 c 4.00482,2.8772 7.63147,6.24719 10.79431,10.03052 11.30341,13.74164 15.99005,31.75977 12.81482,49.2674 l -0.0962,0.51526 -11.61835,-7.11298 z"
         fill="#f2f2f2"
         id="path494-5-6"
         style="fill:#bbbbbb;fill-opacity:1" /><path
         d="m 250.43817,514.8628 c -0.002,0.65527 0.52765,1.18805 1.18292,1.19 h 290.29712 c 0.65723,0 1.19,-0.53278 1.19,-1.19 0,-0.65722 -0.53278,-1.19 -1.19,-1.19 H 251.6282 c -0.65527,-0.002 -1.18808,0.52771 -1.19003,1.18298 z"
         fill="#cccccc"
         id="path495-0-9"
         style="fill:#bbbbbb;fill-opacity:1" /><g
         id="g502-0-0"><ellipse
           cx="163.58572"
           cy="8.6450701"
           rx="8.4566097"
           ry="8.6450701"
           fill="#3f3d56"
           id="ellipse495-8-1" /><ellipse
           cx="192.79947"
           cy="8.6450701"
           rx="8.4566097"
           ry="8.6450701"
           fill="#3f3d56"
           id="ellipse496-0-0" /><ellipse
           cx="222.01321"
           cy="8.6450701"
           rx="8.4566097"
           ry="8.6450701"
           fill="#3f3d56"
           id="ellipse497-7-0" /><path
           d="m 255.32464,15.47786 c -0.25977,0 -0.51904,-0.10059 -0.71484,-0.30078 l -5.70605,-5.83301 c -0.38037,-0.38867 -0.38037,-1.00977 0,-1.39844 l 5.70605,-5.83252 c 0.38721,-0.39453 1.021,-0.40088 1.41406,-0.01562 0.39502,0.38623 0.40186,1.01953 0.0156,1.41406 l -5.02197,5.1333 5.02197,5.13379 c 0.38623,0.39453 0.37939,1.02783 -0.0156,1.41406 -0.19434,0.19043 -0.44678,0.28516 -0.69922,0.28516 z"
           fill="#3f3d56"
           id="path497-2-9" /><path
           d="m 264.91302,15.47786 c -0.25244,0 -0.50488,-0.09473 -0.69922,-0.28516 -0.39502,-0.38623 -0.40186,-1.01904 -0.0156,-1.41406 l 5.02148,-5.13379 -5.02148,-5.1333 c -0.38623,-0.39453 -0.37939,-1.02783 0.0156,-1.41406 0.39404,-0.38672 1.02783,-0.37939 1.41406,0.01562 l 5.70557,5.83252 c 0.38037,0.38867 0.38037,1.00977 0,1.39844 l -5.70557,5.83301 c -0.1958,0.2002 -0.45508,0.30078 -0.71484,0.30078 z"
           fill="#3f3d56"
           id="path498-1-4" /><path
           d="m 563.42285,1.0009 h -10.60999 c -1.21002,0 -2.19,0.97998 -2.19,2.19 v 10.62 c 0,1.21002 0.97998,2.19 2.19,2.19 h 10.60999 c 1.21002,0 2.20001,-0.97998 2.20001,-2.19 v -10.62 c 0,-1.21002 -0.98999,-2.19 -2.20001,-2.19 z"
           fill="#3f3d56"
           id="path499-2-3" /><path
           d="m 537.42285,1.0009 h -10.60999 c -1.21002,0 -2.19,0.97998 -2.19,2.19 v 10.62 c 0,1.21002 0.97998,2.19 2.19,2.19 h 10.60999 c 1.21002,0 2.20001,-0.97998 2.20001,-2.19 v -10.62 c 0,-1.21002 -0.98999,-2.19 -2.20001,-2.19 z"
           fill="#3f3d56"
           id="path500-7-1" /><path
           d="m 587.92285,1.5009 h -10.60999 c -1.21002,0 -2.19,0.97998 -2.19,2.19 v 10.62 c 0,1.21002 0.97998,2.19 2.19,2.19 h 10.60999 c 1.21002,0 2.20001,-0.97998 2.20001,-2.19 v -10.62 c 0,-1.21002 -0.98999,-2.19 -2.20001,-2.19 z"
           fill="#3f3d56"
           id="path501-8-3" /><path
           d="m 428.00116,5.54088 h -84.81 c -1.48004,0 -2.67004,1.20001 -2.67004,2.67004 0,1.47003 1.19,2.66998 2.67004,2.66998 h 84.81 c 1.46997,0 2.66998,-1.20001 2.66998,-2.66998 0,-1.46997 -1.20001,-2.67004 -2.66998,-2.67004 z"
           fill="#3f3d56"
           id="path502-2-2" /></g></g></g></svg>
