<?xml version="1.0" encoding="UTF-8" standalone="no"?>
<!-- Created with Inkscape (http://www.inkscape.org/) -->

<svg
   width="755.46124"
   height="574.77655"
   viewBox="0 0 199.88245 152.07629"
   version="1.1"
   id="svg1"
   xml:space="preserve"
   xmlns="http://www.w3.org/2000/svg"
   xmlns:svg="http://www.w3.org/2000/svg"><defs
     id="defs1" /><g
     id="g1"
     transform="matrix(0.26458333,0,0,0.26458335,-17480.309,-3485.38)"><g
       id="g548-2-2"
       transform="matrix(0.92556605,0,0,0.92556605,66067.312,13173.089)"><path
         d="m 518.50083,268.28111 h -2.97759 V 186.71075 A 47.2107,47.2107 0 0 0 468.31258,139.5 H 295.49464 a 47.2107,47.2107 0 0 0 -47.21079,47.2106 v 447.50149 a 47.2107,47.2107 0 0 0 47.21065,47.21075 h 172.81785 a 47.21071,47.21071 0 0 0 47.21084,-47.21057 v -307.868 h 2.97764 z"
         transform="translate(-191.89234,-139.5)"
         fill="#3f3d56"
         id="path530-8-9" /><path
         d="m 470.21737,151.7826 h -22.55845 a 16.75027,16.75027 0 0 1 -15.50845,23.0764 h -99.00515 a 16.75024,16.75024 0 0 1 -15.50845,-23.0764 h -21.06965 a 35.25642,35.25642 0 0 0 -35.25645,35.2564 v 446.84482 a 35.25643,35.25643 0 0 0 35.25641,35.25646 h 173.65019 a 35.25643,35.25643 0 0 0 35.25645,-35.25642 v 0 V 187.039 a 35.2564,35.2564 0 0 0 -35.25645,-35.2564 z"
         transform="translate(-191.89234,-139.5)"
         fill="#ffffff"
         id="path531-9-4" /><path
         d="m 573.89234,681.5 h -381 a 1,1 0 0 1 0,-2 h 381 a 1,1 0 0 1 0,2 z"
         transform="translate(-191.89234,-139.5)"
         fill="#cbcbcb"
         id="path532-4-3"
         style="fill:#bbbbbb;fill-opacity:1" /><circle
         id="circle532-1-0"
         data-name="Ellipse 44"
         cx="191.5"
         cy="261.23361"
         r="84.446198"
         fill="#ed4980"
         style="fill:#be7dcd;fill-opacity:1" /><path
         id="path533-7-5"
         data-name="Path 395"
         d="m 375.02417,432.94733 a 8.75832,8.75832 0 0 1 -5.26905,-1.75113 l -0.0943,-0.0707 -19.846,-15.18155 a 8.8194105,8.8194105 0 1 1 10.73182,-13.99843 l 12.85463,9.85753 30.3762,-39.62906 a 8.81571,8.81571 0 0 1 12.36,-1.63259 l 0.003,0.002 -0.18852,0.26177 0.19363,-0.26177 a 8.82633,8.82633 0 0 1 1.63067,12.36249 l -35.729,46.5917 a 8.821,8.821 0 0 1 -7.01492,3.4394 z"
         transform="translate(-191.89234,-139.5)"
         fill="#ffffff" /><path
         d="m 886.13718,689.8 a 26.26334,26.26334 0 0 1 3.60591,-4.59509 c 0.56451,-0.58554 1.16006,-1.13726 1.774,-1.674 a 28.1419,28.1419 0 0 1 46.402,16.00717 c 4.1243,-15.25223 -6.61178,-30.27563 -17.40582,-41.81557 -10.79975,-11.536 -23.14326,-24.19113 -23.08122,-39.99834 0.0302,-8.79567 4.33288,-16.64261 10.82915,-22.46017 0.20041,-0.17628 0.40083,-0.35231 0.60533,-0.52222 a 41.0711,41.0711 0 0 1 28.288,-9.85832 c 19.199,1.02837 35.96271,13.93191 47.60455,29.23771 18.73892,24.62722 26.95042,59.1966 13.83175,87.23109 -11.539,24.65645 -36.14884,39.298 -61.26527,51.06882 q -5.26069,2.466 -10.50056,4.78336 c -0.0229,0.006 -0.0482,0.0226 -0.0714,0.0287 -0.16817,0.0738 -0.33634,0.14776 -0.4939,0.22384 -0.72086,0.318 -1.44212,0.63631 -2.15685,0.95035 l 0.331,0.21649 1.0327,0.66861 c -0.358,-0.21685 -0.71228,-0.42716 -1.07026,-0.644 -0.10653,-0.0657 -0.21919,-0.12741 -0.32532,-0.19333 C 911.73519,751.05346 899.22759,743.223 890.70551,731.66744 881.86716,719.66952 878.3135,702.48392 886.13718,689.8 Z"
         transform="translate(-191.89234,-139.5)"
         fill="#f1f1f1"
         id="path534-3-9"
         style="fill:#bbbbbb;fill-opacity:1" /><path
         d="m 968.44,661.93639 a 69.81787,69.81787 0 0 1 5.37575,19.52985 60.62388,60.62388 0 0 1 -0.73111,18.01244 77.67473,77.67473 0 0 1 -15.57738,33.3225 111.79167,111.79167 0 0 1 -20.18167,19.61994 q -5.26048,2.466 -10.50056,4.78335 c -0.0229,0.006 -0.0482,0.0225 -0.0715,0.0287 -0.168,0.0738 -0.3363,0.14776 -0.494,0.22384 -0.72086,0.318 -1.442,0.63631 -2.15666,0.95034 l 0.331,0.2165 1.03268,0.6686 c -0.35805,-0.21683 -0.71227,-0.42715 -1.07032,-0.644 -0.10638,-0.0657 -0.219,-0.12739 -0.32505,-0.19332 A 61.79626,61.79626 0 0 0 912.86379,702.80863 62.32549,62.32549 0 0 0 889.74327,685.205 c 0.5644,-0.58556 1.15976,-1.13725 1.77368,-1.674 a 64.61916,64.61916 0 0 1 9.90358,5.655 63.31719,63.31719 0 0 1 23.95863,31.73973 64.7349,64.7349 0 0 1 1.40482,36.18842 c 0.61913,-0.40489 1.24061,-0.82034 1.845,-1.23364 11.492,-7.7498 22.08315,-17.05708 30.06094,-28.47079 a 72.261,72.261 0 0 0 12.82157,-32.58459 c 1.529,-12.83375 -1.68219,-25.454 -7.41183,-36.90528 a 151.25676,151.25676 0 0 0 -23.69628,-33.67008 171.87225,171.87225 0 0 0 -31.77612,-27.322 1.23572,1.23572 0 0 1 -0.36615,-1.6637 1.05106,1.05106 0 0 1 0.6054,-0.52219 0.915,0.915 0 0 1 0.77957,0.15764 c 1.44031,0.96125 2.86827,1.93058 4.2789,2.92929 a 173.8225,173.8225 0 0 1 31.76516,29.01581 c 9.03107,10.55501 17.24986,22.28167 22.74986,35.09177 z"
         transform="translate(-191.89234,-139.5)"
         fill="#ffffff"
         id="path535-1-4" /><circle
         id="circle535-6-5"
         data-name="Ellipse 44"
         cx="525.04175"
         cy="21.276461"
         r="17.934059"
         fill="#f1f1f1"
         style="fill:#8e8e8e;fill-opacity:1" /><circle
         id="circle536-3-5"
         data-name="Ellipse 44"
         cx="748.04175"
         cy="268.27646"
         r="10.93406"
         fill="#f1f1f1"
         style="fill:#8e8e8e;fill-opacity:1" /><circle
         id="circle537-4-6"
         data-name="Ellipse 44"
         cx="428.04172"
         cy="298.27646"
         r="10.93406"
         fill="#f1f1f1"
         style="fill:#8e8e8e;fill-opacity:1" /><path
         d="m 626.10766,760.5 h 381.00004 a 1,1 0 1 0 0,-2 H 626.10766 a 1,1 0 0 0 0,2 z"
         transform="translate(-191.89234,-139.5)"
         fill="#cbcbcb"
         id="path537-1-9"
         style="fill:#bbbbbb;fill-opacity:1" /><path
         d="m 965.062,236.135 a 14.65213,14.65213 0 0 0 -28.13652,-7.42622 l -30.91721,35.44433 9.07157,25.33678 31.093,-41.4153 A 14.573,14.573 0 0 0 965.062,236.135 Z"
         transform="translate(-191.89234,-139.5)"
         fill="#ffb7b7"
         id="path538-8-2" /><polygon
         points="605.076,211.876 645.013,234.549 747.642,125.02 733.799,103.012 "
         fill="#3f3d56"
         id="polygon538-8-2" /><circle
         cx="622.10767"
         cy="132"
         r="36"
         fill="#2f2e41"
         id="circle538-4-3" /><path
         d="M 816.8938,251.16321 A 75.48534,75.48534 0 0 1 844.35693,233.404 c 6.63868,-2.45941 13.86451,-3.97894 20.80494,-2.58221 6.94067,1.39666 13.50415,6.19806 15.44042,13.00775 1.58326,5.56836 -0.0515,11.56378 -2.50878,16.80554 -2.457,5.24176 -5.73755,10.10248 -7.72461,15.53986 a 35.468,35.468 0 0 0 35.68921,47.56231 c -6.81934,0.91437 -13.10547,4.119 -19.771,5.82483 -6.66553,1.70575 -14.53272,1.59009 -19.48608,-3.18524 -5.241,-5.05243 -5.346,-13.26715 -5.09253,-20.54248 q 0.56507,-16.22241 1.13012,-32.44495 c 0.19214,-5.51544 0.3562,-11.20764 -1.63305,-16.35553 -1.989,-5.14788 -6.71607,-9.6557 -12.23462,-9.60882 -4.18262,0.0355 -7.88452,2.56927 -11.23853,5.068 -3.35449,2.49878 -6.90454,5.16474 -11.0708,5.53638 -4.166,0.3717 -8.92285,-2.71143 -8.61108,-6.88245 z"
         transform="translate(-191.89234,-139.5)"
         fill="#2f2e41"
         id="path539-1-9" /><path
         d="m 677.26948,513.22286 a 14.65213,14.65213 0 0 1 -11.0391,-26.92491 l 31.10052,-35.28358 26.30491,5.68307 -36.99733,36.23807 a 14.573,14.573 0 0 1 -9.36894,20.28732 z"
         transform="translate(-191.89234,-139.5)"
         fill="#ffb7b7"
         id="path540-9-4" /><polygon
         points="577.665,192.012 587.698,247.405 510.183,344.705 486.555,333.857 "
         fill="#3f3d56"
         id="polygon540-5-1" /><polygon
         points="525.845,603.887 525.848,541.211 507.374,540.921 509.596,603.887 "
         fill="#ffb7b7"
         id="polygon541-0-2" /><path
         d="m 721.8823,738.08194 -32.00113,-10e-4 h -10e-4 A 20.39476,20.39476 0 0 0 669.48624,758.474 v 0.66272 l 52.39508,0.002 z"
         transform="translate(-191.89234,-139.5)"
         fill="#2f2e41"
         id="path541-1-2" /><polygon
         points="682.026,577.253 648.165,524.511 627.984,537.467 668.352,586.032 "
         fill="#ffb7b7"
         id="polygon542-1-0" /><path
         d="m 874.53983,710.04911 -26.92908,17.28869 -0.001,6.7e-4 a 20.39471,20.39471 0 0 0 -6.14264,28.179 l 0.358,0.55768 44.09051,-28.3067 z"
         transform="translate(-191.89234,-139.5)"
         fill="#2f2e41"
         id="path542-7-1" /><path
         d="m 847.24693,471.74009 c 0,0 -44.83957,-148.9274 -59.24978,-150.93993 -14.41021,-2.01253 -37.62808,38.21305 -37.62808,38.21305 -30.103,38.40821 -61.144,162.82087 -61.144,162.82087 0,0 51.74659,3.23809 89.57339,23.36344 37.8268,20.12535 82.46764,-1.0188 82.46764,-1.0188 z"
         transform="translate(-191.89234,-139.5)"
         fill="#3f3d56"
         id="path543-4-6" /><path
         d="m 847.24693,471.74009 c 0,0 -44.83957,-148.9274 -59.24978,-150.93993 -14.41021,-2.01253 -31.73106,38.62126 -31.73106,38.62126 -15,62 -67.041,162.41266 -67.041,162.41266 0,0 51.74659,3.23809 89.57339,23.36344 37.8268,20.12535 82.46764,-1.0188 82.46764,-1.0188 z"
         transform="translate(-191.89234,-139.5)"
         opacity="0.1"
         style="isolation:isolate"
         id="path544-7-4" /><polygon
         points="671.374,552.921 650.374,567.921 590.374,489.921 566.643,412.472 529.374,583.921 501.374,581.921 520.82,344.21 557.721,277.3 618.567,287.682 618.567,362.517 627.374,470.921 "
         fill="#2f2e41"
         id="polygon544-7-2" /><path
         d="m 765.24985,354.79968 c -14,14 -1,29 -1,29 l -16,36 63,17 22.01624,-98.37826 -15,-16 c -30,-1 -30.01624,-1.62174 -30.01624,-1.62174 -5.25622,5.14383 -23,34 -23,34 z"
         transform="translate(-191.89234,-139.5)"
         fill="#ed4980"
         id="path545-9-5" /><path
         d="m 835.8032,328.22953 a 26.8839,26.8839 0 0 0 -37.77734,5.91308 c -15.83789,22.05225 -30.48242,57.66114 -10.30469,102.07178 32.39893,71.30957 60.59326,107.81445 72.05518,107.81055 a 4.55981,4.55981 0 0 0 1.47314,-0.23145 c 7.05518,-2.39355 17.25586,-14.332 19.10254,-24.85254 0.66113,-3.76562 0.50391,-9.01074 -3.99951,-12.6123 -12.93555,-10.34619 -36.15772,-42.56152 -43.40186,-84.96387 -4.00341,-23.42969 3.76026,-44.772 10.978,-58.5498 a 26.87922,26.87922 0 0 0 -7.77734,-34.3291 v 0 z"
         transform="translate(-191.89234,-139.5)"
         fill="#3f3d56"
         id="path546-5-7" /><circle
         cx="803.14044"
         cy="280.71069"
         r="26.50012"
         transform="rotate(-28.6632,434.18339,586.50703)"
         fill="#ffb7b7"
         id="circle546-8-8" /><path
         d="m 765.872,278.70709 h 38.26556 l 0.39252,-5.49379 1.96191,5.49379 h 5.89209 l 0.77759,-10.88853 3.88855,10.88853 h 11.40088 v -0.53947 a 28.62427,28.62427 0 0 0 -28.59192,-28.59215 h -5.395 A 28.62448,28.62448 0 0 0 765.872,278.16762 Z"
         transform="translate(-191.89234,-139.5)"
         fill="#2f2e41"
         id="path547-2-4" /><path
         d="M 822.67028,298.45432 839,293.1556 V 253.5 h -30.84436 l 0.76361,0.76243 c 10.62463,10.61091 22.44108,48.25706 13.75103,44.19189 z"
         transform="translate(-191.89234,-139.5)"
         fill="#2f2e41"
         id="path548-4-9" /></g></g></svg>
