<?xml version="1.0" encoding="UTF-8" standalone="no"?>
<!-- Created with Inkscape (http://www.inkscape.org/) -->

<svg
   width="786.99377"
   height="688.16699"
   viewBox="0 0 208.22543 182.07752"
   version="1.1"
   id="svg1"
   xml:space="preserve"
   xmlns="http://www.w3.org/2000/svg"
   xmlns:svg="http://www.w3.org/2000/svg"><defs
     id="defs1" /><g
     id="g1"
     transform="matrix(0.26458333,0,0,0.26458335,-16308.696,-3494.4071)"><g
       id="g382-6-1"
       transform="matrix(1.2070457,0,0,1.2070457,61639.167,13207.207)"><path
         d="m 383.95544,670.80537 c -21.41987,11.54992 -30.61494,36.063 -30.61494,36.063 0,0 25.53333,5.787 46.95319,-5.763 21.41986,-11.55 30.61493,-36.063 30.61493,-36.063 0,0 -25.53332,-5.7869 -46.95318,5.763 z"
         transform="translate(-274,-164.93737)"
         fill="#f2f2f2"
         id="path365-3-8"
         style="fill:#bbbbbb;fill-opacity:1" /><path
         d="m 391.00243,678.74409 c -12.54547,20.85238 -37.4643,28.88326 -37.4643,28.88326 0,0 -4.57855,-25.77746 7.96693,-46.62985 12.54548,-20.85239 37.46424,-28.88328 37.46424,-28.88328 0,0 4.57861,25.77748 -7.96687,46.62987 z"
         transform="translate(-274,-164.93737)"
         fill="#f2f2f2"
         id="path366-7-7"
         style="fill:#bbbbbb;fill-opacity:1" /><rect
         x="437.44489"
         y="40.125259"
         width="76"
         height="45"
         fill="#2f2e41"
         id="rect366-3-8" /><path
         d="m 636.15176,212.3186 h -39.1842 v -13.66387 a 19.5921,19.5921 0 0 1 39.1842,0 z m -38.31666,-0.86755 h 37.44912 v -12.79632 a 18.72456,18.72456 0 0 0 -37.44912,0 z"
         transform="translate(-274,-164.93737)"
         fill="#3f3d56"
         id="path367-1-1" /><polygon
         points="293.471,196.31 381.527,45.502 381.527,40.162 281.877,42.832 278.723,178.092 "
         fill="#3f3d56"
         id="polygon367-6-7" /><polygon
         points="293.471,196.31 397.705,185.075 399.167,43.622 291.158,46.08 "
         fill="#ed4980"
         id="polygon368-4-4" /><polygon
         points="472.905,483.067 490.999,483.067 490.997,530.355 478.737,530.355 "
         fill="#ffb6b6"
         id="polygon369-4-4" /><path
         d="m 768.12328,707.17645 -39.53076,-0.001 v -0.5 a 15.3873,15.3873 0 0 1 15.38648,-15.3867 h 10e-4 l 24.144,10e-4 z"
         transform="translate(-274,-164.93737)"
         fill="#2f2e41"
         id="path369-1-5" /><polygon
         points="427.905,483.067 445.999,483.067 445.997,530.355 433.737,530.355 "
         fill="#ffb6b6"
         id="polygon370-3-1" /><path
         d="m 723.12328,707.17645 -39.53076,-0.001 v -0.5 a 15.3873,15.3873 0 0 1 15.38648,-15.3867 h 10e-4 l 24.144,10e-4 z"
         transform="translate(-274,-164.93737)"
         fill="#2f2e41"
         id="path370-8-0" /><path
         d="m 683.99246,399.19649 c 0,0 -17.91244,38.5748 -1.73,116.22047 16.18244,77.64567 16.31629,162.88821 16.31629,162.88821 l 24.74368,0.40336 13.9,-183.52 7.27757,180.92913 h 24.378 l 21.48451,-178.0691 c 0,0 14.13754,-79.51349 -17.39,-93.74971 z"
         transform="translate(-274,-164.93737)"
         fill="#2f2e41"
         id="path371-3-7" /><path
         d="M 769.73255,263.06263 715.555,258.0685 v 0 c -16.98986,12.38353 -26.52543,34.62507 -24.56793,57.57354 2.65407,31.11463 1.75616,73.93415 -19.54217,92.53644 0,0 58.0494,45.8157 109.61509,2.34991 0,0 -17.63267,-47.23775 -5.52651,-66.10177 12.10616,-18.86402 16.47371,-71.86399 -5.80093,-81.36399 z"
         transform="translate(-274,-164.93737)"
         fill="#e4e4e4"
         id="path372-8-6" /><path
         d="m 608.527,186.17919 a 10.7427,10.7427 0 0 0 11.43977,11.8524 L 691.5,264.78927 704.32084,245.25945 629.97452,185.77989 a 10.80091,10.80091 0 0 0 -21.44756,0.3993 z"
         transform="translate(-274,-164.93737)"
         fill="#ffb6b6"
         id="path373-4-8" /><path
         d="m 678.14208,254.47645 16.96983,-17.43179 a 4.81689,4.81689 0 0 1 7.28075,0.438 l 14.712,19.2826 a 13.37737,13.37737 0 0 1 -18.71875,19.11593 L 678.7754,261.74283 a 4.81689,4.81689 0 0 1 -0.63333,-7.26636 z"
         transform="translate(-274,-164.93737)"
         fill="#e4e4e4"
         id="path374-6-3" /><path
         d="m 874.28441,348.7493 a 10.74268,10.74268 0 0 0 -12.08059,-11.19852 l -75.13166,-62.68039 -11.716,20.21194 77.536,55.25723 a 10.80091,10.80091 0 0 0 21.39225,-1.59026 z"
         transform="translate(-274,-164.93737)"
         fill="#ffb6b6"
         id="path375-5-4" /><path
         d="m 800.98244,284.42515 -15.97515,18.34766 a 4.81688,4.81688 0 0 1 -7.29384,-0.0328 l -15.76058,-18.43546 a 13.37737,13.37737 0 0 1 17.62782,-20.12637 l 20.3657,13.027 a 4.81688,4.81688 0 0 1 1.03605,7.21995 z"
         transform="translate(-274,-164.93737)"
         fill="#e4e4e4"
         id="path376-4-0" /><path
         d="M 881.9179,375.2531 H 852.237 v -10.35 a 14.8405,14.8405 0 0 1 29.681,0 z m -29.02381,-0.65714 h 28.36666 v -9.69286 a 14.18333,14.18333 0 0 0 -28.36666,0 z"
         transform="translate(-274,-164.93737)"
         fill="#3f3d56"
         id="path377-8-0" /><polygon
         points="555.894,323.125 622.594,208.892 622.594,204.847 547.112,206.87 544.723,309.325 "
         fill="#3f3d56"
         id="polygon377-0-2" /><polygon
         points="555.894,323.125 634.849,314.615 635.956,207.468 554.142,209.33 "
         fill="#ed4980"
         id="polygon378-0-6"
         style="fill:#bd7ccc;fill-opacity:1" /><circle
         cx="472.44489"
         cy="52.125259"
         r="32"
         fill="#ffb6b6"
         id="circle378-3-2" /><path
         d="m 731.71177,202.80076 c 11.07,10.84841 30.33409,11.88815 42.50746,2.29425 a 71.78407,71.78407 0 0 1 -15.288,67.676 c 6.77173,2.44676 14.56709,0.83705 20.61973,-3.06277 6.05264,-3.89982 10.53515,-9.85419 13.91774,-16.21037 8.37356,-15.73462 10.4701,-34.94725 4.54608,-51.758 -5.92402,-16.81075 -20.11671,-30.75035 -37.3597,-35.26409 -17.24299,-4.51374 -37.01356,1.06186 -48.53371,14.66262 -12.04649,14.22215 -13.99821,35.06129 -8.71923,52.93641 5.27898,17.87512 16.85751,33.22578 29.579,46.84748 A 195.4652,195.4652 0 0 1 720.926,232.02061 c -0.64717,-5.73728 -1.02538,-11.65123 0.59548,-17.19271 1.62086,-5.54148 5.6099,-10.70314 11.16965,-12.26017"
         transform="translate(-274,-164.93737)"
         fill="#2f2e41"
         id="path378-0-2" /><path
         d="M 925,709.06263 H 544 a 1,1 0 0 1 0,-2 h 381 a 1,1 0 0 1 0,2 z"
         transform="translate(-274,-164.93737)"
         fill="#cacaca"
         id="path379-5-5"
         style="fill:#bbbbbb;fill-opacity:1" /><path
         d="M 437,709.06263 H 275 a 1,1 0 0 1 0,-2 h 162 a 1,1 0 0 1 0,2 z"
         transform="translate(-274,-164.93737)"
         fill="#cacaca"
         id="path380-3-7"
         style="fill:#bbbbbb;fill-opacity:1" /><path
         d="M 865.9179,622.2531 H 836.237 v -10.35 a 14.8405,14.8405 0 0 1 29.681,0 z m -29.02381,-0.65714 h 28.36666 v -9.69286 a 14.18333,14.18333 0 0 0 -28.36666,0 z"
         transform="translate(-274,-164.93737)"
         fill="#cacaca"
         id="path381-9-6" /><polygon
         points="539.894,570.125 606.594,455.892 606.594,451.847 531.112,453.87 528.723,556.325 "
         fill="#cacaca"
         id="polygon381-1-1"
         style="fill:#3f3d56;fill-opacity:1" /><polygon
         points="539.894,570.125 618.849,561.615 619.956,454.468 538.142,456.33 "
         fill="#e4e4e4"
         id="polygon382-1-6"
         style="fill:#a5a5a5;fill-opacity:1" /></g></g></svg>
