<?xml version="1.0" encoding="UTF-8" standalone="no"?>
<!-- Created with Inkscape (http://www.inkscape.org/) -->

<svg
   width="197.414"
   height="232.25102"
   viewBox="0 0 52.232454 61.449749"
   version="1.1"
   id="svg1"
   xml:space="preserve"
   xmlns="http://www.w3.org/2000/svg"
   xmlns:svg="http://www.w3.org/2000/svg"><defs
     id="defs1" /><g
     id="g1"
     transform="matrix(0.26458333,0,0,0.26458335,-4972.2608,-2435.0746)"><path
       d="m 18897.311,9435.6818 -2.904,-34.8377 h -2.903 q -41.225,0 -69.966,-28.7409 -28.741,-28.7412 -28.741,-69.9657 0,-41.2245 28.741,-69.9655 28.741,-28.7412 69.966,-28.7412 20.613,0 38.462,7.6936 17.858,7.6932 31.353,21.1927 13.504,13.4996 21.192,31.354 7.7,17.8541 7.7,38.4664 0,21.7736 -7.12,41.8052 -7.106,20.0316 -19.451,37.1602 -12.33,17.1284 -29.32,31.0634 -16.978,13.9351 -37.009,23.5155 z m 23.225,-42.3859 q 20.613,-17.4187 33.526,-40.7889 12.924,-23.3704 12.924,-50.3695 0,-31.6442 -21.926,-53.5628 -21.912,-21.9187 -53.556,-21.9187 -31.644,0 -53.568,21.9187 -21.914,21.9186 -21.914,53.5628 0,31.6441 21.914,53.5628 21.924,21.9187 53.568,21.9187 h 29.032 z m -29.323,-27.5798 q 4.936,0 8.419,-3.4836 3.483,-3.4839 3.483,-8.4191 0,-4.9353 -3.483,-8.4192 -3.483,-3.4837 -8.419,-3.4837 -4.934,0 -8.419,3.4837 -3.483,3.4839 -3.483,8.4192 0,4.9352 3.483,8.4191 3.485,3.4836 8.419,3.4836 z m -8.419,-36.8696 h 17.42 q 0,-8.7096 1.742,-12.1933 1.741,-3.4838 11.032,-12.7739 5.224,-5.2255 8.707,-11.3222 3.486,-6.0965 3.486,-13.064 0,-14.8059 -10.021,-22.2091 -10.012,-7.4029 -23.656,-7.4029 -12.773,0 -21.484,7.1126 -8.707,7.1128 -12.193,17.2736 l 16.259,6.3871 q 1.45,-4.9353 5.516,-9.7257 4.062,-4.79 11.902,-4.79 7.84,0 11.751,4.3546 3.926,4.3547 3.926,9.5804 0,4.9354 -2.904,8.8547 -2.903,3.919 -6.966,7.9836 -10.161,8.7094 -12.345,13.7898 -2.172,5.0804 -2.172,18.1447 z m 8.71,-18.8704 z"
       id="path1-7-1-5"
       style="fill:#5f6368;stroke-width:0.290313" /></g></svg>
