<?xml version="1.0" encoding="UTF-8" standalone="no"?>
<!-- Created with Inkscape (http://www.inkscape.org/) -->

<svg
   width="511.99997"
   height="511.64645"
   viewBox="0 0 135.46666 135.37312"
   version="1.1"
   id="svg1"
   xml:space="preserve"
   inkscape:version="1.3.2 (091e20e, 2023-11-25, custom)"
   sodipodi:docname="DIVA.svg"
   xmlns:inkscape="http://www.inkscape.org/namespaces/inkscape"
   xmlns:sodipodi="http://sodipodi.sourceforge.net/DTD/sodipodi-0.dtd"
   xmlns="http://www.w3.org/2000/svg"
   xmlns:svg="http://www.w3.org/2000/svg"><sodipodi:namedview
     id="namedview1"
     pagecolor="#ffffff"
     bordercolor="#000000"
     borderopacity="0.25"
     inkscape:showpageshadow="2"
     inkscape:pageopacity="0.0"
     inkscape:pagecheckerboard="0"
     inkscape:deskcolor="#d1d1d1"
     inkscape:document-units="px"
     inkscape:zoom="1.3249068"
     inkscape:cx="58761.869"
     inkscape:cy="19781.391"
     inkscape:window-width="1920"
     inkscape:window-height="1046"
     inkscape:window-x="-11"
     inkscape:window-y="-11"
     inkscape:window-maximized="1"
     inkscape:current-layer="g1"
     showguides="true"
     showgrid="true"><sodipodi:guide
       position="-14368.06,5491.9364"
       orientation="1,0"
       id="guide10"
       inkscape:locked="false" /><sodipodi:guide
       position="-14334.652,5529.8946"
       orientation="1,0"
       id="guide11"
       inkscape:locked="false" /><sodipodi:guide
       position="-14401.762,5537.905"
       orientation="1,0"
       id="guide12"
       inkscape:locked="false" /><sodipodi:guide
       position="-13625.632,5039.0209"
       orientation="0,-1"
       id="guide18"
       inkscape:locked="false" /><sodipodi:guide
       position="-13625.632,4770.1467"
       orientation="0,-1"
       id="guide19"
       inkscape:locked="false" /><sodipodi:guide
       position="-13903.724,4826.6331"
       orientation="1,0"
       id="guide20"
       inkscape:locked="false" /><sodipodi:guide
       position="-13625.632,4928.9785"
       orientation="1,0"
       id="guide21"
       inkscape:locked="false" /><inkscape:grid
       id="grid52"
       units="px"
       originx="-15217.944"
       originy="-4710.5916"
       spacingx="0.26458333"
       spacingy="0.26458333"
       empcolor="#0099e5"
       empopacity="0.30196078"
       color="#0099e5"
       opacity="0.14901961"
       empspacing="8"
       dotted="false"
       gridanglex="30"
       gridanglez="30"
       visible="true" /><sodipodi:guide
       position="-985.61091,1566.1954"
       orientation="1,0"
       id="guide52"
       inkscape:locked="false" /><sodipodi:guide
       position="-903.06091,1548.9975"
       orientation="1,0"
       id="guide53"
       inkscape:locked="false" /><sodipodi:guide
       position="-903.59891,1563.8142"
       orientation="0,-1"
       id="guide54"
       inkscape:locked="false" /><sodipodi:guide
       position="-875.54391,1557.4642"
       orientation="1,0"
       id="guide56"
       inkscape:locked="false" /><sodipodi:guide
       position="-792.99391,1555.3475"
       orientation="1,0"
       id="guide57"
       inkscape:locked="false" /><sodipodi:guide
       position="-657.5279,1559.5808"
       orientation="1,0"
       id="guide61"
       inkscape:locked="false" /><sodipodi:guide
       position="-574.9779,1557.4642"
       orientation="1,0"
       id="guide62"
       inkscape:locked="false" /><sodipodi:guide
       position="-547.4609,1559.5808"
       orientation="1,0"
       id="guide63"
       inkscape:locked="false" /><sodipodi:guide
       position="-464.9109,1563.8142"
       orientation="1,0"
       id="guide64"
       inkscape:locked="false" /><sodipodi:guide
       position="-439.5109,1563.8142"
       orientation="1,0"
       id="guide65"
       inkscape:locked="false" /><sodipodi:guide
       position="-356.9609,1563.8142"
       orientation="1,0"
       id="guide66"
       inkscape:locked="false" /><sodipodi:guide
       position="-767.59391,1563.8142"
       orientation="1,0"
       id="guide67"
       inkscape:locked="false" /><sodipodi:guide
       position="-685.0439,1563.8142"
       orientation="1,0"
       id="guide68"
       inkscape:locked="false" /><inkscape:page
       x="-0.00033562523"
       y="0.00011725145"
       width="135.46666"
       height="135.37312"
       id="page3"
       margin="0"
       bleed="0" /></sodipodi:namedview><defs
     id="defs1" /><g
     id="g1"
     inkscape:groupmode="layer"
     inkscape:label="1"
     transform="matrix(0.26458333,0,0,0.26458335,-15394.794,-5271.8515)"><path
       style="fill:#000000"
       d="m 58346.552,20435.394 c -29.814,-5.634 -54.005,-27.365 -62.059,-55.747 l -1.916,-6.75 h -48.762 -48.763 v -16 -16 h 48.828 48.829 l 1.209,-5.25 c 1.859,-8.068 8.496,-20.839 15.09,-29.035 9.762,-12.135 22.397,-20.747 38.036,-25.924 8.804,-2.915 10.544,-3.151 23.508,-3.188 14.494,-0.04 17.576,0.482 29.764,5.048 22.273,8.345 42.068,30.337 47.794,53.099 l 1.32,5.25 h 128.811 128.811 v 16 16 l -128.75,0.02 -128.75,0.01 -2.706,8.735 c -8.746,28.232 -33.724,49.451 -63.794,54.195 -8.495,1.339 -17.822,1.177 -26.5,-0.463 z m 221.248,-160.418 c -27.194,-5.936 -50.416,-27.084 -58.542,-53.314 l -2.706,-8.735 -160.75,-0.01 -160.75,-0.02 v -16 -16 h 160.889 160.889 l 0.692,-3.693 c 1.165,-6.207 5.568,-16.108 10.573,-23.776 10.863,-16.64 27.584,-28.788 47.015,-34.157 9.215,-2.546 31.007,-2.511 39.942,0.06 28.248,8.14 50.453,30.054 57.058,56.312 l 1.32,5.25 h 16.811 16.811 v 16 16 h -16.792 -16.793 l -1.159,4.332 c -7.469,27.927 -29.42,49.822 -57.256,57.11 -10.119,2.649 -26.733,2.934 -37.252,0.637 z m -157.748,-191.515 c -29.372,-6.23 -52.289,-26.514 -60.781,-53.799 l -2.719,-8.735 -80.75,-0.01 -80.75,-0.02 v -16 -16 h 80.828 80.829 l 1.209,-5.25 c 1.867,-8.102 8.506,-20.85 15.177,-29.143 25.342,-31.502 71.447,-38.746 105.426,-16.564 16.324,10.657 29.168,28.135 33.589,45.707 l 1.32,5.25 h 96.811 96.811 v 16 16 h -96.811 -96.811 l -1.32,5.25 c -6.607,26.265 -29.73,49.037 -57.058,56.192 -8.797,2.303 -26.721,2.878 -35,1.122 z"
       id="path791" /></g></svg>
