<?xml version="1.0" encoding="UTF-8" standalone="no"?>
<!-- Created with Inkscape (http://www.inkscape.org/) -->

<svg
   width="94.123047"
   height="94.12207"
   viewBox="0 0 24.903389 24.903131"
   version="1.1"
   id="svg1"
   xml:space="preserve"
   inkscape:version="1.3.2 (091e20e, 2023-11-25, custom)"
   sodipodi:docname="test.svg"
   xmlns:inkscape="http://www.inkscape.org/namespaces/inkscape"
   xmlns:sodipodi="http://sodipodi.sourceforge.net/DTD/sodipodi-0.dtd"
   xmlns="http://www.w3.org/2000/svg"
   xmlns:svg="http://www.w3.org/2000/svg"><sodipodi:namedview
     id="namedview1"
     pagecolor="#ffffff"
     bordercolor="#000000"
     borderopacity="0.25"
     inkscape:showpageshadow="2"
     inkscape:pageopacity="0.0"
     inkscape:pagecheckerboard="0"
     inkscape:deskcolor="#d1d1d1"
     inkscape:document-units="px"
     inkscape:zoom="1.0240421"
     inkscape:cx="18289.287"
     inkscape:cy="12124.99"
     inkscape:window-width="1920"
     inkscape:window-height="1046"
     inkscape:window-x="-11"
     inkscape:window-y="-11"
     inkscape:window-maximized="1"
     inkscape:current-layer="g1"
     showguides="true"
     showgrid="false"><sodipodi:guide
       position="-3683.4298,3444.597"
       orientation="1,0"
       id="guide10"
       inkscape:locked="false" /><sodipodi:guide
       position="-3650.0216,3482.5552"
       orientation="1,0"
       id="guide11"
       inkscape:locked="false" /><sodipodi:guide
       position="-3717.1315,3490.5657"
       orientation="1,0"
       id="guide12"
       inkscape:locked="false" /><sodipodi:guide
       position="-2941.002,2991.6815"
       orientation="0,-1"
       id="guide18"
       inkscape:locked="false" /><sodipodi:guide
       position="-2941.002,2722.8074"
       orientation="0,-1"
       id="guide19"
       inkscape:locked="false" /><sodipodi:guide
       position="-3219.0936,2779.2937"
       orientation="1,0"
       id="guide20"
       inkscape:locked="false" /><sodipodi:guide
       position="-2941.0021,2881.6391"
       orientation="1,0"
       id="guide21"
       inkscape:locked="false" /><inkscape:grid
       id="grid52"
       units="px"
       originx="-4533.3131"
       originy="-2663.2524"
       spacingx="0.26458333"
       spacingy="0.26458333"
       empcolor="#0099e5"
       empopacity="0.30196078"
       color="#0099e5"
       opacity="0.14901961"
       empspacing="8"
       dotted="false"
       gridanglex="30"
       gridanglez="30"
       visible="false" /><sodipodi:guide
       position="9699.0195,-481.14396"
       orientation="1,0"
       id="guide52"
       inkscape:locked="false" /><sodipodi:guide
       position="9781.5695,-498.34186"
       orientation="1,0"
       id="guide53"
       inkscape:locked="false" /><sodipodi:guide
       position="9781.0315,-483.52516"
       orientation="0,-1"
       id="guide54"
       inkscape:locked="false" /><sodipodi:guide
       position="9809.0865,-489.87516"
       orientation="1,0"
       id="guide56"
       inkscape:locked="false" /><sodipodi:guide
       position="9891.6365,-491.99186"
       orientation="1,0"
       id="guide57"
       inkscape:locked="false" /><sodipodi:guide
       position="10027.102,-487.75856"
       orientation="1,0"
       id="guide61"
       inkscape:locked="false" /><sodipodi:guide
       position="10109.652,-489.87516"
       orientation="1,0"
       id="guide62"
       inkscape:locked="false" /><sodipodi:guide
       position="10137.169,-487.75856"
       orientation="1,0"
       id="guide63"
       inkscape:locked="false" /><sodipodi:guide
       position="10219.719,-483.52516"
       orientation="1,0"
       id="guide64"
       inkscape:locked="false" /><sodipodi:guide
       position="10245.119,-483.52516"
       orientation="1,0"
       id="guide65"
       inkscape:locked="false" /><sodipodi:guide
       position="10327.669,-483.52516"
       orientation="1,0"
       id="guide66"
       inkscape:locked="false" /><sodipodi:guide
       position="9917.0365,-483.52516"
       orientation="1,0"
       id="guide67"
       inkscape:locked="false" /><sodipodi:guide
       position="9999.5865,-483.52516"
       orientation="1,0"
       id="guide68"
       inkscape:locked="false" /><inkscape:page
       x="3.8120677e-05"
       y="-1.6107364e-05"
       width="24.903389"
       height="24.903131"
       id="page3"
       margin="0"
       bleed="0" /></sodipodi:namedview><defs
     id="defs1" /><g
     id="g1"
     inkscape:groupmode="layer"
     inkscape:label="1"
     transform="matrix(0.26458333,0,0,0.26458335,-4710.1636,-3224.5122)"><path
       d="m 17849.255,12234.193 q -9.706,0 -16.619,-6.912 -6.912,-6.912 -6.912,-16.619 0,-9.705 6.912,-16.618 6.913,-6.912 16.619,-6.912 9.706,0 16.619,6.912 6.912,6.913 6.912,16.618 0,9.707 -6.912,16.619 -6.913,6.912 -16.619,6.912 z m -47.061,35.296 v -4.707 q 0,-5 2.571,-9.188 2.576,-4.195 6.841,-6.4 9.118,-4.56 18.53,-6.836 9.413,-2.282 19.119,-2.282 9.706,0 19.119,2.282 9.412,2.276 18.53,6.836 4.265,2.205 6.835,6.4 2.577,4.188 2.577,9.188 v 4.707 q 0,4.853 -3.459,8.312 -3.453,3.453 -8.306,3.453 h -70.592 q -4.853,0 -8.306,-3.453 -3.459,-3.459 -3.459,-8.312 z m 11.765,0 h 70.592 v -4.707 q 0,-1.617 -0.812,-2.94 -0.806,-1.324 -2.13,-2.06 -7.941,-3.97 -16.03,-5.958 -8.088,-1.983 -16.324,-1.983 -8.236,0 -16.324,1.983 -8.089,1.988 -16.03,5.958 -1.324,0.736 -2.135,2.06 -0.807,1.323 -0.807,2.94 z m 35.296,-47.061 q 4.853,0 8.306,-3.453 3.459,-3.459 3.459,-8.313 0,-4.853 -3.459,-8.311 -3.453,-3.454 -8.306,-3.454 -4.853,0 -8.306,3.454 -3.459,3.458 -3.459,8.311 0,4.854 3.459,8.313 3.453,3.453 8.306,3.453 z m 0,-11.766 z m 0,58.827 z"
       id="path811-8"
       style="fill:#5f6368;stroke-width:0.147065" /></g></svg>
