<?xml version="1.0" encoding="UTF-8" standalone="no"?>
<!-- Created with Inkscape (http://www.inkscape.org/) -->

<svg
   width="94.070663"
   height="94.069801"
   viewBox="0 0 24.889529 24.889301"
   version="1.1"
   id="svg1"
   xml:space="preserve"
   inkscape:version="1.3.2 (091e20e, 2023-11-25, custom)"
   sodipodi:docname="test.svg"
   xmlns:inkscape="http://www.inkscape.org/namespaces/inkscape"
   xmlns:sodipodi="http://sodipodi.sourceforge.net/DTD/sodipodi-0.dtd"
   xmlns="http://www.w3.org/2000/svg"
   xmlns:svg="http://www.w3.org/2000/svg"><sodipodi:namedview
     id="namedview1"
     pagecolor="#ffffff"
     bordercolor="#000000"
     borderopacity="0.25"
     inkscape:showpageshadow="2"
     inkscape:pageopacity="0.0"
     inkscape:pagecheckerboard="0"
     inkscape:deskcolor="#d1d1d1"
     inkscape:document-units="px"
     inkscape:zoom="2.8964285"
     inkscape:cx="19488.139"
     inkscape:cy="9435.5861"
     inkscape:window-width="1920"
     inkscape:window-height="1046"
     inkscape:window-x="-11"
     inkscape:window-y="-11"
     inkscape:window-maximized="1"
     inkscape:current-layer="g1"
     showguides="true"
     showgrid="true"><sodipodi:guide
       position="-3931.7393,2736.4013"
       orientation="1,0"
       id="guide10"
       inkscape:locked="false" /><sodipodi:guide
       position="-3898.3311,2774.3595"
       orientation="1,0"
       id="guide11"
       inkscape:locked="false" /><sodipodi:guide
       position="-3965.441,2782.3699"
       orientation="1,0"
       id="guide12"
       inkscape:locked="false" /><sodipodi:guide
       position="-3189.3115,2283.4858"
       orientation="0,-1"
       id="guide18"
       inkscape:locked="false" /><sodipodi:guide
       position="-3189.3115,2014.6116"
       orientation="0,-1"
       id="guide19"
       inkscape:locked="false" /><sodipodi:guide
       position="-3467.4031,2071.098"
       orientation="1,0"
       id="guide20"
       inkscape:locked="false" /><sodipodi:guide
       position="-3189.3116,2173.4434"
       orientation="1,0"
       id="guide21"
       inkscape:locked="false" /><inkscape:grid
       id="grid52"
       units="px"
       originx="-4781.6226"
       originy="-1955.0566"
       spacingx="0.26458333"
       spacingy="0.26458333"
       empcolor="#0099e5"
       empopacity="0.30196078"
       color="#0099e5"
       opacity="0.14901961"
       empspacing="8"
       dotted="false"
       gridanglex="30"
       gridanglez="30"
       visible="true" /><sodipodi:guide
       position="9450.7099,-1189.3397"
       orientation="1,0"
       id="guide52"
       inkscape:locked="false" /><sodipodi:guide
       position="9533.2599,-1206.5376"
       orientation="1,0"
       id="guide53"
       inkscape:locked="false" /><sodipodi:guide
       position="9532.7219,-1191.7209"
       orientation="0,-1"
       id="guide54"
       inkscape:locked="false" /><sodipodi:guide
       position="9560.7769,-1198.0709"
       orientation="1,0"
       id="guide56"
       inkscape:locked="false" /><sodipodi:guide
       position="9643.327,-1200.1876"
       orientation="1,0"
       id="guide57"
       inkscape:locked="false" /><sodipodi:guide
       position="9778.793,-1195.9543"
       orientation="1,0"
       id="guide61"
       inkscape:locked="false" /><sodipodi:guide
       position="9861.343,-1198.0709"
       orientation="1,0"
       id="guide62"
       inkscape:locked="false" /><sodipodi:guide
       position="9888.86,-1195.9543"
       orientation="1,0"
       id="guide63"
       inkscape:locked="false" /><sodipodi:guide
       position="9971.41,-1191.7209"
       orientation="1,0"
       id="guide64"
       inkscape:locked="false" /><sodipodi:guide
       position="9996.81,-1191.7209"
       orientation="1,0"
       id="guide65"
       inkscape:locked="false" /><sodipodi:guide
       position="10079.36,-1191.7209"
       orientation="1,0"
       id="guide66"
       inkscape:locked="false" /><sodipodi:guide
       position="9668.727,-1191.7209"
       orientation="1,0"
       id="guide67"
       inkscape:locked="false" /><sodipodi:guide
       position="9751.277,-1191.7209"
       orientation="1,0"
       id="guide68"
       inkscape:locked="false" /><sodipodi:guide
       position="-519.01039,321.14803"
       orientation="0,-1"
       id="guide274"
       inkscape:locked="false" /></sodipodi:namedview><defs
     id="defs1" /><g
     id="g1"
     inkscape:groupmode="layer"
     inkscape:label="1"
     transform="matrix(0.26458333,0,0,0.26458335,-4958.4731,-2516.3165)"><g
       id="g105"
       transform="matrix(1.7369671,0,0,1.7369671,-13742.572,-6891.9338)"><path
         style="fill:#ed4980;fill-opacity:1;stroke-width:0.084621"
         d="M 18728.215,9490.5262 Z"
         id="path105" /><path
         style="fill:#ed4980;fill-opacity:1;stroke-width:0.084621"
         d="M 18728.215,9456.6778 Z"
         id="path104" /><path
         style="fill:#ed4980;fill-opacity:1;stroke-width:0.084621"
         d="m 18728.215,9463.4475 q 2.792,0 4.779,-1.9886 1.99,-1.9886 1.99,-4.7811 0,-2.7925 -1.99,-4.7811 -1.987,-1.9886 -4.779,-1.9886 -2.793,0 -4.783,1.9886 -1.987,1.9886 -1.987,4.7811 0,2.7925 1.987,4.7811 1.99,1.9886 4.783,1.9886 z"
         id="path103" /><path
         style="fill:#ed4980;fill-opacity:1;stroke-width:0.084621"
         d="m 18707.906,9490.5262 h 40.618 v -2.7079 q 0,-0.9308 -0.467,-1.6924 -0.464,-0.7616 -1.226,-1.1847 -4.569,-2.2847 -9.223,-3.4271 -4.654,-1.1424 -9.393,-1.1424 -4.739,0 -9.393,1.1424 -4.654,1.1424 -9.224,3.4271 -0.761,0.4231 -1.229,1.1847 -0.463,0.7616 -0.463,1.6924 z"
         id="path102" /><path
         style="fill:#ed4980;fill-opacity:1;stroke-width:0.084621"
         d="m 18701.136,9490.5262 v -2.7079 q 0,-2.8771 1.479,-5.2888 1.483,-2.4117 3.937,-3.681 5.246,-2.6232 10.662,-3.9349 5.416,-1.3116 11.001,-1.3116 5.585,0 11.001,1.3116 5.415,1.3117 10.662,3.9349 2.454,1.2693 3.933,3.681 1.483,2.4117 1.483,5.2888 v 2.7079 q 0,2.7925 -1.991,4.7811 -1.987,1.9886 -4.779,1.9886 h -40.618 q -2.793,0 -4.783,-1.9886 -1.987,-1.9886 -1.987,-4.7811 z"
         id="path96" /><path
         style="fill:#ed4980;fill-opacity:1;stroke-width:0.084621"
         d="m 18728.215,9470.2172 q -5.585,0 -9.562,-3.9772 -3.978,-3.9772 -3.978,-9.5622 0,-5.585 3.978,-9.5622 3.977,-3.9772 9.562,-3.9772 5.585,0 9.562,3.9772 3.977,3.9772 3.977,9.5622 0,5.585 -3.977,9.5622 -3.977,3.9772 -9.562,3.9772 z"
         id="path95" /></g></g></svg>
