<?xml version="1.0" encoding="UTF-8" standalone="no"?>
<!-- Created with Inkscape (http://www.inkscape.org/) -->

<svg
   width="178.92188"
   height="188.5"
   viewBox="0 0 47.339746 49.873958"
   version="1.1"
   id="svg1"
   xml:space="preserve"
   inkscape:version="1.3.2 (091e20e, 2023-11-25, custom)"
   sodipodi:docname="DIVA.svg"
   xmlns:inkscape="http://www.inkscape.org/namespaces/inkscape"
   xmlns:sodipodi="http://sodipodi.sourceforge.net/DTD/sodipodi-0.dtd"
   xmlns="http://www.w3.org/2000/svg"
   xmlns:svg="http://www.w3.org/2000/svg"><sodipodi:namedview
     id="namedview1"
     pagecolor="#ffffff"
     bordercolor="#000000"
     borderopacity="0.25"
     inkscape:showpageshadow="2"
     inkscape:pageopacity="0.0"
     inkscape:pagecheckerboard="0"
     inkscape:deskcolor="#d1d1d1"
     inkscape:document-units="px"
     inkscape:zoom="1.3249068"
     inkscape:cx="58761.869"
     inkscape:cy="19781.391"
     inkscape:window-width="1920"
     inkscape:window-height="1046"
     inkscape:window-x="-11"
     inkscape:window-y="-11"
     inkscape:window-maximized="1"
     inkscape:current-layer="g1"
     showguides="true"
     showgrid="true"><sodipodi:guide
       position="-14375.457,5577.9334"
       orientation="1,0"
       id="guide10"
       inkscape:locked="false" /><sodipodi:guide
       position="-14342.048,5615.8916"
       orientation="1,0"
       id="guide11"
       inkscape:locked="false" /><sodipodi:guide
       position="-14409.158,5623.9021"
       orientation="1,0"
       id="guide12"
       inkscape:locked="false" /><sodipodi:guide
       position="-13633.029,5125.0179"
       orientation="0,-1"
       id="guide18"
       inkscape:locked="false" /><sodipodi:guide
       position="-13633.029,4856.1438"
       orientation="0,-1"
       id="guide19"
       inkscape:locked="false" /><sodipodi:guide
       position="-13911.12,4912.6302"
       orientation="1,0"
       id="guide20"
       inkscape:locked="false" /><sodipodi:guide
       position="-13633.029,5014.9755"
       orientation="1,0"
       id="guide21"
       inkscape:locked="false" /><inkscape:grid
       id="grid52"
       units="px"
       originx="-15225.34"
       originy="-4796.5888"
       spacingx="0.26458333"
       spacingy="0.26458333"
       empcolor="#0099e5"
       empopacity="0.30196078"
       color="#0099e5"
       opacity="0.14901961"
       empspacing="8"
       dotted="false"
       gridanglex="30"
       gridanglez="30"
       visible="true" /><sodipodi:guide
       position="-993.00739,1652.1925"
       orientation="1,0"
       id="guide52"
       inkscape:locked="false" /><sodipodi:guide
       position="-910.45739,1634.9946"
       orientation="1,0"
       id="guide53"
       inkscape:locked="false" /><sodipodi:guide
       position="-910.99539,1649.8113"
       orientation="0,-1"
       id="guide54"
       inkscape:locked="false" /><sodipodi:guide
       position="-882.94039,1643.4613"
       orientation="1,0"
       id="guide56"
       inkscape:locked="false" /><sodipodi:guide
       position="-800.39039,1641.3446"
       orientation="1,0"
       id="guide57"
       inkscape:locked="false" /><sodipodi:guide
       position="-664.92439,1645.5779"
       orientation="1,0"
       id="guide61"
       inkscape:locked="false" /><sodipodi:guide
       position="-582.37439,1643.4613"
       orientation="1,0"
       id="guide62"
       inkscape:locked="false" /><sodipodi:guide
       position="-554.85739,1645.5779"
       orientation="1,0"
       id="guide63"
       inkscape:locked="false" /><sodipodi:guide
       position="-472.30739,1649.8113"
       orientation="1,0"
       id="guide64"
       inkscape:locked="false" /><sodipodi:guide
       position="-446.90739,1649.8113"
       orientation="1,0"
       id="guide65"
       inkscape:locked="false" /><sodipodi:guide
       position="-364.35739,1649.8113"
       orientation="1,0"
       id="guide66"
       inkscape:locked="false" /><sodipodi:guide
       position="-774.99039,1649.8113"
       orientation="1,0"
       id="guide67"
       inkscape:locked="false" /><sodipodi:guide
       position="-692.44039,1649.8113"
       orientation="1,0"
       id="guide68"
       inkscape:locked="false" /><inkscape:page
       x="-0.00014522421"
       y="-1.3225868e-05"
       width="47.339745"
       height="49.873959"
       id="page3"
       margin="0"
       bleed="0" /></sodipodi:namedview><defs
     id="defs1" /><g
     id="g1"
     inkscape:groupmode="layer"
     inkscape:label="1"
     transform="matrix(0.26458333,0,0,0.26458335,-15402.19,-5357.8486)"><path
       style="fill:#000000"
       d="m 58213.889,20437.117 c -1.945,-2.343 -0.55,-11.683 2.806,-18.791 5.516,-11.682 15.512,-18.768 40.363,-28.612 10.188,-4.036 18.847,-9.742 18.847,-12.419 0,-0.739 -4.143,-1.829 -10.992,-2.891 -21.297,-3.304 -28.653,-9.342 -23.099,-18.961 2.33,-4.036 3.655,-10.725 5.109,-25.807 2.399,-24.883 5.992,-41.122 11.518,-52.059 8.345,-16.515 24.552,-26.678 43.42,-27.227 l 7.362,-0.214 2.654,4.5 c 2.541,4.308 2.895,4.526 8.303,5.114 14.377,1.562 26.489,9.872 32.659,22.404 4.792,9.733 6.897,21.802 8.023,45.982 0.938,20.152 2.005,27.74 4.08,29.023 1.894,1.171 0.931,5.662 -1.8,8.393 -3.625,3.625 -12.082,6.709 -24.048,8.77 -5.329,0.917 -9.863,1.799 -10.075,1.96 -0.919,0.696 3.084,5.313 6.364,7.34 1.969,1.217 10.268,5.019 18.443,8.449 17.41,7.304 26.323,13.212 31.345,20.779 5.637,8.493 8.575,21.545 5.534,24.586 -0.915,0.915 -21.906,1.2 -88.378,1.2 -76.748,0 -87.328,-0.182 -88.438,-1.519 z m 168.006,-9.231 c -0.02,-3.644 -4.886,-12.006 -9.104,-15.647 -2.413,-2.081 -7.311,-5.244 -10.886,-7.027 -7.713,-3.846 -17.941,-7.993 -18.392,-7.457 -0.175,0.21 -0.722,4.414 -1.214,9.342 l -0.894,8.961 -8.5,2.699 c -24.135,7.662 -36.911,7.661 -60.99,0 -8.49,-2.703 -8.49,-2.703 -9.193,-6.66 -0.386,-2.176 -0.728,-6.32 -0.76,-9.207 -0.03,-2.888 -0.289,-5.25 -0.572,-5.25 -0.283,0 -4.374,1.556 -9.091,3.458 -15.732,6.344 -23.267,11.926 -27.043,20.035 -4.396,9.44 -12.857,8.507 77.149,8.507 75.051,0 79.499,-0.1 79.49,-1.75 z m -89.99,-13.744 c 0,-0.272 -3.685,-5.56 -8.188,-11.75 -4.504,-6.191 -8.285,-11.4 -8.403,-11.575 -0.118,-0.176 -1.158,0.27 -2.312,0.99 -1.855,1.159 -2.097,2.265 -2.097,9.57 0,4.542 0.337,8.276 0.75,8.298 0.412,0.02 4.35,1.122 8.75,2.446 7.847,2.362 11.5,3.004 11.5,2.021 z m 34.75,-2.661 7.25,-2.136 v -8.32 c 0,-7.183 -0.263,-8.459 -1.922,-9.347 -1.693,-0.906 -2.864,0.252 -9.819,9.715 -10.609,14.435 -10.252,13.688 -6.165,12.89 1.873,-0.367 6.668,-1.627 10.656,-2.802 z m -13.666,-12.508 10.131,-13.662 -1.608,-3.372 c -1.771,-3.715 -2.17,-11.837 -0.628,-12.79 0.539,-0.333 5.377,-1.262 10.75,-2.063 9.814,-1.464 21.713,-4.758 23.994,-6.641 0.962,-0.794 0.937,-1.578 -0.116,-3.66 -2.042,-4.037 -2.507,-7.935 -3.6,-30.149 -1.134,-23.075 -2.629,-31.719 -7.038,-40.697 -5.304,-10.802 -14.06,-16.612 -26.952,-17.885 -9.108,-0.899 -9.58,-1.121 -11.524,-5.433 l -1.83,-4.057 -4.581,0.627 c -11.603,1.589 -19.994,5.291 -25.985,11.464 -4.919,5.069 -10.418,15.554 -12.951,24.695 -1.843,6.651 -2.662,12.17 -6.621,44.638 -0.931,7.634 -2.221,13.455 -3.625,16.355 -1.811,3.74 -1.945,4.653 -0.79,5.394 2.301,1.476 7.871,2.86 17.89,4.444 17.521,2.77 16.457,2.285 16.802,7.653 0.188,2.912 -0.311,5.885 -1.312,7.822 -1.027,1.985 -1.281,3.553 -0.697,4.302 0.506,0.648 5.058,6.915 10.118,13.928 5.059,7.012 9.388,12.75 9.62,12.75 0.232,0 4.981,-6.148 10.553,-13.663 z"
       id="path789" /></g></svg>
