<?xml version="1.0" encoding="UTF-8" standalone="no"?>
<!-- Created with Inkscape (http://www.inkscape.org/) -->

<svg
   width="120.01206"
   height="119.01162"
   viewBox="0 0 31.753191 31.488491"
   version="1.1"
   id="svg1"
   xml:space="preserve"
   inkscape:version="1.3.2 (091e20e, 2023-11-25, custom)"
   sodipodi:docname="test.svg"
   xmlns:inkscape="http://www.inkscape.org/namespaces/inkscape"
   xmlns:sodipodi="http://sodipodi.sourceforge.net/DTD/sodipodi-0.dtd"
   xmlns="http://www.w3.org/2000/svg"
   xmlns:svg="http://www.w3.org/2000/svg"><sodipodi:namedview
     id="namedview1"
     pagecolor="#ffffff"
     bordercolor="#000000"
     borderopacity="0.25"
     inkscape:showpageshadow="2"
     inkscape:pageopacity="0.0"
     inkscape:pagecheckerboard="0"
     inkscape:deskcolor="#d1d1d1"
     inkscape:document-units="px"
     inkscape:zoom="2.8964285"
     inkscape:cx="19488.139"
     inkscape:cy="9435.5861"
     inkscape:window-width="1920"
     inkscape:window-height="1046"
     inkscape:window-x="-11"
     inkscape:window-y="-11"
     inkscape:window-maximized="1"
     inkscape:current-layer="g1"
     showguides="true"
     showgrid="true"><sodipodi:guide
       position="-3843.8955,2685.7258"
       orientation="1,0"
       id="guide10"
       inkscape:locked="false" /><sodipodi:guide
       position="-3810.4873,2723.684"
       orientation="1,0"
       id="guide11"
       inkscape:locked="false" /><sodipodi:guide
       position="-3877.5972,2731.6944"
       orientation="1,0"
       id="guide12"
       inkscape:locked="false" /><sodipodi:guide
       position="-3101.4677,2232.8102"
       orientation="0,-1"
       id="guide18"
       inkscape:locked="false" /><sodipodi:guide
       position="-3101.4677,1963.9361"
       orientation="0,-1"
       id="guide19"
       inkscape:locked="false" /><sodipodi:guide
       position="-3379.5593,2020.4225"
       orientation="1,0"
       id="guide20"
       inkscape:locked="false" /><sodipodi:guide
       position="-3101.4678,2122.7679"
       orientation="1,0"
       id="guide21"
       inkscape:locked="false" /><inkscape:grid
       id="grid52"
       units="px"
       originx="-4693.7789"
       originy="-1904.3811"
       spacingx="0.26458333"
       spacingy="0.26458333"
       empcolor="#0099e5"
       empopacity="0.30196078"
       color="#0099e5"
       opacity="0.14901961"
       empspacing="8"
       dotted="false"
       gridanglex="30"
       gridanglez="30"
       visible="true" /><sodipodi:guide
       position="9538.5537,-1240.0152"
       orientation="1,0"
       id="guide52"
       inkscape:locked="false" /><sodipodi:guide
       position="9621.1037,-1257.2131"
       orientation="1,0"
       id="guide53"
       inkscape:locked="false" /><sodipodi:guide
       position="9620.5657,-1242.3964"
       orientation="0,-1"
       id="guide54"
       inkscape:locked="false" /><sodipodi:guide
       position="9648.6207,-1248.7464"
       orientation="1,0"
       id="guide56"
       inkscape:locked="false" /><sodipodi:guide
       position="9731.1707,-1250.8631"
       orientation="1,0"
       id="guide57"
       inkscape:locked="false" /><sodipodi:guide
       position="9866.6367,-1246.6298"
       orientation="1,0"
       id="guide61"
       inkscape:locked="false" /><sodipodi:guide
       position="9949.1867,-1248.7464"
       orientation="1,0"
       id="guide62"
       inkscape:locked="false" /><sodipodi:guide
       position="9976.7037,-1246.6298"
       orientation="1,0"
       id="guide63"
       inkscape:locked="false" /><sodipodi:guide
       position="10059.254,-1242.3964"
       orientation="1,0"
       id="guide64"
       inkscape:locked="false" /><sodipodi:guide
       position="10084.654,-1242.3964"
       orientation="1,0"
       id="guide65"
       inkscape:locked="false" /><sodipodi:guide
       position="10167.204,-1242.3964"
       orientation="1,0"
       id="guide66"
       inkscape:locked="false" /><sodipodi:guide
       position="9756.5707,-1242.3964"
       orientation="1,0"
       id="guide67"
       inkscape:locked="false" /><sodipodi:guide
       position="9839.1207,-1242.3964"
       orientation="1,0"
       id="guide68"
       inkscape:locked="false" /><sodipodi:guide
       position="-431.16661,270.47248"
       orientation="0,-1"
       id="guide274"
       inkscape:locked="false" /></sodipodi:namedview><defs
     id="defs1" /><g
     id="g1"
     inkscape:groupmode="layer"
     inkscape:label="1"
     transform="matrix(0.26458333,0,0,0.26458335,-4870.6293,-2465.6409)"><path
       id="path627-7-7"
       style="fill:#ed4980;fill-opacity:1;stroke-width:2.14867;stroke-linecap:square"
       inkscape:transform-center-x="0.00079946931"
       inkscape:transform-center-y="-3.9790646"
       d="m 18459.717,9318.9632 c -1.716,0.2756 -8.617,11.3873 -10.233,12.0212 -1.523,0.5961 -13.354,-3.1732 -14.695,-2.2395 -1.426,0.9923 -2.818,13.999 -4,15.2703 -1.113,1.1991 -13.413,2.9356 -14.216,4.3586 -0.851,1.5125 3.532,13.837 3.022,15.4943 -0.483,1.5642 -10.809,8.4655 -10.916,10.0952 -0.113,1.7331 9.186,10.9359 9.445,12.6518 0.244,1.6159 -6.068,12.3141 -5.455,13.8301 0.652,1.6125 13.021,5.8642 13.996,7.2975 0.923,1.3507 -0.121,13.7303 1.092,14.8294 1.282,1.168 14.271,-0.3653 15.773,0.503 1.417,0.8166 5.847,12.4209 7.415,12.8861 1.664,0.4961 12.704,-6.5189 14.433,-6.3914 1.63,0.1241 10.661,8.655 12.273,8.3932 1.716,-0.2756 8.614,-11.3873 10.23,-12.0213 1.522,-0.5995 13.358,3.1733 14.701,2.2396 1.423,-0.9923 2.819,-13.999 3.997,-15.2704 1.113,-1.199 13.413,-2.9389 14.216,-4.3619 0.851,-1.5126 -3.535,-13.8336 -3.021,-15.4909 0.482,-1.5642 10.811,-8.469 10.915,-10.0987 0.114,-1.733 -9.186,-10.9325 -9.444,-12.6483 -0.245,-1.6194 6.064,-12.3141 5.45,-13.8301 -0.651,-1.6125 -13.017,-5.8642 -13.995,-7.2976 -0.923,-1.354 0.121,-13.7302 -1.089,-14.8293 -1.285,-1.168 -14.271,0.3652 -15.777,-0.503 -1.416,-0.8166 -5.847,-12.421 -7.414,-12.8895 -1.664,-0.4927 -12.7,6.5222 -14.433,6.3948 -1.63,-0.1241 -10.657,-8.6551 -12.27,-8.3932 z m -6.536,31.9395 c 3.332,0 6.171,1.1749 8.528,3.5317 2.353,2.3532 3.531,5.1957 3.531,8.5275 0,3.3318 -1.178,6.1708 -3.531,8.5276 -2.357,2.3532 -5.196,3.5316 -8.528,3.5316 -3.328,0 -6.171,-1.1784 -8.524,-3.5316 -2.353,-2.3568 -3.531,-5.1958 -3.531,-8.5276 0,-3.3318 1.178,-6.1743 3.531,-8.5275 2.353,-2.3568 5.196,-3.5317 8.524,-3.5317 z m 38.245,0 4.824,4.8237 -50.301,50.3039 -4.823,-4.8236 z m -38.245,6.891 c -1.433,0 -2.656,0.4996 -3.662,1.5057 -1.006,1.0026 -1.509,2.2257 -1.509,3.6625 0,1.4368 0.503,2.653 1.509,3.6591 1.006,1.0026 2.229,1.5091 3.662,1.5091 1.437,0 2.657,-0.5065 3.659,-1.5091 1.003,-1.0061 1.509,-2.2223 1.509,-3.6591 0,-1.4368 -0.506,-2.6599 -1.509,-3.6625 -1.002,-1.0061 -2.222,-1.5057 -3.659,-1.5057 z m 31.009,24.1149 c 3.329,0 6.175,1.1783 8.528,3.5316 2.353,2.3567 3.532,5.1992 3.532,8.531 0,3.3283 -1.179,6.1743 -3.532,8.5275 -2.353,2.3533 -5.199,3.5316 -8.528,3.5316 -3.328,0 -6.17,-1.1783 -8.527,-3.5316 -2.353,-2.3532 -3.532,-5.1992 -3.532,-8.5275 0,-3.3318 1.179,-6.1743 3.532,-8.531 2.357,-2.3533 5.199,-3.5316 8.527,-3.5316 z m 0,6.8909 c -1.436,0 -2.659,0.5065 -3.665,1.5091 -1,1.0061 -1.499,2.2258 -1.499,3.6626 0,1.4333 0.499,2.653 1.499,3.6591 1.006,1.006 2.229,1.5056 3.665,1.5056 1.437,0 2.657,-0.4996 3.663,-1.5056 1.003,-1.0061 1.502,-2.2258 1.502,-3.6591 0,-1.4368 -0.499,-2.6565 -1.502,-3.6626 -1.006,-1.0026 -2.226,-1.5091 -3.663,-1.5091 z" /></g></svg>
