<?xml version="1.0" encoding="UTF-8" standalone="no"?>
<!-- Created with Inkscape (http://www.inkscape.org/) -->

<svg
   width="120.81641"
   height="119.92579"
   viewBox="0 0 31.966007 31.730365"
   version="1.1"
   id="svg1"
   xml:space="preserve"
   inkscape:version="1.3.2 (091e20e, 2023-11-25, custom)"
   sodipodi:docname="test.svg"
   xmlns:inkscape="http://www.inkscape.org/namespaces/inkscape"
   xmlns:sodipodi="http://sodipodi.sourceforge.net/DTD/sodipodi-0.dtd"
   xmlns="http://www.w3.org/2000/svg"
   xmlns:svg="http://www.w3.org/2000/svg"><sodipodi:namedview
     id="namedview1"
     pagecolor="#ffffff"
     bordercolor="#000000"
     borderopacity="0.25"
     inkscape:showpageshadow="2"
     inkscape:pageopacity="0.0"
     inkscape:pagecheckerboard="0"
     inkscape:deskcolor="#d1d1d1"
     inkscape:document-units="px"
     inkscape:zoom="0.12800526"
     inkscape:cx="18475.803"
     inkscape:cy="9128.5309"
     inkscape:window-width="1920"
     inkscape:window-height="1046"
     inkscape:window-x="-11"
     inkscape:window-y="-11"
     inkscape:window-maximized="1"
     inkscape:current-layer="g1"
     showguides="true"
     showgrid="false"><sodipodi:guide
       position="-4794.9566,3316.3597"
       orientation="1,0"
       id="guide10"
       inkscape:locked="false" /><sodipodi:guide
       position="-4761.5484,3354.3179"
       orientation="1,0"
       id="guide11"
       inkscape:locked="false" /><sodipodi:guide
       position="-4828.6583,3362.3284"
       orientation="1,0"
       id="guide12"
       inkscape:locked="false" /><sodipodi:guide
       position="-4052.5288,2863.4442"
       orientation="0,-1"
       id="guide18"
       inkscape:locked="false" /><sodipodi:guide
       position="-4052.5288,2594.5701"
       orientation="0,-1"
       id="guide19"
       inkscape:locked="false" /><sodipodi:guide
       position="-4330.6204,2651.0564"
       orientation="1,0"
       id="guide20"
       inkscape:locked="false" /><sodipodi:guide
       position="-4052.5289,2753.4018"
       orientation="1,0"
       id="guide21"
       inkscape:locked="false" /><inkscape:grid
       id="grid52"
       units="px"
       originx="-5644.84"
       originy="-2535.0151"
       spacingx="0.26458333"
       spacingy="0.26458333"
       empcolor="#0099e5"
       empopacity="0.30196078"
       color="#0099e5"
       opacity="0.14901961"
       empspacing="8"
       dotted="false"
       gridanglex="30"
       gridanglez="30"
       visible="false" /><sodipodi:guide
       position="8587.4926,-609.38126"
       orientation="1,0"
       id="guide52"
       inkscape:locked="false" /><sodipodi:guide
       position="8670.0426,-626.57916"
       orientation="1,0"
       id="guide53"
       inkscape:locked="false" /><sodipodi:guide
       position="8669.5046,-611.76246"
       orientation="0,-1"
       id="guide54"
       inkscape:locked="false" /><sodipodi:guide
       position="8697.5596,-618.11246"
       orientation="1,0"
       id="guide56"
       inkscape:locked="false" /><sodipodi:guide
       position="8780.1096,-620.22916"
       orientation="1,0"
       id="guide57"
       inkscape:locked="false" /><sodipodi:guide
       position="8915.5756,-615.99586"
       orientation="1,0"
       id="guide61"
       inkscape:locked="false" /><sodipodi:guide
       position="8998.1256,-618.11246"
       orientation="1,0"
       id="guide62"
       inkscape:locked="false" /><sodipodi:guide
       position="9025.6426,-615.99586"
       orientation="1,0"
       id="guide63"
       inkscape:locked="false" /><sodipodi:guide
       position="9108.1926,-611.76246"
       orientation="1,0"
       id="guide64"
       inkscape:locked="false" /><sodipodi:guide
       position="9133.5926,-611.76246"
       orientation="1,0"
       id="guide65"
       inkscape:locked="false" /><sodipodi:guide
       position="9216.1426,-611.76246"
       orientation="1,0"
       id="guide66"
       inkscape:locked="false" /><sodipodi:guide
       position="8805.5096,-611.76246"
       orientation="1,0"
       id="guide67"
       inkscape:locked="false" /><sodipodi:guide
       position="8888.0596,-611.76246"
       orientation="1,0"
       id="guide68"
       inkscape:locked="false" /><inkscape:page
       x="2.2268627e-05"
       y="-3.0841107e-05"
       width="31.966007"
       height="31.730364"
       id="page3"
       margin="0"
       bleed="0" /></sodipodi:namedview><defs
     id="defs1" /><g
     id="g1"
     inkscape:groupmode="layer"
     inkscape:label="1"
     transform="matrix(0.26458333,0,0,0.26458335,-5821.6904,-3096.2749)"><path
       sodipodi:type="star"
       style="fill:none;fill-opacity:1;stroke:#5f6368;stroke-width:2.11642;stroke-linecap:square;stroke-dasharray:none;stroke-opacity:1"
       id="path191-6-8-4"
       inkscape:flatsided="false"
       sodipodi:sides="14"
       sodipodi:cx="59196.402"
       sodipodi:cy="17852.297"
       sodipodi:r1="17.464249"
       sodipodi:r2="14.864004"
       sodipodi:arg1="0.52359878"
       sodipodi:arg2="0.73775932"
       inkscape:rounded="0.11"
       inkscape:randomized="0"
       d="m 59211.527,17861.029 c -0.233,0.413 -3.803,0.918 -4.126,1.266 -0.342,0.369 -0.747,4.143 -1.161,4.432 -0.389,0.271 -3.824,-0.823 -4.266,-0.65 -0.469,0.184 -2.471,3.409 -2.969,3.489 -0.468,0.08 -3.088,-2.401 -3.562,-2.436 -0.502,-0.04 -3.705,1.999 -4.188,1.855 -0.455,-0.135 -1.741,-3.503 -2.152,-3.74 -0.437,-0.252 -4.206,0.193 -4.579,-0.146 -0.352,-0.319 -0.05,-3.911 -0.316,-4.304 -0.284,-0.416 -3.874,-1.651 -4.063,-2.118 -0.178,-0.44 1.654,-3.545 1.583,-4.014 -0.08,-0.499 -2.774,-3.168 -2.741,-3.671 0.03,-0.474 3.028,-2.477 3.168,-2.931 0.148,-0.481 -1.125,-4.057 -0.877,-4.496 0.233,-0.414 3.802,-0.918 4.125,-1.266 0.343,-0.37 0.748,-4.144 1.161,-4.432 0.39,-0.271 3.825,0.823 4.267,0.65 0.469,-0.184 2.471,-3.409 2.968,-3.489 0.469,-0.08 3.089,2.4 3.562,2.436 0.503,0.04 3.706,-1.999 4.189,-1.855 0.455,0.135 1.741,3.503 2.152,3.74 0.437,0.252 4.206,-0.193 4.579,0.146 0.351,0.319 0.05,3.911 0.316,4.303 0.284,0.417 3.873,1.651 4.062,2.118 0.178,0.441 -1.653,3.546 -1.582,4.015 0.08,0.498 2.773,3.168 2.741,3.671 -0.03,0.474 -3.028,2.477 -3.168,2.93 -0.148,0.482 1.124,4.058 0.877,4.497 z"
       transform="matrix(3.2694931,0,0,3.2694931,-171478.58,-46605.543)"
       inkscape:transform-center-x="-0.0015948132"
       inkscape:transform-center-y="-3.7756425" /><g
       style="fill:#ffffff;fill-opacity:1"
       id="g192-9-6-4"
       transform="matrix(0.08173731,0,0,0.08173731,22024.408,11801.652)"><path
         d="m 300,-520 q -58,0 -99,-41 -41,-41 -41,-99 0,-58 41,-99 41,-41 99,-41 58,0 99,41 41,41 41,99 0,58 -41,99 -41,41 -99,41 z m 0,-80 q 25,0 42.5,-17.5 Q 360,-635 360,-660 360,-685 342.5,-702.5 325,-720 300,-720 q -25,0 -42.5,17.5 -17.5,17.5 -17.5,42.5 0,25 17.5,42.5 17.5,17.5 42.5,17.5 z m 360,440 q -58,0 -99,-41 -41,-41 -41,-99 0,-58 41,-99 41,-41 99,-41 58,0 99,41 41,41 41,99 0,58 -41,99 -41,41 -99,41 z m 0,-80 q 25,0 42.5,-17.5 Q 720,-275 720,-300 720,-325 702.5,-342.5 685,-360 660,-360 q -25,0 -42.5,17.5 -17.5,17.5 -17.5,42.5 0,25 17.5,42.5 17.5,17.5 42.5,17.5 z m -444,80 -56,-56 584,-584 56,56 z"
         id="path192-0-7-8"
         style="fill:#5f6368;fill-opacity:1" /></g></g></svg>
