<?xml version="1.0" encoding="UTF-8" standalone="no"?>
<!-- Created with Inkscape (http://www.inkscape.org/) -->

<svg
   width="232.252"
   height="232.25102"
   viewBox="0 0 61.450007 61.449749"
   version="1.1"
   id="svg1"
   xml:space="preserve"
   xmlns="http://www.w3.org/2000/svg"
   xmlns:svg="http://www.w3.org/2000/svg"><defs
     id="defs1" /><g
     id="g1"
     transform="matrix(0.26458333,0,0,0.26458335,-4967.652,-2513.0414)"><path
       d="m 18775.378,9556.1713 v -58.0628 h 58.064 v 23.2251 h -34.838 v 34.8377 z m 0,174.1882 v -58.0628 h 23.226 v 34.8376 h 34.838 v 23.2252 z m 174.188,0 v -23.2252 h 34.838 v -34.8376 h 23.226 v 58.0628 z m 34.838,-174.1882 v -34.8377 h -34.838 v -23.2251 h 58.064 v 58.0628 z m -29.032,121.9315 h 17.419 v 17.419 h -17.419 z m 0,-34.8374 h 17.419 v 17.4187 h -17.419 z m -17.418,17.4187 h 17.418 v 17.4187 h -17.418 z m -17.418,17.4187 h 17.418 v 17.419 h -17.418 z m -17.421,-17.4187 h 17.421 v 17.4187 h -17.421 z m 34.839,-34.8377 h 17.418 v 17.419 h -17.418 z m -17.418,17.419 h 17.418 v 17.4187 h -17.418 z m -17.421,-17.419 h 17.421 v 17.419 h -17.421 z m 69.676,-92.9002 v 69.6751 h -69.676 v -69.6751 z m -92.898,92.9002 v 69.6754 h -69.676 v -69.6754 z m 0,-92.9002 v 69.6751 h -69.676 v -69.6751 z m -17.421,145.1566 v -34.8374 h -34.836 v 34.8374 z m 0,-92.9002 v -34.8377 h -34.836 v 34.8377 z m 92.9,0 v -34.8377 h -34.836 v 34.8377 z"
       id="path1-9-3-7"
       style="fill:#5f6368;stroke-width:0.290313" /></g></svg>
