<?xml version="1.0" encoding="UTF-8" standalone="no"?>
<!-- Created with Inkscape (http://www.inkscape.org/) -->

<svg
   width="210.51758"
   height="210.51758"
   viewBox="0 0 55.699442 55.699442"
   version="1.1"
   id="svg1"
   xml:space="preserve"
   inkscape:version="1.3.2 (091e20e, 2023-11-25, custom)"
   sodipodi:docname="test.svg"
   xmlns:inkscape="http://www.inkscape.org/namespaces/inkscape"
   xmlns:sodipodi="http://sodipodi.sourceforge.net/DTD/sodipodi-0.dtd"
   xmlns="http://www.w3.org/2000/svg"
   xmlns:svg="http://www.w3.org/2000/svg"><sodipodi:namedview
     id="namedview1"
     pagecolor="#ffffff"
     bordercolor="#000000"
     borderopacity="0.25"
     inkscape:showpageshadow="2"
     inkscape:pageopacity="0.0"
     inkscape:pagecheckerboard="0"
     inkscape:deskcolor="#d1d1d1"
     inkscape:document-units="px"
     inkscape:zoom="1.9315839"
     inkscape:cx="20504.933"
     inkscape:cy="8993.9141"
     inkscape:window-width="1920"
     inkscape:window-height="1046"
     inkscape:window-x="-11"
     inkscape:window-y="-11"
     inkscape:window-maximized="1"
     inkscape:current-layer="g1"
     showguides="true"
     showgrid="true"><sodipodi:guide
       position="-4163.1334,2567.9291"
       orientation="1,0"
       id="guide10"
       inkscape:locked="false" /><sodipodi:guide
       position="-4129.7252,2605.8872"
       orientation="1,0"
       id="guide11"
       inkscape:locked="false" /><sodipodi:guide
       position="-4196.8351,2613.8977"
       orientation="1,0"
       id="guide12"
       inkscape:locked="false" /><sodipodi:guide
       position="-3420.7056,2115.0135"
       orientation="0,-1"
       id="guide18"
       inkscape:locked="false" /><sodipodi:guide
       position="-3420.7056,1846.1394"
       orientation="0,-1"
       id="guide19"
       inkscape:locked="false" /><sodipodi:guide
       position="-3698.7972,1902.6258"
       orientation="1,0"
       id="guide20"
       inkscape:locked="false" /><sodipodi:guide
       position="-3420.7057,2004.9712"
       orientation="1,0"
       id="guide21"
       inkscape:locked="false" /><inkscape:grid
       id="grid52"
       units="px"
       originx="-5013.0168"
       originy="-1786.5844"
       spacingx="0.26458333"
       spacingy="0.26458333"
       empcolor="#0099e5"
       empopacity="0.30196078"
       color="#0099e5"
       opacity="0.14901961"
       empspacing="8"
       dotted="false"
       gridanglex="30"
       gridanglez="30"
       visible="true" /><sodipodi:guide
       position="9219.3159,-1357.8119"
       orientation="1,0"
       id="guide52"
       inkscape:locked="false" /><sodipodi:guide
       position="9301.8659,-1375.0098"
       orientation="1,0"
       id="guide53"
       inkscape:locked="false" /><sodipodi:guide
       position="9301.3279,-1360.1931"
       orientation="0,-1"
       id="guide54"
       inkscape:locked="false" /><sodipodi:guide
       position="9329.3829,-1366.5431"
       orientation="1,0"
       id="guide56"
       inkscape:locked="false" /><sodipodi:guide
       position="9411.9329,-1368.6598"
       orientation="1,0"
       id="guide57"
       inkscape:locked="false" /><sodipodi:guide
       position="9547.3989,-1364.4265"
       orientation="1,0"
       id="guide61"
       inkscape:locked="false" /><sodipodi:guide
       position="9629.9489,-1366.5431"
       orientation="1,0"
       id="guide62"
       inkscape:locked="false" /><sodipodi:guide
       position="9657.4659,-1364.4265"
       orientation="1,0"
       id="guide63"
       inkscape:locked="false" /><sodipodi:guide
       position="9740.0159,-1360.1931"
       orientation="1,0"
       id="guide64"
       inkscape:locked="false" /><sodipodi:guide
       position="9765.4159,-1360.1931"
       orientation="1,0"
       id="guide65"
       inkscape:locked="false" /><sodipodi:guide
       position="9847.9659,-1360.1931"
       orientation="1,0"
       id="guide66"
       inkscape:locked="false" /><sodipodi:guide
       position="9437.3329,-1360.1931"
       orientation="1,0"
       id="guide67"
       inkscape:locked="false" /><sodipodi:guide
       position="9519.8829,-1360.1931"
       orientation="1,0"
       id="guide68"
       inkscape:locked="false" /><sodipodi:guide
       position="-750.40448,152.67578"
       orientation="0,-1"
       id="guide274"
       inkscape:locked="false" /><inkscape:page
       x="-8.3776104e-06"
       y="1.5094894e-06"
       width="55.69944"
       height="55.699444"
       id="page3"
       margin="0"
       bleed="0" /></sodipodi:namedview><defs
     id="defs1" /><g
     id="g1"
     inkscape:groupmode="layer"
     inkscape:label="1"
     transform="matrix(0.26458333,0,0,0.26458335,-5189.8672,-2347.8442)"><g
       style="fill:#5f6368"
       id="g56-8-6"
       transform="matrix(0.2631465,0,0,0.2631465,19594.194,9105.3103)"><path
         d="m 360,-320 q 33,0 56.5,-23.5 Q 440,-367 440,-400 440,-433 416.5,-456.5 393,-480 360,-480 q -33,0 -56.5,23.5 -23.5,23.5 -23.5,56.5 0,33 23.5,56.5 23.5,23.5 56.5,23.5 z m 240,0 q 33,0 56.5,-23.5 Q 680,-367 680,-400 680,-433 656.5,-456.5 633,-480 600,-480 q -33,0 -56.5,23.5 -23.5,23.5 -23.5,56.5 0,33 23.5,56.5 Q 567,-320 600,-320 Z M 480,-520 q 33,0 56.5,-23.5 Q 560,-567 560,-600 560,-633 536.5,-656.5 513,-680 480,-680 q -33,0 -56.5,23.5 -23.5,23.5 -23.5,56.5 0,33 23.5,56.5 23.5,23.5 56.5,23.5 z m 0,440 Q 397,-80 324,-111.5 251,-143 197,-197 143,-251 111.5,-324 80,-397 80,-480 q 0,-83 31.5,-156 31.5,-73 85.5,-127 54,-54 127,-85.5 73,-31.5 156,-31.5 83,0 156,31.5 73,31.5 127,85.5 54,54 85.5,127 31.5,73 31.5,156 0,83 -31.5,156 -31.5,73 -85.5,127 -54,54 -127,85.5 Q 563,-80 480,-80 Z m 0,-80 q 134,0 227,-93 93,-93 93,-227 0,-134 -93,-227 -93,-93 -227,-93 -134,0 -227,93 -93,93 -93,227 0,134 93,227 93,93 227,93 z m 0,-320 z"
         id="path1-4-5-1" /></g></g></svg>
