<?xml version="1.0" encoding="UTF-8" standalone="no"?>
<!-- Created with Inkscape (http://www.inkscape.org/) -->

<svg
   width="434.07031"
   height="411.98239"
   viewBox="0 0 114.84777 109.00367"
   version="1.1"
   id="svg1"
   xml:space="preserve"
   inkscape:version="1.3.2 (091e20e, 2023-11-25, custom)"
   sodipodi:docname="DIVA.svg"
   xmlns:inkscape="http://www.inkscape.org/namespaces/inkscape"
   xmlns:sodipodi="http://sodipodi.sourceforge.net/DTD/sodipodi-0.dtd"
   xmlns="http://www.w3.org/2000/svg"
   xmlns:svg="http://www.w3.org/2000/svg"><sodipodi:namedview
     id="namedview1"
     pagecolor="#ffffff"
     bordercolor="#000000"
     borderopacity="0.25"
     inkscape:showpageshadow="2"
     inkscape:pageopacity="0.0"
     inkscape:pagecheckerboard="0"
     inkscape:deskcolor="#d1d1d1"
     inkscape:document-units="px"
     inkscape:zoom="1.3249068"
     inkscape:cx="58761.869"
     inkscape:cy="19781.391"
     inkscape:window-width="1920"
     inkscape:window-height="1046"
     inkscape:window-x="-11"
     inkscape:window-y="-11"
     inkscape:window-maximized="1"
     inkscape:current-layer="g1"
     showguides="true"
     showgrid="true"><sodipodi:guide
       position="-14374.782,5537.2293"
       orientation="1,0"
       id="guide10"
       inkscape:locked="false" /><sodipodi:guide
       position="-14341.374,5575.1875"
       orientation="1,0"
       id="guide11"
       inkscape:locked="false" /><sodipodi:guide
       position="-14408.484,5583.198"
       orientation="1,0"
       id="guide12"
       inkscape:locked="false" /><sodipodi:guide
       position="-13632.354,5084.3138"
       orientation="0,-1"
       id="guide18"
       inkscape:locked="false" /><sodipodi:guide
       position="-13632.354,4815.4397"
       orientation="0,-1"
       id="guide19"
       inkscape:locked="false" /><sodipodi:guide
       position="-13910.446,4871.9261"
       orientation="1,0"
       id="guide20"
       inkscape:locked="false" /><sodipodi:guide
       position="-13632.354,4974.2714"
       orientation="1,0"
       id="guide21"
       inkscape:locked="false" /><inkscape:grid
       id="grid52"
       units="px"
       originx="-15224.665"
       originy="-4755.8845"
       spacingx="0.26458333"
       spacingy="0.26458333"
       empcolor="#0099e5"
       empopacity="0.30196078"
       color="#0099e5"
       opacity="0.14901961"
       empspacing="8"
       dotted="false"
       gridanglex="30"
       gridanglez="30"
       visible="true" /><sodipodi:guide
       position="-992.33259,1611.4884"
       orientation="1,0"
       id="guide52"
       inkscape:locked="false" /><sodipodi:guide
       position="-909.78259,1594.2905"
       orientation="1,0"
       id="guide53"
       inkscape:locked="false" /><sodipodi:guide
       position="-910.32059,1609.1072"
       orientation="0,-1"
       id="guide54"
       inkscape:locked="false" /><sodipodi:guide
       position="-882.26559,1602.7572"
       orientation="1,0"
       id="guide56"
       inkscape:locked="false" /><sodipodi:guide
       position="-799.71558,1600.6405"
       orientation="1,0"
       id="guide57"
       inkscape:locked="false" /><sodipodi:guide
       position="-664.24958,1604.8738"
       orientation="1,0"
       id="guide61"
       inkscape:locked="false" /><sodipodi:guide
       position="-581.69958,1602.7572"
       orientation="1,0"
       id="guide62"
       inkscape:locked="false" /><sodipodi:guide
       position="-554.18258,1604.8738"
       orientation="1,0"
       id="guide63"
       inkscape:locked="false" /><sodipodi:guide
       position="-471.63258,1609.1072"
       orientation="1,0"
       id="guide64"
       inkscape:locked="false" /><sodipodi:guide
       position="-446.23258,1609.1072"
       orientation="1,0"
       id="guide65"
       inkscape:locked="false" /><sodipodi:guide
       position="-363.68258,1609.1072"
       orientation="1,0"
       id="guide66"
       inkscape:locked="false" /><sodipodi:guide
       position="-774.31558,1609.1072"
       orientation="1,0"
       id="guide67"
       inkscape:locked="false" /><sodipodi:guide
       position="-691.76558,1609.1072"
       orientation="1,0"
       id="guide68"
       inkscape:locked="false" /><inkscape:page
       x="-0.00015127248"
       y="0.00016499085"
       width="114.84777"
       height="109.00368"
       id="page3"
       margin="0"
       bleed="0" /></sodipodi:namedview><defs
     id="defs1" /><g
     id="g1"
     inkscape:groupmode="layer"
     inkscape:label="1"
     transform="matrix(0.26458333,0,0,0.26458335,-15401.516,-5317.1445)"><path
       style="fill:#000000"
       d="m 58398.053,20507.114 c -5.09,-2.919 -6.018,-8.916 -2.088,-13.487 l 2.413,-2.805 38.682,-0.5 38.682,-0.5 -99.845,-68.674 c -54.914,-37.77 -101.745,-70.051 -104.067,-71.736 -5.643,-4.093 -8.666,-10.05 -8.676,-17.09 0,-7.01 1.511,-10.028 11.552,-22.929 l 8.117,-10.428 1.853,-10.861 c 5.139,-30.117 19.748,-53.88 44.337,-72.119 l 6.96,-5.163 -33.91,-0.264 c -32.949,-0.256 -33.974,-0.323 -36.159,-2.375 -4.737,-4.452 -3.473,-12.326 2.368,-14.745 2.056,-0.852 18.072,-1.091 59.519,-0.891 66.776,0.323 60.161,-1.153 62.364,13.92 3.526,24.125 13.48,44.042 28.01,56.049 10.271,8.487 27.284,14.832 43.888,16.368 l 7,0.647 0.05,-19.855 c 0.05,-18.913 0.2,-20.402 3.131,-31.403 3.712,-13.933 9.641,-28.44 15.71,-38.436 4.641,-7.645 40.852,-56.904 45.405,-61.765 5.572,-5.952 15.247,-2.152 15.159,5.954 -0.04,3.354 -2.472,7.052 -20.949,31.796 -11.499,15.4 -22.722,31.158 -24.939,35.018 -5.119,8.912 -11.425,25.645 -13.56,35.982 -3.396,16.443 -3.204,40.46 0.325,40.535 3.824,0.08 6.766,3.241 12.643,13.577 5.631,9.905 6.428,10.862 8.837,10.603 3.229,-0.348 8.256,2.115 9.655,4.729 1.601,2.991 1.217,7.547 -0.857,10.184 -1.879,2.388 -1.871,2.425 2.093,9.635 3.667,6.669 4.232,7.237 7.212,7.237 4.522,0 7.582,3.477 7.582,8.614 0,2.192 -0.512,4.497 -1.137,5.122 -1.592,1.592 6.865,16.486 9.578,16.869 5.134,0.724 6.719,1.662 8.258,4.89 1.417,2.971 1.463,3.982 0.34,7.386 l -1.302,3.943 8.848,15.8 c 4.866,8.69 10.162,17.296 11.768,19.125 4.037,4.599 17.106,10.622 29.647,13.664 20.152,4.89 33.276,13.71 39.26,26.386 2.77,5.868 2.946,6.932 2.569,15.556 -0.329,7.517 -0.917,10.303 -3.129,14.825 -3.336,6.818 -10.951,14.129 -18.148,17.424 -11.81,5.407 -10.791,5.362 -121.052,5.348 -74.865,-0.01 -102.533,-0.318 -104,-1.16 z m 208.034,-17.883 c 6.673,-1.234 12.065,-3.7 14.871,-6.803 l 1.905,-2.106 h -22.982 c -12.64,0 -27.897,-0.479 -33.905,-1.064 -28.151,-2.742 -58.304,-12.885 -81.923,-27.559 -4.4,-2.733 -48.509,-34.445 -98.019,-70.471 -49.51,-36.026 -90.511,-65.807 -91.114,-66.179 -1.562,-0.966 -13.559,14.963 -13.173,17.49 0.353,2.311 206.112,144.368 214.08,147.802 8.837,3.808 29.846,7.315 53.226,8.885 18.263,1.227 50.409,1.229 57.034,0 z m 18.466,-27.832 c 0,-1.744 -6.248,-7.169 -11.07,-9.613 -2.654,-1.345 -9.875,-3.818 -16.047,-5.496 -15.608,-4.244 -24.166,-8.037 -32.798,-14.535 l -7.414,-5.581 -6.168,1.074 c -17.982,3.131 -34.512,-0.907 -49.259,-12.034 -7.575,-5.715 -11.877,-11.667 -22.334,-30.897 -5.637,-10.365 -9.755,-16.885 -10.488,-16.604 -0.663,0.254 -11.717,3.474 -24.564,7.155 -12.847,3.681 -23.722,7.025 -24.167,7.432 -0.445,0.407 3.347,3.733 8.427,7.392 6.952,5.007 9.748,6.489 11.309,5.994 9.351,-2.97 22.478,-5.907 24.3,-5.438 5.596,1.441 8.41,6.912 6.245,12.14 -1.337,3.229 -4.425,5.252 -9.775,6.404 -1.817,0.392 -3.167,1.083 -3,1.536 0.398,1.085 22.133,16.929 32.303,23.548 22.804,14.844 51.783,25.03 77.813,27.351 13.06,1.165 56.687,1.297 56.687,0.172 z m -78.802,-51.898 c 1.464,-0.586 0.803,-2.291 -4.786,-12.348 l -6.485,-11.67 -6.71,1.92 c -8.767,2.507 -10.461,2.426 -14.141,-0.67 -2.421,-2.037 -3.076,-3.383 -3.076,-6.312 0,-4.782 2.474,-7.432 8.948,-9.582 2.778,-0.923 5.052,-1.925 5.052,-2.226 0,-0.638 -5.9,-11.246 -7.196,-12.938 -0.649,-0.848 -2.504,-0.645 -7.092,0.775 -9.914,3.067 -15.161,1.043 -16.354,-6.31 -0.774,-4.768 2.996,-9.167 9.196,-10.728 l 4.582,-1.154 -3.715,-6.718 c -2.044,-3.695 -3.83,-6.861 -3.97,-7.036 -0.14,-0.175 -2.63,0.387 -5.534,1.25 -7.23,2.147 -9.269,1.984 -12.841,-1.021 -2.411,-2.03 -3.076,-3.387 -3.076,-6.278 0,-5.775 2.049,-7.88 10.222,-10.498 1.534,-0.491 1.39,-1.129 -1.32,-5.843 l -3.043,-5.292 h -15.835 c -8.709,0 -15.726,0.225 -15.593,0.5 0.132,0.275 11.677,21.599 25.655,47.387 16.026,29.567 26.943,48.591 29.554,51.5 5.077,5.656 13.046,10.553 20.36,12.509 5.777,1.546 14.32,1.935 17.198,0.783 z m -114.727,-49.679 c 16.185,-4.675 29.657,-8.5 29.937,-8.5 0.489,0 -7.092,-14.771 -8.313,-16.196 -0.327,-0.382 -11.395,2.418 -24.595,6.223 -13.2,3.805 -25.61,6.93 -27.576,6.945 -3.869,0.03 -7.128,-2.607 -8.4,-6.796 -0.972,-3.199 1.224,-8.007 4.366,-9.56 1.435,-0.71 12.626,-4.129 24.869,-7.599 l 22.26,-6.308 -2.372,-4.105 c -1.305,-2.257 -4.747,-8.537 -7.65,-13.954 -3.479,-6.494 -6.251,-10.413 -8.133,-11.5 -1.571,-0.908 -5.656,-3.225 -9.078,-5.15 -7.602,-4.276 -19.506,-15.347 -25.432,-23.652 -7.481,-10.483 -14.033,-26.541 -17.783,-43.584 l -0.602,-2.736 -6.735,2.526 c -9.5,3.564 -21.414,10.514 -20.337,11.864 10.572,13.259 18.268,27.05 22.644,40.582 2.214,6.843 2.837,10.936 3.2,21 0.615,17.089 -2.336,29.301 -10.259,42.459 -1.934,3.212 -3.272,6.085 -2.972,6.385 2.359,2.358 41.272,30.093 42.261,30.12 0.699,0.02 14.514,-3.789 30.7,-8.464 z m -83.585,-41.75 c 5.235,-10.953 6.507,-17.319 5.877,-29.407 -0.787,-15.086 -5.805,-27.476 -17.498,-43.197 l -5.469,-7.354 -3.978,3.854 c -5.235,5.07 -13.967,18.285 -17.205,26.038 -2.768,6.626 -6.071,18.214 -7.112,24.953 l -0.639,4.137 19.819,14.546 c 10.9,8.001 20.368,14.576 21.04,14.613 0.672,0.04 2.996,-3.646 5.165,-8.183 z m -96.963,107.327 c -1.995,-1.995 -2.923,-3.925 -2.923,-6.077 0,-2.153 0.928,-4.082 2.923,-6.077 l 2.923,-2.923 h 32.622 32.622 l 2.455,2.454 c 3.515,3.516 3.424,9.742 -0.191,13.093 l -2.647,2.453 h -32.43 -32.431 z m -37.469,-158.532 c -3.451,-3.451 -3.393,-9.315 0.126,-12.621 l 2.581,-2.424 h 26.506 26.506 l 2.413,2.805 c 3.254,3.783 3.236,8.963 -0.04,12.24 l -2.455,2.455 h -26.59 -26.591 z m 178,-95 c -1.553,-1.553 -2.454,-3.596 -2.454,-5.563 0,-4.163 25.515,-65.984 28.161,-68.232 3.258,-2.768 8.489,-2.253 11.915,1.173 1.608,1.607 2.924,3.9 2.924,5.095 0,1.195 -5.006,14.392 -11.124,29.327 -17.441,42.578 -16.292,40.565 -23.172,40.623 -2.725,0.02 -4.488,-0.661 -6.25,-2.423 z"
       id="path790" /></g></svg>
