<?xml version="1.0" encoding="UTF-8" standalone="no"?>
<!-- Created with Inkscape (http://www.inkscape.org/) -->

<svg
   width="712.22656"
   height="903.65039"
   viewBox="0 0 188.44328 239.09083"
   version="1.1"
   id="svg1"
   xml:space="preserve"
   inkscape:version="1.3.2 (091e20e, 2023-11-25, custom)"
   sodipodi:docname="DIVA.svg"
   xmlns:inkscape="http://www.inkscape.org/namespaces/inkscape"
   xmlns:sodipodi="http://sodipodi.sourceforge.net/DTD/sodipodi-0.dtd"
   xmlns="http://www.w3.org/2000/svg"
   xmlns:svg="http://www.w3.org/2000/svg"><sodipodi:namedview
     id="namedview1"
     pagecolor="#ffffff"
     bordercolor="#000000"
     borderopacity="0.25"
     inkscape:showpageshadow="2"
     inkscape:pageopacity="0.0"
     inkscape:pagecheckerboard="0"
     inkscape:deskcolor="#d1d1d1"
     inkscape:document-units="px"
     inkscape:zoom="1.3249068"
     inkscape:cx="59161.897"
     inkscape:cy="20228.215"
     inkscape:window-width="1920"
     inkscape:window-height="1046"
     inkscape:window-x="-11"
     inkscape:window-y="-11"
     inkscape:window-maximized="1"
     inkscape:current-layer="g1"
     showguides="true"
     showgrid="true"><sodipodi:guide
       position="-14390.876,5415.9793"
       orientation="1,0"
       id="guide10"
       inkscape:locked="false" /><sodipodi:guide
       position="-14357.467,5453.9375"
       orientation="1,0"
       id="guide11"
       inkscape:locked="false" /><sodipodi:guide
       position="-14424.577,5461.948"
       orientation="1,0"
       id="guide12"
       inkscape:locked="false" /><sodipodi:guide
       position="-13648.448,4963.0638"
       orientation="0,-1"
       id="guide18"
       inkscape:locked="false" /><sodipodi:guide
       position="-13648.448,4694.1897"
       orientation="0,-1"
       id="guide19"
       inkscape:locked="false" /><sodipodi:guide
       position="-13926.539,4750.6761"
       orientation="1,0"
       id="guide20"
       inkscape:locked="false" /><sodipodi:guide
       position="-13648.448,4853.0214"
       orientation="1,0"
       id="guide21"
       inkscape:locked="false" /><inkscape:grid
       id="grid52"
       units="px"
       originx="-15240.759"
       originy="-4634.6347"
       spacingx="0.26458333"
       spacingy="0.26458333"
       empcolor="#0099e5"
       empopacity="0.30196078"
       color="#0099e5"
       opacity="0.14901961"
       empspacing="8"
       dotted="false"
       gridanglex="30"
       gridanglez="30"
       visible="true" /><sodipodi:guide
       position="-1008.4263,1490.2384"
       orientation="1,0"
       id="guide52"
       inkscape:locked="false" /><sodipodi:guide
       position="-925.87634,1473.0405"
       orientation="1,0"
       id="guide53"
       inkscape:locked="false" /><sodipodi:guide
       position="-926.41434,1487.8572"
       orientation="0,-1"
       id="guide54"
       inkscape:locked="false" /><sodipodi:guide
       position="-898.35934,1481.5072"
       orientation="1,0"
       id="guide56"
       inkscape:locked="false" /><sodipodi:guide
       position="-815.80934,1479.3905"
       orientation="1,0"
       id="guide57"
       inkscape:locked="false" /><sodipodi:guide
       position="-680.34333,1483.6238"
       orientation="1,0"
       id="guide61"
       inkscape:locked="false" /><sodipodi:guide
       position="-597.79333,1481.5072"
       orientation="1,0"
       id="guide62"
       inkscape:locked="false" /><sodipodi:guide
       position="-570.27633,1483.6238"
       orientation="1,0"
       id="guide63"
       inkscape:locked="false" /><sodipodi:guide
       position="-487.72633,1487.8572"
       orientation="1,0"
       id="guide64"
       inkscape:locked="false" /><sodipodi:guide
       position="-462.32633,1487.8572"
       orientation="1,0"
       id="guide65"
       inkscape:locked="false" /><sodipodi:guide
       position="-379.77633,1487.8572"
       orientation="1,0"
       id="guide66"
       inkscape:locked="false" /><sodipodi:guide
       position="-790.40933,1487.8572"
       orientation="1,0"
       id="guide67"
       inkscape:locked="false" /><sodipodi:guide
       position="-707.85933,1487.8572"
       orientation="1,0"
       id="guide68"
       inkscape:locked="false" /><inkscape:page
       x="-0.00033995954"
       y="7.2012426e-06"
       width="188.44327"
       height="239.09084"
       id="page3"
       margin="0"
       bleed="0" /></sodipodi:namedview><defs
     id="defs1" /><g
     id="g1"
     inkscape:groupmode="layer"
     inkscape:label="1"
     transform="matrix(0.26458333,0,0,0.26458335,-15417.609,-5195.8945)"><path
       id="path792"
       style="fill:#000000"
       d="m 58623.803,19638.157 c -12.046,0.771 -25.145,4.9 -34.898,11.348 -5.225,3.455 -44.094,41.659 -153.328,150.709 -80.48,80.344 -148.265,148.78 -150.631,152.08 -9.725,13.561 -13.666,25.819 -13.666,42.5 0,17.12 4.145,29.486 14.527,43.33 8.552,11.405 21.349,20.079 36.598,24.814 10.615,3.296 28.227,3.284 38.965,-0.03 8.221,-2.535 16.646,-6.562 22.035,-10.531 1.925,-1.418 41.525,-40.491 88,-86.83 l 84.5,-84.252 0.5,301.5 0.5,301.5 3.078,8.619 c 5.276,14.771 12.455,24.758 24.094,33.521 11.221,8.449 21.117,12.609 33.828,14.219 v 0 c 3.85,0.488 7.461,0.944 8.025,1.014 0.565,0.07 4.84,-0.337 9.5,-0.906 14.406,-1.758 23.748,-5.576 35.475,-14.5 11.575,-8.808 19.062,-19.321 24.195,-33.967 l 2.805,-8 0.5,-301.5 0.5,-301.5 82,82.135 c 45.1,45.175 84.612,84.217 87.805,86.763 7.104,5.663 14.883,9.672 24.728,12.74 10.661,3.322 28.271,3.322 38.932,0 17.478,-5.446 29.807,-14.492 39.717,-29.138 8.079,-11.941 11.411,-23.309 11.421,-39 0.02,-16.687 -3.915,-28.931 -13.646,-42.5 -2.366,-3.3 -70.151,-71.736 -150.631,-152.08 -109.234,-109.05 -148.1,-147.254 -153.326,-150.709 -8.037,-5.313 -19.144,-9.296 -30.568,-10.961 -3.619,-0.528 -7.518,-0.644 -11.534,-0.387 z" /></g></svg>
